<?xml version="1.0" encoding="UTF-8"?>
<svg id="Layer_30" data-name="Layer 30" xmlns="http://www.w3.org/2000/svg" xmlns:xlink="http://www.w3.org/1999/xlink" viewBox="0 0 4498.49 4503.08">
  <defs>
    <style>
      .cls-1 {
        fill: none;
      }

      .cls-2 {
        fill: #080c0d;
      }

      .cls-3 {
        fill: #0e1413;
      }

      .cls-4 {
        fill: #080d0e;
      }

      .cls-5 {
        fill: #070c0d;
      }

      .cls-6 {
        fill: #fed5b5;
      }

      .cls-7 {
        fill: #ffc835;
      }

      .cls-8 {
        fill: #573814;
      }

      .cls-9 {
        fill: #e35b25;
      }

      .cls-10 {
        fill: #00364f;
      }

      .cls-11 {
        fill: #bf3926;
      }

      .cls-12 {
        fill: #176169;
      }

      .cls-13 {
        fill: #de8e27;
      }

      .cls-14 {
        fill: #cc7c29;
      }

      .cls-15 {
        fill: #fff6e7;
      }

      .cls-16 {
        fill: #0e494c;
      }

      .cls-17 {
        fill: #151714;
      }

      .cls-18 {
        fill: #090d0e;
      }

      .cls-19 {
        fill: #070c0b;
      }

      .cls-20 {
        fill: #01324b;
      }

      .cls-21 {
        fill: #ed8c53;
      }

      .cls-22 {
        fill: #feddc1;
      }

      .cls-23 {
        fill: #155639;
      }

      .cls-24 {
        fill: #141615;
      }

      .cls-25 {
        fill: #e89724;
      }

      .cls-26 {
        fill: #ea994b;
      }

      .cls-27 {
        fill: #9e2c21;
      }

      .cls-28 {
        clip-path: url(#clippath);
      }

      .cls-29 {
        fill: #9a5925;
      }
    </style>
    <clipPath id="clippath">
      <rect class="cls-1" y="0" width="4498.49" height="4503.08"/>
    </clipPath>
  </defs>
  <g class="cls-28">
    <rect class="cls-22" x="-104.11" y="-103.81" width="4699.48" height="4755.33"/>
    <path class="cls-5" d="M2473.02,4727.43c-24.3,0-44-19.7-44-44V1042.86c0-89.01,72.41-161.42,161.42-161.42h1957.06c24.3,0,44,19.7,44,44s-19.7,44-44,44h-1957.06c-40.48,0-73.42,32.93-73.42,73.42v3640.57c0,24.3-19.7,44-44,44Z"/>
    <path class="cls-5" d="M3244.78,1196.78c-7.46,0-13.5-6.04-13.5-13.5v-104.85c0-32.47-39.13-50.4-39.53-50.58-.63-.29-1.29-.64-1.87-1.02-.67-.44-1.33-.88-1.98-1.32-24.83-17.06-36.29-47.74-29.17-77.21l-3.33-18.28c-.31-1.7-.29-3.44.06-5.13,3.17-15.4,9.14-29.01,17.75-40.45,28.04-37.23,80.62-45.62,119.7-19.1,23.52,15.96,30.69,37.33,31.43,39.72l-25.79,8,.04.12c-.05-.15-5.04-14.78-20.84-25.5-27.15-18.42-63.6-12.71-82.97,13-5.74,7.62-9.88,16.75-12.33,27.17l3.38,18.57c.37,2.05.27,4.16-.31,6.16-5.56,19.23,1.54,39.59,17.67,50.67.22.15.44.3.66.45,3.6,1.72,14.88,7.52,26.09,17.42,18.54,16.36,28.34,36.17,28.34,57.31v104.85c0,7.46-6.04,13.5-13.5,13.5Z"/>
    <path class="cls-5" d="M3666.78,1196.78c-7.46,0-13.5-6.04-13.5-13.5v-104.85c0-32.47-39.13-50.4-39.53-50.58-.63-.29-1.29-.64-1.87-1.02-.67-.44-1.33-.88-1.98-1.32-24.83-17.06-36.29-47.74-29.17-77.21l-3.33-18.28c-.31-1.7-.29-3.44.06-5.13,3.17-15.4,9.14-29.01,17.75-40.45,28.04-37.23,80.62-45.62,119.7-19.1,23.52,15.96,30.69,37.33,31.43,39.72l-25.79,8,.04.12c-.05-.15-5.04-14.78-20.84-25.5-27.15-18.42-63.6-12.71-82.97,13-5.74,7.62-9.88,16.75-12.33,27.17l3.38,18.57c.37,2.05.27,4.16-.31,6.16-5.56,19.23,1.54,39.59,17.67,50.67.22.15.44.3.66.45,3.6,1.72,14.88,7.52,26.09,17.42,18.54,16.36,28.34,36.17,28.34,57.31v104.85c0,7.46-6.04,13.5-13.5,13.5Z"/>
    <path class="cls-5" d="M3996.78,1196.78c-7.46,0-13.5-6.04-13.5-13.5v-104.85c0-32.47-39.13-50.4-39.53-50.58-.63-.29-1.29-.64-1.87-1.02-.67-.44-1.33-.88-1.98-1.32-24.83-17.06-36.29-47.74-29.17-77.21l-3.33-18.28c-.31-1.7-.29-3.44.06-5.13,3.17-15.4,9.14-29.01,17.75-40.45,28.04-37.23,80.62-45.62,119.7-19.1,23.52,15.96,30.69,37.33,31.43,39.72l-25.79,8,.04.12c-.05-.15-5.04-14.78-20.84-25.5-27.15-18.42-63.6-12.71-82.97,13-5.74,7.62-9.88,16.75-12.33,27.17l3.38,18.57c.37,2.05.27,4.16-.31,6.16-5.56,19.23,1.54,39.59,17.67,50.67.22.15.44.3.66.45,3.6,1.72,14.88,7.52,26.09,17.42,18.54,16.36,28.34,36.17,28.34,57.31v104.85c0,7.46-6.04,13.5-13.5,13.5Z"/>
    <path class="cls-5" d="M4296.78,1196.78c-7.46,0-13.5-6.04-13.5-13.5v-104.85c0-32.47-39.13-50.4-39.53-50.58-.63-.29-1.29-.64-1.87-1.02-.67-.44-1.33-.88-1.98-1.32-24.83-17.06-36.29-47.74-29.17-77.21l-3.33-18.28c-.31-1.7-.29-3.44.06-5.13,3.17-15.4,9.14-29.01,17.75-40.45,28.04-37.23,80.62-45.62,119.7-19.1,23.52,15.96,30.69,37.33,31.43,39.72l-25.79,8,.04.12c-.05-.15-5.04-14.78-20.84-25.5-27.15-18.42-63.6-12.71-82.97,13-5.74,7.62-9.88,16.75-12.33,27.17l3.38,18.57c.37,2.05.27,4.16-.31,6.16-5.56,19.23,1.54,39.59,17.67,50.67.22.15.44.3.66.45,3.6,1.72,14.88,7.52,26.09,17.42,18.54,16.36,28.34,36.17,28.34,57.31v104.85c0,7.46-6.04,13.5-13.5,13.5Z"/>
    <path class="cls-4" d="M4267.52,1365.11s105.02,66.12,258.01,23.34l7.78,117.98-59.64,12.97-206.15-154.29Z"/>
    <path class="cls-11" d="M3241.64,1453.68s8.65-40.65,63.73-70.81l81.3-39.6,80.99,56.8-119.02,115.24-107-61.63Z"/>
    <path class="cls-26" d="M4591.65,1339.52l-41.69,87.55-245.99-145.92-1.19.62-226.04,118.2-1.05.1-103.18,10.33-23.36-42.11c60.66-24.52,129.07-73.56,129.07-73.56,54.99-31.6,90.89-107.74,97.12-121.69.68-1.53,1.46-3.02,2.39-4.41,38.03-56.99,117.32-49.43,117.32-49.43,68.49.72,108.81,38.76,127.05,61.94,6.05,7.67,10.8,16.26,14.57,25.27,24.92,59.41,128.42,117.81,128.42,117.81l26.56,15.3Z"/>
    <polygon class="cls-24" points="4079.5 1387.61 4075.69 1400.07 4076.74 1399.97 4302.78 1281.77 4291.41 1260.74 4079.5 1387.61"/>
    <path class="cls-16" d="M3901.9,1354.74s124.47,81.68,318.95,6.48l142.62,98.54-119.28,172.44-176.33-89.46-165.96-188Z"/>
    <path class="cls-26" d="M4302.78,1352.38l-41.69,87.55-245.99-145.92-1.19.62-226.04,118.2-1.05.1-103.18,10.33-23.36-42.11c60.66-24.52,129.07-73.56,129.07-73.56,54.99-31.6,90.89-107.74,97.12-121.69.68-1.53,1.46-3.02,2.39-4.41,38.03-56.99,117.32-49.43,117.32-49.43,68.49.72,108.81,38.76,127.05,61.94,6.05,7.67,10.8,16.26,14.57,25.27,24.92,59.41,128.42,117.81,128.42,117.81l26.56,15.3Z"/>
    <polygon class="cls-24" points="3790.63 1400.47 3786.82 1412.93 3787.87 1412.83 4013.91 1294.63 4002.54 1273.6 3790.63 1400.47"/>
    <path class="cls-27" d="M3468.22,1355.55l276.85,233.92,145.09,51.82,57.74-211.71-176.18-97.71s-111.04,69.58-235.4,0l-68.1,23.69Z"/>
    <path class="cls-26" d="M3958.16,1352.38l-41.69,87.55-245.99-145.92-1.19.62-226.04,118.2-1.05.1-103.18,10.33-23.36-42.11c60.66-24.52,129.07-73.56,129.07-73.56,54.99-31.6,90.89-107.74,97.12-121.69.68-1.53,1.46-3.02,2.39-4.41,38.03-56.99,117.32-49.43,117.32-49.43,68.49.72,108.81,38.76,127.05,61.94,6.05,7.67,10.8,16.26,14.57,25.27,24.92,59.41,128.42,117.81,128.42,117.81l26.56,15.3Z"/>
    <polygon class="cls-24" points="3446 1400.47 3442.2 1412.93 3443.25 1412.83 3669.29 1294.63 3657.92 1273.6 3446 1400.47"/>
    <path class="cls-14" d="M3022.36,1365.52s156.93,124.74,440.62,28.17l177.05,189.12-440.62,577.43-197.17-352.09-32.19-366.18,52.31-76.45Z"/>
    <path class="cls-26" d="M3530.51,1352.38l-41.69,87.55-245.99-145.92-1.19.62-226.04,118.2-1.05.1-103.18,10.33-23.36-42.11c60.66-24.52,129.07-73.56,129.07-73.56,54.99-31.6,90.89-107.74,97.12-121.69.68-1.53,1.46-3.02,2.39-4.41,38.03-56.99,117.32-49.43,117.32-49.43,68.49.72,108.81,38.76,127.05,61.94,6.05,7.67,10.8,16.26,14.57,25.27,24.92,59.41,128.42,117.81,128.42,117.81l26.56,15.3Z"/>
    <polygon class="cls-24" points="3018.35 1400.47 3014.55 1412.93 3015.6 1412.83 3241.64 1294.63 3230.27 1273.6 3018.35 1400.47"/>
    <path class="cls-10" d="M3908.19,3538.34l-44.75,707.58s167.81,41.95,330.02,13.98c0,0,167.81,47.2,330.02,9.61l93.43-1442.39-376.73-51.23-331.99,762.44Z"/>
    <path class="cls-12" d="M4295.28,1348.06l214.96,110.97,32.15,1461.73s-115.64,28.2-169.23,28.2l-169.23-1187.4-14.71-236.72s69.25-83.9,106.04-176.79Z"/>
    <path class="cls-19" d="M4194.15,4236.14c-.09,0-.17,0-.26,0-7.73-.14-13.88-6.52-13.74-14.25l14.84-815.85c.14-7.73,6.51-13.92,14.25-13.74,7.73.14,13.88,6.52,13.74,14.25l-14.84,815.85c-.14,7.64-6.38,13.75-13.99,13.75Z"/>
    <path class="cls-11" d="M3931.6,1337.08s-59.23,121.94-181.35,218.03l-249.06,1015.83-204.71,652.76-15.45,309s529.16,65.66,1042.86,15.45l-13.48-340.8,119.51-1.44s23.44-900.63-59.35-1361.33c0,0-13.92-174.86-113.83-294.29-14.85-17.75-32.09-33.34-51.11-46.53-51.24-35.52-188.51-128.58-274.04-166.67Z"/>
    <path class="cls-19" d="M4311.4,3246.22c-.3,0-.59,0-.89-.03l-173.41-11.06c-7.16-.46-12.82-6.26-13.1-13.43-7.03-182.77,28.01-1463.36,28.37-1476.28.21-7.73,6.64-13.85,14.38-13.61,7.73.21,13.82,6.65,13.61,14.38-.34,12.34-32.36,1182.55-29.06,1444.29l160.58,5.51c7.54.26,13.52,6.45,13.52,13.99v22.24c0,3.87-1.6,7.56-4.42,10.21-2.6,2.44-6.03,3.79-9.58,3.79Z"/>
    <path class="cls-19" d="M3712.24,3545.65c-7.73,0-14-6.27-14-14v-1083.46c0-7.73,6.27-14,14-14s14,6.27,14,14v1083.46c0,7.73-6.27,14-14,14Z"/>
    <rect class="cls-26" x="3012.13" y="1562.79" width="424.14" height="54.98"/>
    <path class="cls-25" d="M2955.89,1359.9l252.29,445.15,310.97-457.15s287.05,170.1,337.55,228.58c0,0,71.76,66.45,122.26,297.68l263.13,1118.96s-202,87.71-318.94,90.37l-178.08-867.79v936.89s-488.97,193.31-1019.63-26.53l15.16-504.13-155.41-966.56,370.7-295.46Z"/>
    <path class="cls-19" d="M3525.3,1851.7c-3.02,0-6.01-.98-8.49-2.87l-144.4-110.13-101.32,108.55c-5.28,5.65-14.13,5.96-19.79.68-5.65-5.28-5.96-14.13-.68-19.79l109.96-117.82c4.91-5.26,13-5.94,18.72-1.58l136.2,103.88,69.85-395.11c1.35-7.61,8.61-12.7,16.22-11.35,7.61,1.35,12.69,8.61,11.35,16.22l-73.85,417.74c-.85,4.81-4.15,8.83-8.7,10.6-1.65.64-3.37.96-5.09.96Z"/>
    <path class="cls-19" d="M3136.24,1830.87c-4.22,0-8.39-1.9-11.14-5.51l-78.28-102.61-156.46,95.61c-6.6,4.03-15.21,1.95-19.25-4.65-4.03-6.6-1.95-15.21,4.65-19.25l167.23-102.2c6.12-3.74,14.08-2.25,18.43,3.45l85.94,112.65c4.69,6.15,3.51,14.93-2.64,19.62-2.54,1.93-5.52,2.87-8.48,2.87Z"/>
    <path class="cls-19" d="M3148.96,3220c-.14,0-.27,0-.41,0-7.73-.22-13.81-6.67-13.59-14.4l39.54-1374.03c.08-2.83,1.02-5.58,2.7-7.86l19.68-26.91c4.56-6.24,13.32-7.6,19.57-3.03,6.24,4.57,7.6,13.33,3.03,19.57l-17.11,23.39-39.42,1369.68c-.22,7.59-6.44,13.6-13.99,13.6Z"/>
    <path class="cls-19" d="M3712.4,2095.07c-7.73,0-14-6.27-14-14,0-428.17,153.2-485.5,159.72-487.73l9.06,26.49.16-.06c-.35.13-35.12,13.55-69.73,76.01-20.6,37.18-37.04,84.05-48.85,139.3-14.84,69.39-22.37,152.15-22.37,245.99,0,7.73-6.27,14-14,14Z"/>
    <path class="cls-19" d="M3914.05,2962.99c-5.92,0-11.42-3.78-13.33-9.72-2.37-7.36,1.68-15.25,9.04-17.61l276.78-88.97c7.36-2.37,15.25,1.68,17.61,9.04,2.37,7.36-1.68,15.25-9.04,17.61l-276.78,88.97c-1.42.46-2.87.68-4.29.68Z"/>
    <circle class="cls-8" cx="3275.48" cy="2009.9" r="33.61"/>
    <circle class="cls-8" cx="3265.59" cy="2353.9" r="33.61"/>
    <circle class="cls-8" cx="3255.71" cy="2697.9" r="33.61"/>
    <circle class="cls-8" cx="3245.82" cy="3041.9" r="33.61"/>
    <path class="cls-21" d="M1763.01,2251.54l60.75-61.76s26.19-39.8,40.85-90.08c0,0,43.62-184.49,95.73-257.08,0,0,72.59-94.92,160.06-130.28l128.85-7.44,36.8,398.29-124.7,215.9-184.26,187.98-214.08-255.52Z"/>
    <polygon class="cls-6" points="2245.78 1318.31 2045.11 2576.11 2095.08 2618.72 2767.79 2618.72 2962.6 1294.91 2245.78 1318.31"/>
    <path class="cls-20" d="M2586.93,2492.41h-302.8c-29.76,0-52.27-26.93-46.99-56.22l11.62-64.44c4.1-22.74,23.89-39.28,46.99-39.28h302.8c29.76,0,52.27,26.93,46.99,56.22l-11.62,64.44c-4.1,22.74-23.89,39.28-46.99,39.28Z"/>
    <path class="cls-15" d="M2446.48,2461.06c-9.19,0-17.2-2.55-23.94-7.63-17.82-13.45-18.87-39.61-18.91-40.72,0-.25,0-.49,0-.74,1.12-18.74,7.67-33.21,19.49-43.01,19.52-16.18,46.03-13,47.15-12.86,4.38.56,7.48,4.57,6.92,8.95-.56,4.38-4.56,7.47-8.93,6.92-.34-.04-20.98-2.34-35.02,9.38-8.13,6.79-12.71,17.26-13.62,31.13.16,2.52,1.68,20.02,12.59,28.2,6.09,4.57,14.58,5.54,25.22,2.88,4.29-1.07,8.63,1.53,9.7,5.82,1.07,4.29-1.53,8.63-5.82,9.7-5.24,1.31-10.2,1.96-14.85,1.96Z"/>
    <path class="cls-15" d="M2457.96,2406.51h-68.86c-4.42,0-8-3.58-8-8s3.58-8,8-8h68.86c4.42,0,8,3.58,8,8s-3.58,8-8,8Z"/>
    <path class="cls-15" d="M2445,2430.37h-53.18c-4.42,0-8-3.58-8-8s3.58-8,8-8h53.18c4.42,0,8,3.58,8,8s-3.58,8-8,8Z"/>
    <path class="cls-3" d="M2705.95,2668.62h-582.15c-35.94,0-69.99-15.63-93.41-42.88-23.43-27.25-33.77-63.26-28.37-98.79l177.96-1171.85c4.42-29.12,19.16-55.72,41.49-74.92,22.33-19.2,50.85-29.77,80.3-29.77h582.14c35.94,0,69.99,15.63,93.41,42.88,23.43,27.25,33.77,63.26,28.37,98.79l-177.96,1171.85c-4.42,29.12-19.16,55.72-41.49,74.92-22.33,19.2-50.85,29.77-80.3,29.77ZM2301.76,1339.41c-17.03,0-31.24,12.22-33.79,29.05l-177.96,1171.85c-2.05,13.5,4.05,22.97,7.87,27.41,3.82,4.44,12.27,11.9,25.92,11.9h582.15c17.02,0,31.24-12.22,33.79-29.05l177.96-1171.85c2.05-13.5-4.05-22.97-7.87-27.41-3.82-4.44-12.27-11.9-25.92-11.9h-582.14Z"/>
    <path class="cls-13" d="M2242.72,1901.14l42.49,66.39,84.1-93.83s-30.1,165.54-30.1,202.72c0,0,122.16,64.62,273.53,19.47l29.21-206.26,59.31,147.83s47.8-37.18,63.74-63.74l-61.97-189.44s-38.95-74.36-86.75-88.52c0,0-7.08-32.75-23.9-40.72,0,0-45.15-15.05-95.6-10.62,0,0-29.21,21.25-37.18,42.49,0,0-33.64,2.66-59.31,25.67,0,0-93.83,100.91-157.57,188.55Z"/>
    <path class="cls-29" d="M2496.77,1649.74s5.31,64.62,15.93,81.44c0,0,48.69-36.29,74.36-68.16,0,0,2.66-20.36-90.29-13.28Z"/>
    <path class="cls-29" d="M2456.06,2108.08c-.31,0-.62-.02-.94-.07-3.27-.51-5.51-3.58-5-6.86l54.88-350.55c.51-3.27,3.59-5.52,6.86-5,3.27.51,5.51,3.58,5,6.86l-54.88,350.55c-.46,2.96-3.02,5.07-5.92,5.07Z"/>
    <path class="cls-29" d="M2372.84,1867.31c-.59,0-1.19-.09-1.78-.27-3.17-.98-4.94-4.34-3.95-7.51l27.44-88.52c.98-3.17,4.34-4.94,7.51-3.95,3.17.98,4.94,4.34,3.95,7.51l-27.44,88.52c-.8,2.57-3.17,4.23-5.73,4.23Z"/>
    <path class="cls-29" d="M2638.41,1896.52c-3.31,0-6-2.69-6-6v-77.01c0-3.31,2.69-6,6-6s6,2.69,6,6v77.01c0,3.31-2.69,6-6,6Z"/>
    <path class="cls-29" d="M2558.74,1788.52c-1.48,0-2.92-.55-4.03-1.56l-44.69-40.55-43.2,22.82c-1.74.92-3.83.93-5.58.01-1.75-.92-2.94-2.63-3.18-4.59l-7.97-65.51c-.4-3.29,1.94-6.28,5.23-6.68,3.3-.4,6.28,1.94,6.68,5.23l6.91,56.85,39.21-20.71c2.23-1.18,4.96-.84,6.83.86l42.77,38.81,50.97-72.35c1.91-2.71,5.65-3.36,8.36-1.45s3.36,5.65,1.45,8.36l-54.88,77.9c-.99,1.41-2.54,2.32-4.25,2.51-.22.02-.44.04-.66.04Z"/>
    <path class="cls-29" d="M2524.22,1804.45c-.27,0-.55-.02-.83-.06-3.28-.45-5.58-3.48-5.12-6.76l3.54-25.67c.45-3.28,3.48-5.58,6.76-5.12,3.28.45,5.58,3.48,5.12,6.76l-3.54,25.67c-.41,3-2.99,5.18-5.94,5.18Z"/>
    <path class="cls-29" d="M2515.53,1870.84c-.27,0-.55-.02-.83-.06-3.28-.45-5.58-3.48-5.12-6.76l3.54-25.67c.45-3.28,3.48-5.57,6.76-5.12,3.28.45,5.58,3.48,5.12,6.76l-3.54,25.67c-.41,3-2.99,5.18-5.94,5.18Z"/>
    <path class="cls-29" d="M2500.62,1958.48c-.27,0-.55-.02-.83-.06-3.28-.45-5.58-3.48-5.12-6.76l3.54-25.67c.45-3.28,3.5-5.57,6.76-5.12,3.28.45,5.58,3.48,5.12,6.76l-3.54,25.67c-.41,3-2.99,5.18-5.94,5.18Z"/>
    <path class="cls-29" d="M2488.23,2047c-.27,0-.55-.02-.83-.06-3.28-.45-5.58-3.48-5.12-6.76l3.54-25.67c.45-3.28,3.48-5.58,6.76-5.12,3.28.45,5.58,3.48,5.12,6.76l-3.54,25.67c-.41,3-2.99,5.18-5.94,5.18Z"/>
    <path class="cls-21" d="M2914.73,1959.52s-116.95,294.66-264.3,406.93c0,0-32.73-108.7-78.31-130.9,0,0-31.55-18.7-54.93-2.34,0,0-24.54,21.04-11.69,60.77,0,0,17.53,111.03,17.53,140.24,0,0-4.67,106.35-4.67,132.06,0,0-122.71,89.99-204.52,116.87l205.69,303.86s220.21-155.67,347.41-305.64c0,0,85.43-100.61,142.38-231.6,0,0,30.37-49.36-18.98-81.63,0,0,30.37-94.63,0-116.61,0,0,26.58-168.15-20.88-181.44,0,0-5.02-147.12-54.72-110.58Z"/>
    <path class="cls-18" d="M2849.14,2346.19c-1.79,0-3.6-.6-5.09-1.83-3.41-2.82-3.88-7.86-1.07-11.26,83.42-100.88,118.29-263.02,118.63-264.64.91-4.32,5.15-7.09,9.48-6.18,4.32.91,7.09,5.15,6.18,9.47-.36,1.7-8.98,42.27-28.3,96.23-17.88,49.93-48.64,120.88-93.66,175.32-1.58,1.91-3.87,2.9-6.17,2.9Z"/>
    <path class="cls-18" d="M2896.98,2445.85c-3.42,0-6.58-2.21-7.64-5.65-1.3-4.22,1.07-8.7,5.29-10,1.32-.47,14.15-7.1,51.63-92.22,19.68-44.68,36.41-88.84,36.57-89.28,1.56-4.13,6.18-6.22,10.31-4.65,4.13,1.56,6.22,6.18,4.65,10.31-.17.45-17.16,45.31-37.12,90.57-11.77,26.69-22.27,48.34-31.21,64.35-8.99,16.09-19.6,32.97-30.15,36.22-.78.24-1.58.36-2.36.36Z"/>
    <path class="cls-18" d="M2954.78,2478.35c-1.32,0-2.66-.33-3.89-1.02-3.86-2.15-5.24-7.03-3.08-10.89,21.08-37.74,34.57-99.38,34.7-100,.93-4.32,5.19-7.06,9.51-6.13,4.32.93,7.06,5.19,6.13,9.51-.57,2.62-14.12,64.58-36.37,104.42-1.46,2.62-4.19,4.1-6.99,4.1Z"/>
    <g>
      <path class="cls-21" d="M2076.6,1872.87l97.15-63.26s80.27-65.15,133.11-46.25c0,0,31.31,7.32,39.84,39.17,0,0,1.44,6.05,1.23,15.53-.51,23.72-11.21,46.08-29,61.77l-148.27,130.86s-35.61,145.9-132.42,170.8"/>
      <path class="cls-17" d="M2038.23,2189.98c-3.79,0-7.24-2.55-8.23-6.39-1.17-4.55,1.57-9.18,6.12-10.35,90.7-23.32,125.94-163.17,126.28-164.58.41-1.69,1.33-3.21,2.63-4.35l148.27-130.86c16.15-14.25,25.67-34.51,26.12-55.59.16-7.51-.83-12.57-.99-13.32-7.12-26.19-32.48-32.66-33.56-32.92-.29-.07-.61-.16-.89-.26-24.34-8.71-56.58,3.59-79.33,15.44-25.66,13.36-45.37,29.25-45.57,29.41-.23.19-.47.36-.72.52l-97.15,63.26c-3.93,2.56-9.2,1.45-11.76-2.48s-1.45-9.2,2.48-11.76l96.79-63.03c6.77-5.43,85.2-66.89,140.58-47.51,4.68,1.23,36.38,10.75,45.58,45.11.02.08.04.16.06.23.17.73,1.68,7.4,1.46,17.68-.56,25.81-12.18,50.58-31.87,67.96l-146.32,129.14c-2.48,9.23-11.71,40.97-29.97,75.39-12.58,23.71-26.86,43.74-42.44,59.53-19.85,20.11-41.87,33.38-65.47,39.45-.71.18-1.42.27-2.12.27Z"/>
    </g>
    <path class="cls-21" d="M1856.8,1436.04s-30.7,21.67-83.07.91l-69.24,142.35s-36.81,72.29-102.52,93.32c0,0-55.2,32.86-152.46-6.57l-42.06-22.35-44.75,93.8-78.79,165.12-365.38-89.37-19.6-178.8s113.71-142.13,159.63-282.07l37.17-308.31,244.9-177.12h330.18l111.51,39.36,37.18,91.84s15.3,87.47,0,144.32c0,0-21.39,53.41-21.39,83.2,0,0,0,28.9,19.86,66.82l44.24,83.96s17.16,31.6-5.41,59.59Z"/>
    <path class="cls-2" d="M1711.62,1548.72c-1.18,0-2.37-.15-3.56-.48-68.1-18.57-109.13-82.87-110.84-85.6-3.96-6.31-2.06-14.65,4.25-18.61,6.31-3.96,14.64-2.06,18.61,4.25.61.97,37.51,58.22,95.08,73.92,7.19,1.96,11.43,9.38,9.47,16.58-1.64,6-7.08,9.95-13.02,9.95Z"/>
    <path class="cls-2" d="M1669.57,1176.02c-3.71,0-7.41-1.52-10.07-4.5-4.96-5.55-4.5-14.06,1.04-19.03.65-.58,16.1-14.33,38.8-23.8,31.37-13.09,61.57-11.92,87.32,3.39,6.41,3.81,8.51,12.09,4.7,18.5-3.81,6.41-12.09,8.52-18.5,4.7-18.2-10.82-39.21-11.48-62.46-1.96-18.65,7.64-31.73,19.16-31.86,19.28-2.57,2.29-5.78,3.42-8.98,3.42Z"/>
    <path class="cls-2" d="M1293.98,1277.55c-5.29,0-10.31-3.13-12.47-8.31-17.41-41.79-5.19-72.05,8.13-90.07,8.52-11.53,18.56-19.47,25.34-24.03-1.44-22.52-7.72-38.23-18.72-46.75-14.43-11.19-33.65-6.74-33.84-6.69-7.23,1.84-14.53-2.53-16.38-9.75-1.84-7.22,2.56-14.59,9.79-16.43,1.28-.33,31.68-7.79,56.64,11.28,19.22,14.68,29.24,40.1,29.81,75.54.08,5.19-2.82,9.97-7.46,12.29-.08.04-13.83,7.18-23.99,21.33-12.85,17.89-14.32,39.06-4.39,62.91,2.87,6.88-.39,14.79-7.27,17.65-1.7.71-3.46,1.04-5.19,1.04Z"/>
    <path class="cls-2" d="M1201.17,1392.11c-.65,0-1.3-.05-1.95-.14-4.22-.62-7.9-3.19-9.93-6.94-5.22-9.65-30.99-59.2-26.07-87.07.93-5.28,4.91-9.51,10.12-10.78,5.21-1.26,10.68.69,13.93,4.96,8.5,11.2,33.33,42.11,46.04,50.58,3.37,2.24,5.55,5.88,5.95,9.9.4,4.02-1.03,8.02-3.89,10.88l-24.65,24.65c-2.55,2.55-5.99,3.95-9.54,3.95ZM1203.42,1352.42c.5,1.12,1,2.24,1.5,3.35l.95-.95c-.81-.78-1.63-1.58-2.45-2.39Z"/>
    <path class="cls-2" d="M1407.45,1643.7l-44.75,93.8c-88.86-63.42-84.67-147.17-84.67-147.17-2.9-46.41,15.95-33.36,15.95-33.36,21.75,24.66,113.47,86.73,113.47,86.73Z"/>
    <ellipse class="cls-2" cx="1724.67" cy="1254.62" rx="41.33" ry="19.21" transform="translate(-79.1 2392.59) rotate(-68.28)"/>
    <path class="cls-23" d="M1580.35,4552.39l-1307.06-24.28-109.26-441.09c-40.46-153.75-5.41-350.65,22.47-464.85,13.94-57.14,26.09-93.58,26.09-93.58l1157.34,149.72v80.93l210.42,793.15Z"/>
    <path class="cls-2" d="M1369.93,3678.31v73.76c-714.49,21.81-1065.78-83.72-1183.43-129.9,13.94-57.14,26.09-93.58,26.09-93.58l1157.34,149.72Z"/>
    <path class="cls-2" d="M621.31,4545.66c-4.46,0-8.83-2.21-11.4-6.25l-141.42-222.24c-65.37-90.75-117.3-195.62-149.36-267.65-34.75-78.07-54.38-135.64-54.58-136.21-2.4-7.06,1.39-14.73,8.45-17.12,7.06-2.4,14.73,1.39,17.12,8.44.76,2.25,77.73,226.77,200.5,397.06.15.21.3.43.44.65l141.63,222.57c4,6.29,2.15,14.63-4.14,18.64-2.25,1.43-4.76,2.11-7.23,2.11Z"/>
    <path class="cls-9" d="M2533.15,2996.87c-312.95,300.68-621.32,437.73-621.32,437.73-113.44,51.57-195.94,43.32-195.94,43.32-109.32-18.56-179.45-82.5-179.45-82.5l-134.14-121.77v445.13c-837.66,36.42-1266.6-182.1-1266.6-182.1l336.91-1344.3c109.27-360.37,425.22-573.1,425.22-573.1,165.68,52.16,405,285.34,405,285.34,168.75,150.33,285.33,506.24,285.33,506.24l181.02-171.82,236.72,262.38-3.88,25.53c-1.29,8.48-1.68,16.98-1.21,25.38l-197.88,266.59,52.16,64.43,457.16-211.7c125.79,64.43,220.9,325.22,220.9,325.22Z"/>
    <path class="cls-2" d="M1402.31,3287.15c-3.73,0-7.44-1.54-10.11-4.55-83.06-93.74-163.9-196.18-240.25-304.48-61.07-86.62-119.43-177.16-173.47-269.12-92.07-156.67-140.38-264.77-140.85-265.84-3.03-6.81.04-14.79,6.85-17.82,6.81-3.03,14.79.04,17.82,6.85.47,1.06,48.32,108.08,139.7,263.53,53.65,91.27,111.58,181.13,172.2,267.08,75.73,107.39,155.88,208.96,238.22,301.89,4.94,5.58,4.43,14.11-1.15,19.06-2.57,2.28-5.77,3.4-8.95,3.4Z"/>
    <path class="cls-2" d="M1826.95,3121.99c-.56,0-1.12-.03-1.69-.11-7.4-.93-12.65-7.67-11.72-15.07l27.62-220.83-253.13-465.94c-3.56-6.55-1.13-14.75,5.42-18.31,6.55-3.56,14.75-1.13,18.31,5.42l255.2,469.76c1.35,2.48,1.88,5.32,1.53,8.12l-28.16,225.14c-.85,6.83-6.67,11.83-13.38,11.83Z"/>
    <path class="cls-2" d="M1825.64,1055.86s46.95-201.93-205.79-330.41c0,0-170.6-94.78-383.33-23.17,0,0,31.59-103.2-61.08-143.22,0,0-101.1-44.23-227.47,35.81,0,0-103.2,84.43-40.02,206.5,0,0,33.7,58.89,139.01,60.99,0,0-170.6,240.11,8.42,509.7l115.84-86.35s-65.29-141.12,29.49-240.11c0,0,81.34-58.97,157.57-6.32,0,0,53.06,48.44,50.95,136.9,0,0,193.77-29.49,368.59-240.11,0,0,42.99,56.33,47.83,119.79Z"/>
    <circle class="cls-7" cx="1257.58" cy="1384.7" r="63.19"/>
  </g>
</svg>