<?xml version="1.0" encoding="UTF-8"?>
<svg xmlns="http://www.w3.org/2000/svg" xmlns:xlink="http://www.w3.org/1999/xlink" version="1.1" viewBox="0 0 1920 2400">
  <!-- Generator: Adobe Illustrator 29.5.0, SVG Export Plug-In . SVG Version: 2.1.0 Build 35)  -->
  <defs>
    <style>
      .st0 {
        fill: none;
      }

      .st1 {
        fill: url(#linear-gradient2);
      }

      .st2 {
        fill: url(#linear-gradient1);
      }

      .st3 {
        fill: url(#linear-gradient3);
      }

      .st4 {
        fill: url(#linear-gradient4);
      }

      .st5 {
        stroke: #e5785c;
        stroke-miterlimit: 10;
      }

      .st5, .st6 {
        fill: tomato;
      }

      .st7 {
        fill: #f8c6a2;
      }

      .st8 {
        fill: url(#radial-gradient);
      }

      .st9 {
        fill: url(#linear-gradient);
      }

      .st10 {
        fill: #33597c;
      }

      .st11 {
        fill: #f3dab8;
      }

      .st12 {
        fill: #524e4a;
      }

      .st13 {
        fill: #3c342c;
      }

      .st14 {
        fill: #44566a;
      }

      .st15 {
        fill: #fdb28b;
      }

      .st16 {
        fill: #fd703e;
      }
    </style>
    <linearGradient id="linear-gradient" x1="958.3" y1="606.6" x2="1016.4" y2="606.6" gradientUnits="userSpaceOnUse">
      <stop offset="0" stop-color="#f8c6a2"/>
      <stop offset=".4" stop-color="#f5ceab"/>
      <stop offset=".7" stop-color="#f3dab8"/>
    </linearGradient>
    <radialGradient id="radial-gradient" cx="1140.1" cy="526.9" fx="1140.1" fy="526.9" r="29.4" gradientUnits="userSpaceOnUse">
      <stop offset="0" stop-color="#fdb28b"/>
      <stop offset=".3" stop-color="#fcb58e"/>
      <stop offset=".6" stop-color="#f9be99"/>
      <stop offset=".9" stop-color="#f5ceab"/>
      <stop offset="1" stop-color="#f3dab8"/>
    </radialGradient>
    <linearGradient id="linear-gradient1" x1="1159.9" y1="484.2" x2="1167.3" y2="484.2" gradientUnits="userSpaceOnUse">
      <stop offset="0" stop-color="#fdb28b"/>
      <stop offset=".8" stop-color="#f3dab8"/>
    </linearGradient>
    <linearGradient id="linear-gradient2" x1="1160.7" y1="590.1" x2="1295.5" y2="510.3" gradientUnits="userSpaceOnUse">
      <stop offset=".2" stop-color="#f3dab8"/>
      <stop offset="1" stop-color="#fdb28b"/>
    </linearGradient>
    <linearGradient id="linear-gradient3" x1="1043.9" y1="555.1" x2="990.4" y2="453" gradientUnits="userSpaceOnUse">
      <stop offset="0" stop-color="#f3dab8"/>
      <stop offset="1" stop-color="#fdb28b"/>
    </linearGradient>
    <linearGradient id="linear-gradient4" x1="1065.1" y1="586.9" x2="980.3" y2="436.5" gradientUnits="userSpaceOnUse">
      <stop offset=".2" stop-color="#f3dab8"/>
      <stop offset="1" stop-color="#fdb28b"/>
    </linearGradient>
  </defs>
  <g id="backdrop">
    <rect class="st11" width="1920" height="2400"/>
  </g>
  <g id="sweater">
    <path class="st12" d="M1751.8,1534.8c.1,1.4.7,6.2-1.5,11.4-1.3,3.1-3.1,5.1-4.6,6.8-8.9,9.8-13.3,14.7-14.2,15.5-8.3,7.4-19.2,14-35.6,22-10,4.8-18.6,8.5-38.7,16.4-22.6,8.9-28.3,10.8-40.2,15.5-6.1,2.4-35,13.8-70.8,31.8-18.8,9.4-31.4,15.8-48.2,26.3-20.3,12.7-22.1,16-39.6,25.7-9.3,5.2-17.1,13.4-27.2,17-2.6.9-8.8,3-10.2,7.7-.7,2.4.4,3.6.9,7.7.6,5-.7,6.5-1.9,14.8-1.3,8.8,0,8-1.2,15.2-1.5,8.2-2.9,7.6-3.4,13.9-.3,3.6,0,6.5-1.8,10.2-1.3,2.6-2.9,4.2-3.4,4.6-7.9,7.9-45.3,61.7-52.6,96.2-.4,1.7-1.1,5.7-2.8,11.1-1.1,3.6-4.2,13.3-10.8,25.1-2.5,4.5-5.8,10.2-11.4,17-6.4,7.7-12.4,12.5-16.1,15.5-2.6,2.1-9.3,7.2-18.9,12.4-3.9,2.1-3.9,1.8-24.1,10.2-14.6,6.1-22.1,8.9-26.3,9.9-6.9,1.7-18.2,3.7-18.2,3.7,2.6,4.8,2.6,5,2.5,5.3-1,1.7-10.7-2.9-15.1-5.1-.2-1.7-.5-3.4-.8-5.3-2.3-14.4-4.5-21-5.1-33.1-.1-2.2-.3-7.3-.5-11.9-.3-8.1-.4-12.1-.3-13.2.2-2,.5-4.3,0-7.4-.4-2.7-1.3-4.6-1.6-5.3-2.3-5.6-3.1-14.6-3.6-20.1-1.8-19.5-4.4-38.9-6.2-58.4-2.2-23.6-4-41.6-4.8-56.1-.6-10.8-.9-16.3-.9-20.1,0-3.3-.4-6.7-.3-10.1,0-2.2.2-3.8-.5-5.9-1-3-3.1-4.7-3.7-5.3-2-1.7-6.9-8.8-16.7-23.1,0,0-16.3-23.7-18-35.3,0-.6-.2-1.8-.8-3.4-1.1-2.7-2.8-4.1-2.3-4.8.2-.2.4-.2,2-.2,1,0,2,0,2.9,0,3.8,0,6.5-9.1,6.5-9.1,4.9-16.6,38.5-42,41.5-84.4.6-7.7,1.7-26.9-10.2-39.3-2.6-2.7-5.2-4.4-7.6-6-14.7-9.8-30.2-11-34.4-11.5-33.5-3.4-78.6-28.8-99.4-40.6-8.9-5-19.3-11.4-35.3-14.4-14.9-2.8-20.4,0-33.3-.3-32.1-.9-37.1-19.3-86.6-34.2-13.6-4.1-14-3-33.8-8.8-22.5-6.7-30.7-10.8-47.9-16.7-35-12.2-64.7-17.5-81.9-20.4-18-3.1-17.3-2.1-49.7-7.3-16.7-2.7-21.8-3.8-31.8-4.2-5-.2-10.2-.2-39.8,2.2-29.1,2.3-22.8,2.2-35.8,3.1-11.9.8-30.8,1.8-44.9,5.6-7.1,1.9-10.6,2.8-13.8,5.3-2.3,1.8-4.8,4.4-9.6,6-2.1.7-3,.7-4.5,1.1-5.5,1.5-8.2,6-11.9,10.8-8.3,10.8-10.8,8.7-17.7,18.9-2.3,3.5-4.5,6.8-6,11.8-.7,2.4-.5,2.7-2.2,9.1-1.4,5.7-2.3,8.1-4.3,10.4-1.6,1.7-3.2,2.6-3.9,2.9-14.8,8-28.8,17.4-44,24.5-5.6,2.6-18.4,11.7-44,29.9-20.9,14.8-31.4,22.2-43,31.4-7.4,5.9-28.5,22.9-53.5,47.7-17.6,17.5-26.4,26.2-35.6,39.3-4.9,7-7.4,11.5-14.1,19.4-6.3,7.4-10.9,11.3-16.8,20.4-4.3,6.7-2.9,6.2-5.8,10-5.2,6.9-10.3,9-16.1,12.6,0,0-.2,0-.2-.1-16.5-10.3-31.3-22.3-31.3-22.3-16.3-13.2-27.2-24.9-34.7-33-13.4-14.5-21.5-23.4-27.8-35.7-4.5-8.7-9.2-21.4-9.8-27.5,0-.6-.2-2.8-1-5.5-1.1-3.9-2.3-5.7-3.3-8.3-1.5-4-1.3-7-1.3-10.7,0-2.7-1.3-11.1-4-28-1.5-9.6-2.7-16.4-3-18-3-17.7-1-41,4-75.5,5.5-38.2,8.3-57.3,14-75.7,6.8-22.1,15.4-41.1,18.7-48.3,4.6-10.2,9.1-19.1,14.2-28.5,19.9-37.1,41.2-68.9,52.2-84.7,26.2-37.8,38.8-50.8,48.2-69.5,1-2,4.3-8.7,10.3-16.5,8.8-11.3,17.7-17.6,21.5-20.3,16.6-12.2,13.3-15.4,46.3-48,24.4-24,24.1-20.2,39.7-37.3,5.8-6.4,14.6-16.5,28.5-29,12.6-11.3,17.8-14.2,21.8-16,3.4-1.5,4.5-1.6,25.7-8.2,8.3-2.6,12.4-3.8,13.8-4.3,14.2-4.9,16.4-7.3,26.8-10.2,6.5-1.8,11.6-2.5,15.8-3,6-.8,13.1-1.3,24.8-1,17,.4,15.7,1.9,37.3,3,16.2.9,19.3.2,25.2,1.8,1.1.3,3.8,1.1,7.3.8,5.1-.4,8.7-3,10.5-4.2,8.1-5.4,15.9-8.6,28-13.5,8.5-3.4,8-2.2,14.2-4.8,14-6,22.5-15,24.5-17,14.2-13.8,92.3-55,183.2-54.4,33.8.2,84.7.6,122,10.2,0,0,32.6,8.3,55.3-3.7,5.4-2.8,8.5-6.3,8.5-6.3,3.5-4,3-5.9,6.7-10.3.6-.8,4-4.7,9.5-7.8,7.2-4.1,12.2-5.3,12.2-5.3,2.3-.6,3.9-.8,4.7-2.2,1.2-2.2-1-5.5-2.3-7.5-4.9-7.8-6.9-15.3-9.3-24.5-1.2-4.7-.3-3.1-2.7-14.7-2.7-13.3-2.9-10.4-3.7-16-.6-4.4-.8-8.9-3.3-11.8-.3-.4-1.4-1.5-1.5-2.2-5.2.1-25.9-.7-72.6-1.4-16.9-.2-25.3-.4-25.6-.4,0,0-26.5.2-57.2-2.6-1,0-3-.3-5.3-1.3-4.4-1.9-5.9-4.8-8.8-7.5-4-3.8-5.2-2.3-14.2-7.3-5.4-3-9-5.8-13.1-9-4.1-3.2-8-6.2-12.5-11-7.3-7.8-11.3-15.1-12.5-17.3-2.4-4.6-4.9-9.3-6.2-16.2-1.3-6.7-.8-12.1-.4-16.4.5-5,1.2-6.3,3.1-15.8,1.8-8.6,1.4-8.1,3.3-18,1.8-9,2.9-14.7,5-22.1,2-7.2,2.3-6.7,5.9-18,3.5-11.3,3.3-12,6.1-20.4,3-9,4.5-13.5,7.5-19.1,2-3.8,4.6-7.8,12.3-16.7,5.4-6.4,10.4-11.7,21-22.4,15.2-15.5,18.7-18.6,22.1-25.9,3-6.6,3.6-11.8,4.4-16.7,3.8-24.2,10.2-43.8,15.3-59.4,4.5-13.9,9.2-23.9,18.4-43.9,5.2-11.3,9.4-19.6,16.6-29,4.4-5.8,6.8-7.9,11.2-13.1,12.8-14.8,18.3-26.5,23.2-34.4,15.9-25.8,42.5-39.8,67.3-52.8,18.1-9.5,15.8-5.3,42.5-18.4,0,0,19.4-9.5,46.1-18.8,9.5-3.3,18.7-6.1,25.6-1.7,5.2,3.4,6.6,9.4,11.8,9.6,2,0,3.1-.8,10.1-5.1,0,0,2.7-1.6,9.7-5.9,13.4-8,45.7,10.8,60.3,19.3,9.7,5.7,9.4,6.9,17.7,10,12.8,4.8,8.8-1.5,22.6,4.1,23,2.8,49.2,31.8,66.5,54.2,4.7,6,25.9,29.9,35.9,72.5,2.4,10.3,8.2,36,3.3,61.4-3.1,16.2-10.2,30.7-12.7,34.7-4.3,7-5.2,8-5.2,8-1.9,2.2-3.2,3.2-3.7,5.3-.4,1.8,0,3.5,1.3,6.6,3.8,8.8,8,10.9,7.2,15.1-.3,1.9-1.5,3.7-2.5,3.7-1.4,0-1.8-3.7-4.4-9.5-1.1-2.5-3.6-8.1-4.9-7.7-1.5.4-.9,7.3-.6,10.2.6,7.1,2.2,8.7,2.8,9.3,1.4,1.3,3.8,2.5,5.9,1.8,2.2-.7,2.2-2.9,3.4-3.1,2.8-.5,8.6,11.2,12.4,28.1,2.1,9.4,2.8,16.7,3.4,23.8,2.3,26.9,2.8,43.3,2.8,43.3.9,29,.5,27.7,1.2,49.5,2,62,4.8,62.3,3.1,68.3-.4,1.5-2.3,7.5.6,11.1,1.9,2.4,4.6,2.1,4.9,3.4,1.3,4.6-29,15.3-28.1,18.6.6,2.1,14.1-.2,37.7-2.5,16.8-1.6,25.2-2.4,32.2-2.2,21.3.6,37.1,7.2,48.9,12.1,9.6,4,29.7,12.5,47.9,30,7.2,6.9,16.1,17.1,19.5,21,2,2.3,7.7,8.9,14.9,17.9,5.4,6.9,10.5,13.7,12.7,16.7,12.7,17.9,17.6,38.8,21.6,55.7,5.7,23.9,8.4,46.4,8.4,46.4.4,3.2,1.1,9.7,3.1,18.2,2.6,11.4,5.9,19.5,7.1,22.6,3.7,9.5,10.1,29.5,22.9,69.6,11.8,37,8,30.5,14.8,49.8,8.1,22.6,12.8,30.2,31.9,73.6,6,13.8,13.1,29.9,17.6,41.1,22.3,55.6,27.7,106.1,32.5,153.4,4.2,41.7,0,31.7,4.6,86.6,2.6,30.5-2.7,61.4.3,91.9Z"/>
  </g>
  <g id="blue">
    <path class="st10" d="M1870,0c2.8,12.2,3.1,24.8,4.9,37,8.9,61,21.1,126.2,19,187.9,6.2,19.1,3.8,50.5,4.4,73.9.1,6.3,0,16.3,3.7,21.2v2c-3.3,2.5-3.3,11.5,0,14v2c-3.2,1.9-3.3,10,0,12v2c-3.3,2.5-3.3,11.5,0,14v14c-3.4,3.7-3.4,14.3,0,18v84c-3.2,1.9-3.3,10,0,12v2c-2.8,7.4-2.9,19-2.9,27-.3,73.1.4,145.1-1.5,218-.1,5.2-6.3,7.8.4,12l-4.1,2c4.3,6.9,3.8,15.6,3.6,23.6-.6,17.6-.3,38.5-1.6,56.4-.8,11.4-5.5,13.8-3.2,26.7,4.6,25.8,3.4,63.3,3.4,93.4,0,23.5.2,46.4-.7,70.2,0,2.3-2.5,12.2-5.3,11.7,14.6,7.6,4.8,13.9,3.9,23.9-1.8,18,2.1,45.5-3.7,60l1.9,5.9c-8.5,2.7,1.2,21.7-10.1,23.3l1,4h9s-2,8-2,8l-4-2,.4,25.8,3.5.3-4,3.1c.8,7,1.7,19.5,1.1,25.9-.5,4.5-4,12.3-4.9,18.3-.9,6.1,3.1,10.9-2.2,16.6l6,1-2.1,4.9-3.9-1.9c3.4,8.1-1.3,14.1-1.8,21.2-.6,8.3.7,39.3-.5,43.8-.3,1.2-3,1.2-3.7,2.4-2.5,4.8-.3,31.5-1,39.6-.4,4.5-6.9,7.7,1,15l-3.6,1c-.8,8.4.5,24.4-1.1,31.7-4.8,22.2-18.5,49.5-11.3,72.4l-3.6,1.2,1.4,5.4c-9.1,1.4-4.7,18-6.9,24.6-1.4,4-5,3.8-5,4.8,0,2.7,3,6.2,3.1,9.8s-2.2,25.1-3.1,27.9-9.1,18.8-9.8,19.7c-3.9,5.1-24,8.1-30.4,8.8-5.2.6-13.7,2.2-14.6,2.3-1.9.2-12.3.5-13.9.3-7.7-.6-13.6-11-21.2-7.1-6.4,3.3-7.1,22.5-8.9,29.2s-4.5,5.4-4.5,6.9,3.4,3.2,3.1,5.7c-.4,3.7-9.4,8.7-7.8,16.2.5,2.2,5-.1,4.1,3.2h-8c1.2,12.1-1,25.7-6,37.1l4,1.9c-10.1,10.8-4.7,28.4-5.9,40-1.4,13.3-7.6,30.4-4.4,44.1l-3.8,2c.8,33.1-3.8,68.5-6.4,101.9-1.5,19.3-3.3,38.8-5.2,58.1l3.7,1.9c-5.9,1.3-5,12.5,0,16l-5.8,3.2c3.9,24.5-3.8,50.7-.2,75.8l-6-2c-1.9,5.3,3.5,3.3,4,5.3,2.4,10.2-6.3,7-2.4,14.5l-3.6.3v4s4.1,1.1,4.1,1.1l-7.6,32.4c-.4,5.4.8,14.4-.9,19.2-1,2.8-4.6,2.5-5.3,4.3s.3,22.6,3.7,24c-4.1,2-4.7,1.7-4,7l4-1-3.9,16.1,3.9,1.8v4s-4,2.2-4,2.2l1.5,4.5-3.6,1.3,6.1,16-6,4c6,1.5,2,3,2.7,4.6s2.6.3,2.8,1.4c1.8,10.8-5.3,22-3.5,29.6.3,1.2,6.8,2.6,4,9.4l-6-1c6.7,6.8,7.8,9.9,3.9,19.5-.6,1.5-4,1.6-4,2.6,0,2.7,3.1,5.5,3.7,8.3,2.9,14.2-6.7,12.2-7.5,15.7-.5,2.3,3.7,13.8,7.9,13.8v2.9c-6.3-.2-5.8,7.3-6,12.1l-4-2c-3.4,7.3,4.2,10.5,4.2,12.9.2,6.2-4.3,13.5-.3,20.1l-6,1,6,4-6.1,3.1c-1,13.2,5.7,26,2.1,38.9l-6-2v6s5.8.7,5.8.7l-1.8,9.3-4-4-4,12h-2c1.6-12.7-7.6,2.5-6.1-9.9l-4.9.2-1,9.7h-388c-2.4-4,.8-9.3,0-12.7s-2.1,1.1-2-12.2c.6-59.4-10.9-121.6-17.1-178-2.7-24.9-3.1-51.3-5.1-78-2.7-37-10.5-73.6-8-111,6.1,3.2,12.9,0,19.1-1.9,32.5-9.9,88.8-43.7,107.8-72.2,5.7-8.6,6.2-19.8,10.2-29.8,18.5-46.6,63.5-90.2,77.3-138.7,4-13.9,4-45.3,13.6-54.4,24.3-12,48.1-25.9,72.7-37.3,59.8-27.7,175.7-60.8,217-106.9,1.5-1.7,1.7-5.1,3.4-6.7,2.4-2.4,6.4-1.6,8.7-5.3,7.7-12.7,5-42.5,5-57.4,0-55.2,0-114.2-3.6-171-4.4-68.7-27.6-150.1-53.9-214.6-10.4-25.4-29.8-49.5-41-73.4-6.7-14.2-10.7-33.7-16.5-48.7-1.1-2.7-10.6-8.4-1.8-10.6-2.1-2-4-4.2-5-7-26.9-74.2-30.1-163.8-101.5-212.5-25.4-17.3-78.9-45-109.1-47.1s-21.6,4.8-32.1-.7c-.5-19.8-4.4-39.4-5.9-59-3.7-47.1,3.4-103.5-9.8-148.2-1.6-5.4-8.3-17.3-8.5-19.5-.7-7.4,7.7-34.3,9.3-44.6,13.2-82.3-6.2-146.6-72.4-198.3-24.8-19.3-29.7-14.8-56-24-22.5-7.8-47.5-23.2-72.4-25.7s-14.9,7.7-23.6,7.7-10.6-6.3-16.4-7.7c-22.6-5.1-116.4,38.8-138,53.1-35.3,23.4-86.2,94.8-101.5,134.5-15.1,39.3-16.3,90.9-44.3,121.7s-20.6,17.1-28.7,27.3c-17.7,22-44.7,114-42,141.9,3.7,38.1,43.7,59.7,73.4,76.6,50.8,4.8,101.9-.5,152.6,5.4,2.7,1.6,5.8,13.3,7,17,2.2,7.3,13.7,48.9,13,52.9-1,6.4-12.1,10.1-17.1,15-3.8,3.8-6.5,10.7-10.5,14.1-24.2,21-63.5,7.1-91.7,4.2-80.4-8.2-152.5-12.6-228.1,21.4-23.7,10.7-31.3,21-49.9,34.1-6.8,4.8-75,32.4-81.6,32.3-25.6-.3-54-7.8-80.2-6.1-29.2,1.8-91.8,26.9-113.9,46.1-107.4,93.9-202.8,204.8-261.4,336.6-32.8,73.6-43.9,174.5-27.1,253.8,10.6,50.2,44.5,81.7,81.4,114.6,5.7,5,15.1,6.1,15.6,15.6L0,1960V0h1870ZM1514,224c-10-.8-10,6.7,0,6v-6ZM1488,240l4,3,6-9.1-10,6ZM1674,2362h-4s1.6,3.7,1.6,3.7l-3.5.3,3,3.9,3-7.9ZM1668,2388v-12h-2v12h2Z"/>
    <path class="st14" d="M1743.8,1587.1c-.6,6.9-1.3,13.8-1.9,20.6-.2,1.9-.4,3.8-.5,5.8,0,.8-.2,1.7-.2,2.5-.3,3.3-.6,6.7-.9,10-.4,4-.8,8.1-1.1,12.1,0,.6-.1,1.3-.2,1.9-1.7,17.5-3.3,35-4.9,52.5-.1,1.5-.3,2.9-.4,4.4-.9,9.8-1.8,19.7-2.8,29.5-1.6,17-3.2,34.1-4.8,51.1-1.5,16.2-3,32.3-4.6,48.5-.5,5-.9,10-1.4,15-.5,5.2-1,10.4-1.5,15.6-.2,1.8-.3,3.7-.5,5.5-2.7,28.3-5.3,56.7-8,85-2.6,28.2-5.3,56.4-7.9,84.6-1.1,11.9-2.1,23.8-3,35.8-1.2,14.3-2.2,28.5-3.1,42.8-.1,2-.2,4-.4,6.1-1.7,28.3-2.7,56.6-2.7,85,0,2.8,0,5.5,0,8.2.2,24.3,1,48.6,1.5,72.9.2,9.4.3,18.9.3,28.4,0,6.8,0,13.6-.2,20.4-.2,10.9-.6,21.7-1.4,32.6-.8,12.1-2,24.2-3.8,36.2h-3c2.2-14.8,3.5-29.8,4.3-44.8,0,0,0,0,0,0,.2-3.9.4-7.8.5-11.8.1-4.1.2-8.2.3-12.4.4-22.9,0-45.8-.6-68.6,0-3-.1-6.1-.2-9.1-.3-14.8-.7-29.6-.8-44.4,0-9.6,0-19.3.1-29,.5-28.2,1.9-56.3,3.9-84.5,1.1-16.3,2.4-32.5,3.8-48.8,0-.5,0-1.1.1-1.6.4-4.1.7-8.2,1.1-12.3.2-2.6.5-5.3.7-7.9.1-1.1.2-2.3.3-3.4.3-3.5.6-7,1-10.4,0-.2,0-.5,0-.7,2.1-22.3,4.2-44.5,6.3-66.8,0-.3,0-.5,0-.8.5-5.5,1-10.9,1.5-16.3,2.7-28.2,5.3-56.3,8-84.5.5-5,.9-10.1,1.4-15.1,2.2-23.3,4.4-46.6,6.6-69.9,1-10.2,1.9-20.4,2.9-30.6,1.7-18,3.4-35.9,5.1-53.9,1-10.7,2-21.4,3-32.1,0-.9.2-1.8.2-2.7.2-2.1.4-4.2.6-6.3,1.4-14.6,2.8-29.3,4.1-43.9.2-1.9,3.2-1.9,3,0Z"/>
    <path class="st14" d="M1772.3,1585.3c0,0,0,.1,0,.2-.2.4-.4.9-.6,1.4-2.4,5.7-4.8,11.5-7,17.3-7.6,19.7-14.3,39.7-19.9,60.1-1.8,6.4-3.5,12.9-5.1,19.4-.4,1.7-.8,3.4-1.2,5.2-2.9,12.5-5.5,25-7.7,37.7-2.3,13-4.1,26.1-5.6,39.2-2.2,20.1-3.4,40.2-3.8,60.4,0,.8,0,1.7,0,2.5,0,7.3,0,14.5,0,21.8,0,1.5,0,3,0,4.5.6,28.1,2.4,56.1,3.6,84.2,1.2,29.4,1.4,58.8.8,88.2-.7,29.3-2.2,58.7-4.5,87.9-2.2,29.1-5.2,58.2-8.6,87.2-3.4,29.2-7.4,58.3-11.7,87.4-2.1,13.8-4.2,27.6-6.4,41.5-1.3,8-2.6,16-3.9,24,0,0,0,0,0,0-1.2,7.3-2.4,14.5-3.6,21.8-.4,2.4-.8,4.7-1.2,7.1-.8,4.7,5.8-29.4-2.6,13.7-.3,1.7.7-9.4.5-7.7,0-1.7-1.2,8.3-1.2,6.6l-2.4,3.3c.9-5.4,1.8-10.7,2.7-16.1,1.2-7.3,2.4-14.6,3.6-21.9.4-2.3.8-4.5,1.1-6.8,1.3-8.1,2.6-16.2,3.9-24.2,1.1-6.7,2.1-13.5,3.2-20.2,2.2-14.3,4.3-28.6,6.4-42.9,4.1-29.1,7.9-58.4,11.1-87.6,3.2-29.2,5.8-58.5,7.7-87.8,1.9-29.3,3-58.6,3.2-88,.2-29.5-.7-59-2.2-88.5-.6-13.1-1.3-26.3-1.8-39.4-.3-6.7-.5-13.4-.7-20.1,0-.6,0-1.2,0-1.8-.2-9.3-.3-18.6-.1-27.8,0-.1,0-.3,0-.4.4-27.6,2.6-55.2,6.6-82.6.9-6,1.8-12,2.9-18,1.7-9.8,3.6-19.4,5.7-29.1,2.5-11.3,5.3-22.4,8.4-33.5,0-.3.2-.6.2-.8,1.8-6.4,3.7-12.8,5.7-19.2,5.2-16.6,11.1-33.1,17.6-49.2,1.2-3,2.5-6,3.8-9.1.1-.3.3-.7.4-1,0,0,0,0,0,0,.2-.5.8-.8,1.4-.7.2,0,.4,0,.6.2.7.4.8,1.2.6,1.8Z"/>
    <path class="st14" d="M1786.5,1584.1c10.2,18.5,35.7,15.6,50.6,5.2,22-15.2,22.8-45.6,23.1-69.8.1-7.3.2-14.7.6-22,.5-8,1.3-15.9,2.3-23.8,2.1-15.9,5.2-31.6,8.6-47.2,3.4-15.7,7.1-31.3,10.4-47,3.3-15.7,6.1-31.5,8.5-47.3,4.6-31.6,7.4-63.5,8.7-95.4,1.3-32,1.3-64.1.5-96.1-.8-32.2-2.5-64.4-4.4-96.6-1.9-32.3-4.1-64.5-5.9-96.8-1.8-32.2-3.3-64.5-4-96.8-.3-16.1-.4-32.2-.2-48.3,0-8,.3-16.1.5-24.1.3-8.1.6-16.3.5-24.4,0-7.8-.5-15.5-1.7-23.2s-3.2-1.1-2.9.8c2.5,16,1.5,32.2,1,48.2-.5,15.9-.6,31.9-.6,47.8.2,31.9,1.3,63.9,3,95.8,1.6,32,3.7,63.9,5.7,95.8,2,31.9,3.8,63.8,5.1,95.7,1.2,31.6,1.8,63.2,1.2,94.8-.6,31.6-2.4,63.3-5.9,94.7-1.8,15.8-4,31.5-6.7,47.1-2.7,15.6-6,31.2-9.5,46.7-6.9,30.9-14.2,61.8-16.8,93.3-1.2,14.3-.7,28.7-1.5,43-.7,13.6-2.7,27.4-9.5,39.4-4.9,8.8-13.2,15.1-22.6,18.4-8.5,2.9-18.6,3.7-26.7-.7-3.8-2.1-6.9-5.2-9-9-.9-1.7-3.5-.2-2.6,1.5h0Z"/>
    <path class="st14" d="M1916.6,338.6c-1.3,29.9-3.2,59.7-5.1,89.6-.1,1.9-3.1,1.9-3,0,.2-3.7.5-7.4.7-11.1,1.9-29.5,3.7-59.1,4.8-88.6,1.1-29.7,1.5-59.4.6-89.1-.6-18.2-1.7-36.5-3.4-54.7-.8-8.1-1.7-16.1-2.7-24.2-.4-3.2-.9-6.4-1.3-9.6-2.1-14.6-4.8-29.2-7.9-43.7-3.2-14.4-6.8-28.6-10.4-42.9-2.3-8.8-4.6-17.6-6.7-26.5-1.8-7.4-3.6-14.9-5.3-22.4-1.1-5.1-2.2-10.2-3.2-15.4h2.5c.8,5.6,1.9,18.4,1.6,15.1.2,1.2-1.2-16.3-1-15.1,1,5,2,10,3.2,14.9,4.4,19.8,9.7,39.5,14.7,59.2,3.6,14.3,7.1,28.6,10,43,2.9,14.5,5.3,29.1,7.2,43.7,1,7.7,1.9,15.3,2.6,23,.7,7.3,1.3,14.7,1.8,22,1,14.5,1.6,29,1.9,43.5.6,29.7,0,59.5-1.3,89.1Z"/>
    <path class="st14" d="M1912.4,999.8c-1.8,28.9-4.3,57.8-6.6,86.7-2.4,29.7-4.8,59.4-7.2,89.1-2.4,29.8-4.8,59.6-7.3,89.3-2.4,29.3-4.7,58.6-7.2,87.8-2.5,28.4-5.3,56.8-9.2,85.1-4,28.2-9.1,56.3-16.2,83.8-1.8,6.8-3.6,13.6-5.7,20.4-1.7,5.6-3.6,11.2-6.7,16.2-2.2,3.6-5.1,6.8-8.5,9.3-1.2.8-2.4,1.6-3.8,2.2-5,2.4-10.4,3.4-15.9,3.8-11.2,1-22.7,0-33.3,4.4-4.4,1.8-8.3,4.4-11.8,7.6-.5.4-.9.9-1.4,1.3-2.3,2.2-4.3,4.6-6.2,7.2-.4.5-.7,1-1.1,1.5-5.5,8.1-9.1,17.3-11.8,26.7-2,6.9-3.5,13.9-4.8,21-.5,2.9-1,5.8-1.4,8.8-.6,4.1-1.1,8.1-1.7,12.1-3.5,25.2-6.8,50.4-9.9,75.7-3.7,29.3-7.2,58.7-10.4,88.1-1,8.9-2,17.9-2.9,26.8-.8,7.3-1.6,14.6-2.3,21.9-1.4,13.2-2.7,26.3-4,39.5-2.9,29.6-5.6,59.2-8.1,88.8-2.5,29.4-4.8,58.9-6.9,88.4-2.1,29.5-4,59-5.7,88.5-.5,9.2-1,18.5-1.5,27.7-.8,14.6-1.5,29.2-2.2,43.7-.3,5.7-.5,11.4-.8,17.1-1.3,29.5-2.4,59.1-3.3,88.6,0,1,0,2,0,3-.2,7.3-.4,14.7-.6,22.1-.1,5.3-.3,10.6-.4,15.9l-1.5-3.4c-.3,1.7-1.3,1.7-1.6,3.4,0-1.7.7-1.9.7-3.5.1-5.4-.4-7.2-.2-12.5.6-22.5,1.3-45,2.2-67.5,1.1-29.5,2.4-59.1,3.9-88.6.3-6.3.7-12.7,1-19,1.2-23.2,2.6-46.4,4.1-69.5.6-9.7,1.3-19.4,1.9-29.1,1-14.3,2-28.5,3.1-42.8.4-5.5.8-11.1,1.2-16.6,2.3-29.5,4.8-58.9,7.4-88.4,2.7-29.4,5.6-58.9,8.6-88.2.7-6.5,1.4-13,2.1-19.5.5-4.6,1-9.2,1.5-13.8.4-4.2.9-8.3,1.4-12.4,1.6-14.2,3.2-28.3,4.9-42.4,3.5-29.4,7.1-58.7,11-88,.4-3.1.8-6.3,1.2-9.4,1.1-8.5,2.3-16.9,3.4-25.4.4-3.1.8-6.2,1.3-9.3,1.4-10.2,3.1-20.3,5.8-30.3,3.8-13.8,9.8-28.5,20.2-38.8.3-.3.5-.5.8-.8.3-.3.7-.7,1-1,2.7-2.4,5.6-4.5,8.9-6.2,4.4-2.4,9.2-3.9,14.1-4.7,5.8-1,11.7-1.1,17.6-1.3,5.7-.2,11.4-.6,16.9-2.3,5.2-1.6,9.8-4.6,13.2-8.9.1-.2.3-.3.4-.5,3.4-4.6,5.5-10,7.3-15.4,2.1-6.5,3.9-13.1,5.6-19.8,3.7-13.8,6.8-27.8,9.5-41.8,5.5-28,9.3-56.3,12.3-84.7,3.1-28.5,5.3-57.1,7.6-85.6,2.4-29.7,4.8-59.4,7.2-89.1,2.4-29.7,4.8-59.4,7.2-89.1,2.4-29.4,4.8-58.9,7.2-88.3,2.3-28.7,4.3-57.3,5.3-86.1,1-28.7,1-57.4-.9-86.1-1.9-28.6-5.8-57-12.3-84.9-.4-1.9,2.5-2.7,2.9-.8,3.1,13.4,5.7,27,7.7,40.7,4.1,28.3,6,56.9,6.3,85.5.3,28.7-.8,57.4-2.7,86.1Z"/>
    <path class="st14" d="M1920,211.1v16.1c-1.2-7.1-2.6-14.2-4.1-21.3-1.5-7.1-3.1-14.2-4.7-21.3-1.5-6.4-3-12.7-4.6-19.1-5.3-21.6-10.9-43.2-15.9-64.9-4.9-21.4-9.2-43-11.9-64.8-.8-6.8-1.5-13.5-2-20.3-.4-5.1-.6-10.3-.8-15.4,0-1.2,1.6,16.3,1.6,15.1.2,1.2-1-15.1-1-15.1h2.4c0,.6,0,1.2,0,1.8.2,4.4.4,8.8.7,13.2.5,7.6,1.3,15.2,2.3,22.8,1.3,9.8,2.8,19.5,4.7,29.2,4.1,21.9,9.3,43.5,14.7,65.1,2.3,9.4,4.7,18.8,7.1,28.3,1.9,7.8,3.8,15.6,5.7,23.5,1,4.3,2,8.7,2.9,13,1,4.7,2,9.5,3,14.2Z"/>
    <path class="st14" d="M1911.7,442.1c2.6-19.9,5.6-39.7,8.3-59.5v21.4c0,.2,0,.4,0,.6-3.5,24.1-6.8,48.3-9.2,72.5-2.4,24.3-4,48.6-5.2,73-1.2,24.5-2,49.1-2.7,73.7-.7,24.6-1.3,49.1-1.9,73.7-.6,24.8-1.3,49.6-1.9,74.5-.6,24.7-1.3,49.3-1.9,74-.4,16-.8,31.9-1.2,47.9-.2,8.8-.4,17.6-.7,26.3-.6,24.7-1.3,49.5-1.9,74.2-.4,13.8-.7,27.5-1.1,41.2,0,.8,0,1.7,0,2.5-.3,10.2-.5,20.3-.8,30.5-.5,20-1,40-1.6,60-.1,4.8-.2,9.5-.4,14.3-.1,3.7-.2,7.4-.3,11.2,0,2.5-.1,4.9-.2,7.4-.2,8.2-.4,16.3-.6,24.5,0,.5,0,1,0,1.6-.3,9.9-.5,19.7-.8,29.6-.7,24.7-1.3,49.5-1.9,74.2-.6,24.6-1.3,49.3-1.9,74-.6,24.8-1.3,49.6-1.9,74.5,0,1.9-3.1,1.9-3,0,.3-12,.6-24,.9-36,.6-24.7,1.3-49.3,1.9-74,.6-24.7,1.3-49.4,1.9-74.1,0-.1,0-.2,0-.3,0-1.6,0-3.2.1-4.7.2-8.3.4-16.7.7-25,.4-14.8.8-29.5,1.2-44.3.2-9.1.5-18.2.7-27.3,0-2,0-4.1.2-6.1.4-13.6.7-27.2,1.1-40.8.6-24.7,1.3-49.5,1.9-74.2.6-24.7,1.3-49.5,1.9-74.2.6-24.7,1.3-49.5,1.9-74.2.2-6,.3-11.9.5-17.9h0c.2-7.3.4-14.6.6-21.9.3-11.4.6-22.7.9-34.1.4-16.8.9-33.5,1.3-50.3,0-2.1.1-4.2.2-6.4,0-.6,0-1.3,0-1.9,0-2.4.1-4.8.2-7.2,0-2.9.2-5.8.2-8.6.6-24.7,1.3-49.3,1.9-74,0-.7,0-1.4,0-2.1.6-23.9,1.2-47.8,2-71.7.9-24.4,2-48.8,3.7-73.1,1.7-24.4,4-48.7,7.1-73Z"/>
  </g>
  <g id="trouser">
    <path class="st6" d="M1246.7,2400H.5c-.2-.3-.3-.6-.5-.9v-418.2c12.4-21.6,27.3-45.6,27.3-45.6,15.8-25.3,29.4-45.6,35.1-54,17-25,17.6-24.4,28.3-40.9,16.9-26,13.7-24.9,31.4-52.9,21.4-33.8,26.6-36.2,44-63.4,3.5-5.4,5.6-8.9,10-13.1,9.4-9,16.6-9,24.1-18.9,2.9-3.8,1.5-3.3,5.8-10,5.9-9.1,10.5-13.1,16.8-20.4,6.8-7.9,9.2-12.4,14.1-19.4,9.2-13.1,18-21.8,35.6-39.3,24.9-24.8,46-41.8,53.5-47.7,11.6-9.2,22.1-16.6,43-31.4,25.6-18.2,38.5-27.3,44-29.9,15.2-7.1,29.2-16.6,44-24.5.7-.4,2.3-1.2,3.9-2.9,2.1-2.3,2.9-4.7,4.3-10.4,1.6-6.5,1.5-6.8,2.2-9.1,1.5-5,3.7-8.3,6-11.8,6.9-10.2,9.3-8.1,17.7-18.9,3.7-4.8,6.5-9.4,11.9-10.8,1.5-.4,2.4-.3,4.5-1.1,4.8-1.7,7.3-4.3,9.6-6,3.2-2.4,6.7-3.4,13.8-5.3,14.1-3.8,33-4.8,44.9-5.6,13-.9,6.7-.8,35.8-3.1,29.6-2.4,34.8-2.4,39.8-2.2,10,.4,15.1,1.5,31.8,4.2,32.4,5.2,31.7,4.2,49.7,7.3,17.2,3,46.9,8.3,81.9,20.4,17.2,6,25.4,10,47.9,16.7,19.8,5.9,20.2,4.7,33.8,8.8,49.5,14.9,54.5,33.4,86.6,34.2,13,.3,18.4-2.5,33.3.3,16,3,26.4,9.4,35.3,14.4,20.9,11.8,65.9,37.2,99.4,40.6,4.2.4,19.7,1.7,34.4,11.5,2.4,1.6,5,3.3,7.6,6,11.9,12.4,10.8,31.6,10.2,39.3-3,42.4-36.6,67.8-41.5,84.4,0,0-2.7,9.2-6.5,9.1-1,0-2,0-2.9,0-1.6,0-1.9,0-2,.2-.5.7,1.3,2,2.3,4.8.6,1.6.7,2.8.8,3.4,1.6,11.6,18,35.3,18,35.3,9.8,14.2,14.7,21.3,16.7,23.1.6.5,2.7,2.3,3.7,5.3.7,2.1.5,3.7.5,5.9-.1,3.3.3,6.7.3,10.1,0,3.9.3,9.3.9,20.1.8,14.5,2.6,32.5,4.8,56.1,1.8,19.5,4.4,38.9,6.2,58.4.5,5.5,1.2,14.6,3.6,20.1.3.7,1.1,2.6,1.6,5.3.5,3.2.2,5.4,0,7.4-.1,1.1,0,5.1.3,13.2.1,4.6.3,9.7.5,11.9.6,12.1,2.8,18.8,5.1,33.1,1.4,8.4,1.9,14.4,2.8,23.1,1.4,14.6,1.3,20.3,2.5,38,.8,12.2,1.4,17.5,2.3,28.5,3.7,43.7,1.5,45.5,4.8,81.3,2.3,25.1,4.6,37.9,5,52.5,0,3.4.1,10.3,1.4,19.7.8,6.1,1.5,8.1,2.2,13.8,1.1,9.2.8,16.1.8,19.2-.3,13.9,1.9,40.5,6.3,93.7,2.7,31.8,3.3,34.9,3.3,37.1Z"/>
  </g>
  <g id="face">
    <path class="st11" d="M1042.9,859.7c-.5.3-1.1.5-1.2.9-.1.6.6,1.3,1,1.7,1,.7,2.5.8,5.9-.5,3.4-1.2,5.3-1.8,7.3-3.6,1.7-1.6,2.7-3.2,4.8-3.4.7,0,1.3,0,1.7.2,3.6.9,7.4-.7,10-1.4,3.4-.9,5.6-2.7,7.3-4,13-9.9,27.2-18.3,40.3-28,25.8-19.2,26-15.7,37.5-26.7,9.1-8.8,15.5-14.9,21.8-24.6,2.1-3.3,4.2-6.8,8.3-11.5,6.5-7.5,9.2-7.5,15.5-13.6,7.2-7.1,5.1-8.4,18.1-24.9,4.9-6.3,7.6-9.1,10.9-11.8,2.4-1.9,5.4-3.9,11.3-7.9,5.4-3.6,7.2-4.6,11-7.4,4.2-3.1,9.1-6.7,8.7-7.6-.7-1.2-11.8,5-29.5,10.8-8.6,2.8-8.1,2-24.7,6.5-22.6,6.2-22.8,7.4-32.7,9.4-14.2,2.8-25.3,2.5-34.8,2.2-10.8-.3-23.9-.8-39.9-5.8-6.4-2-14.9-5.3-14.7-5.7,0-.2,2.9.6,6.5,1.5,6.4,1.7,13,3,19.5,4.5,7.9,1.8,30.4,4.7,56.8.9,8.8-1.3,23-6,51.4-15.4,33.7-11.2,38.2-14.7,41.6-19.2,2.4-3.2,8.1-11.9,13.2-10.8,1.2.2,1.9,1,3.4,2.4,5.6,5.4,5.3,10.9,9.4,12.2.8.3,2.2.5,2.5,0,.3-.5-.8-1.6-1.6-2.5-2.3-2.7-1.4-3.2-4.4-8.3-1.1-1.8-2.4-3.8-3.5-6.6-.3-.7-.6-1.6-.4-2.8.3-1.5,1.5-2.4,2.2-3,.5-.4,1.7-2.3,4.2-6.2,6.8-10.4,10.7-24.5,10.7-24.5,2.9-10.7,1.1-11.2,4.8-24.9.6-2.4,2-7.2,4.3-13.3,2.9-7.6,6-13.6,6.3-13.5.4.2-3.2,12.2-5.6,18.4,0,0-.8,2-1.3,6.5-.2,1.6-.2,2.7.4,3.7.4.7,1.2,1.5,3.1,2.1,2.5.8,4.4.6,9,0,5.6-.6,5.4-.5,8.1-.8,7.3-.9,5.9-1.2,7.3-1.1.8,0,1.9.2,2.8-.6.8-.7.9-1.9.9-2.8,0-1.8-.6-2.3-.8-4.5,0-.5-.2-1.8,0-3.2.3-2.1,1.5-3.5,2.6-5,1.6-2.1,2.8-4.4,4.4-6.5,5.9-7.6,9.5-19.1,9.9-20.3.5-1.5,1.3-5.4,2.9-13.3,1.5-7.2,1.6-8.7,1.7-10.4,0-3.6-.4-4.9,0-9.5.3-4.8,1.1-6.5,1.4-7,.9-1.8,1.6-2.2,2.6-4.5.9-2.3.5-2.5,1.4-4.2.5-1,1-1.4,2.5-3.9.7-1.2,1.1-1.8.8-2.3-.4-.8-1.9-.8-2-.8-1.6,0-1.8,1.1-4.3,2.1-1.1.4-1.4.4-3,1-.2,0-1.3.5-1.8.8-2.3,1.3-2,3.8-4.4,7.8-1.1,1.8-1.2,1.4-2.6,3.6-1.3,2-1.5,3-2.7,5.3-1.7,3.5-2.6,5.4-4.3,7.4-.6.7-2.4,2.7-5.3,4.3-1.2.7-2.5,1.4-4.2,1.8-.8.1-2.3.4-4.1,0-1.7-.3-2.2-.8-3-.5-.8.3-1.2,1.1-1.8,2.4-.6,1.4-.6,2-1.3,4-.4,1.1-.8,2.3-1,2.3-.4,0,.1-6.7,1.8-13.5,2-8.1,3.5-7.8,7.6-19.6,1-2.8,2-6,4.1-9.4,1.4-2.2,2.1-2.6,2.9-4.6.6-1.6.9-3.1,2.1-3.6.6-.2,1.3-.3,1.7,0,.4.4,0,1.3-.3,1.8-.9,2.1-.3,2.1-1.2,4.9-1.5,4.9-3.8,6.4-5.4,12.1-.3,1-.8,3-1.4,5.3-.6,2.8-.6,3-1,4.2-.2.4-.9,2.7-2.5,5.3-.4.6-1.1,1.8-1.9,3.6-.7,1.5-.7,2-.6,2.3.6,1.1,3.2.7,4,.6,2.8-.4,4.8-1.7,6.3-2.7,1.1-.8,3.2-2.2,5.2-4.9.5-.7,1.2-2.3,2.7-5.4.3-.6.7-1.6.6-2.9,0-.4-.2-1.1-.6-1.6-.5-.5-.9-.3-1.8-.8-.6-.3-1.4-.7-1.7-1.5-.2-.5,0-1.2.5-2.5.3-1,.5-1.2.9-2.3.7-1.8.5-1.8.9-2.7.3-.6.9-1.3,2.2-2.8.4-.4,1-1.1,2.2-2.4,1.2-1.3,1.6-1.7,2.1-2.2.9-.9,1.4-1.3,1.9-1.7.5-.3,1.1-.5,2.4-1,1.3-.5,1.7-.6,1.8-.9,0-.2.1-.4-.3-2-.3-1.2-.4-1.7-.6-2.2-.4-1-.6-.9-1-1.8-.3-.9-.3-1.2-.6-1.7-.3-.4-1-1-1.4-.8-.6.3-.3,2.2-.6,2.2-.2,0-.5-.8-.4-.8.2,0,1.1.9,1.6,2.2.2.6.2.9,0,1.1-.2.5-.8.6-.9.6-.8.2-1.4-.4-1.5-.5-.4-.3-.3-.5-.8-1.3-.4-.5-.6-.8-.9-.8-.4,0-.7.5-.8.8-.1.4,0,.8,0,1.4.1.5.2.7.5,1.4.2.7.3,1,.2,1.1-.3.2-1.3-.4-1.8-.8-1.8-1.5-1.8-3.8-2.4-5.7-1-3.1-3.2-3.7-6.2-6.6-3.5-3.5-4.8-7.3-6.4-11.8-.4-1.2-2.5-7.2-2.4-15.4,0-1.2,0-.4,1.2-12.3.8-8.1.8-9.1.6-10.9-.4-4.2-1.4-5.1-1.5-9.6,0-3,.4-3.9-.4-5.3-1.4-2.5-4.5-2.8-7.7-3.9-3.3-1.1-5.9-3.5-11.2-8.2-2.4-2.2-8.5-7.9-13.7-16.2-4.6-7.4-5.8-12.7-9.9-26.5-5.6-19.3-8.4-28.9-12.4-39-8.9-22.4-11.5-19.3-13.8-28.2,0,0-2.1-8-6.2-9.6-.3-.1-1.3-.5-1.7,0-.4.3-.1,1.1.2,2.1.7,2.3,1.1,3.4,1.4,4,1.5,2.9,4.3,12.3,7.2,22.3,2.5,8.5,3.8,13.1,5.2,19.8,1.3,6.4,1.8,10.9,4,19.9,1.5,6.3,2.3,9.5,3.5,11.1,2.6,3.3,3,4.8,3.9,7.7.2.6.4,1.4,0,1.6-.6.4-3.4-2.7-4.2-3.8-6.5-7.5-10.2-21.6-10.2-21.6-5.2-19.3-7.8-28.9-7.9-33.4,0-.8,0-3.4-1.8-5-1.4-1.2-2.8-.8-4.5-1.3-2.6-.7-3.3-2.7-8.3-11-4.7-7.7-5.6-8.6-5.3-10.8.3-2.2,1.5-3.9.6-6.1-.7-1.5-2.1-2.4-2.5-2.7-.6-.4-1.8-1.1-3.3-1.1-1.5,0-2.6.7-3.3,1.2-.5.3-1.6,1-2.3,2.3-.8,1.4-.7,2.7-.6,4.9.3,5.2,0,4.7.2,6.7.6,4.4,2.4,7.6,4.1,10.7,4.3,7.4,7,12.2,12,13.5,3.5.9,7.2-.1,8.3,1.9.4.8.2,1.8,0,2.1-1.4,5.3-2,10.9-4.1,16-3.4,8.2-4.5,15.4-5,18.8-.9,6.6-1.4,10.2-.6,15.2.7,3.8,1.8,6.2.8,6.9-1.3.9-4.7-2.5-10.3-6.5-10-7.2-12.7-6.2-18.4-11.3-6.3-5.7-9-12.4-9.9-14.6-3.5-8.9-2.6-17-.7-33.1.6-5.6,0-11.4,1.8-16.7.8-2.6,2.6-6.8.6-9.5-.8-1.2-2.1-1.9-2.5-3.8-.3-1.9,0-3.4,0-3.4.2-.6.5-1.4.4-2.4,0-.1-.2-1.1-.5-1.1-.1,0-.4.1-1.4,3-.8,2.4-.8,2.9-1.4,4.5-.6,1.5-.9,2.3-1.7,3-1,1-2.1,1.3-2.8,1.5-.6.2-2.9.7-5.3-.4-1.1-.5-1.9-1.2-2.8-2.2-2-2.3-2.7-4.6-3.9-7.7-2.9-8.2-4.7-11.9-4.4-14.2,0-.1.2-1.3-.2-2.7-.3-1.2-.7-1.6-.8-1.8-.8-.8-1.9-.8-2-.8-.2,0-.7,0-1.4.4-1,.5-1.5,1.1-2.3,2-2,2.3-1.8,1.9-2.4,2.7-.3.4-1.1,1.5-1.8,3.2-.9,2.1-.8,2.8-1.8,7.1-.6,2.8-.9,4.2-1.6,5.6,0,.1-.8,1.5-2.2,4.2-.8,1.4-1.2,2.2-1.8,2.8-.5.5-.9.7-1.3,1.4-.2.3-.6,1-.6,2,0,.4,0,1.2.6,1.8,0,0,0,0,1,.7-1.7-.3-2.4-.8-2.8-1.5-.4-.7,0-1.2.3-3.4.3-2.2,0-2.3.3-3.9.3-1.2.5-1.4.7-2.8.1-.8.3-1.6.2-2.6,0-1.1-.3-1.2-.5-2.6-.1-1-.2-1.5,0-2.1.2-.7.4-.9.8-2.1.2-.7.4-1.2.2-1.4-.2-.2-.9.3-1.2.6-.3.3-.9.9-1.3,2.2-.3.8-.1.9-.4,2.2-.3,1.7-.6,1.8-.6,2.9,0,.5,0,1,0,2,.1,1.7.3,2.1,0,2.2-.3.2-1.4-.6-1.8-1.8-.2-.8,0-1.3.3-2.5,0-.4,0-.6,0-4.3-.1-2.8-.1-3.1,0-3.7,0-1.4.3-2,.5-3.2.3-2.2.3-3.6.4-5.3.2-7.7,1.7-11.9,1-18.3-.4-3.6-1-3.7-.8-6.2,0-.9.2-2.3-.6-3.5-.1-.2-.8-1.1-1.6-1-1.2.1-1.8,2.5-2.1,3.6-1.6,6-2.4,9-2.9,12.5-.3,1.8-1.4,8.3-3.4,14.9-1.4,4.6-2.1,6.9-2.4,7.5-.5,1.1-.8,2.2-1.5,4.4-.4,1.4-.6,2.4,0,3.1.3.4.8.6,1.5.9,1,.5,1.5.4,1.6.6,0,.5-2.4,1.3-3.8,1.8-2.6,1-4.2,2.4-7.5,5.2-1.1.9-4.3,3.8-8.2,9-1.3,1.7-4.6,6.5-8.2,14.5-3.8,8.5-5.6,15.6-7.3,22.7-2.6,10.6-3,16.2-3.7,16.1-.9,0-.9-10.7,0-20.3.6-6.3,1.8-17.6,5.2-22.1,1.2-1.6,1.6-2.8,2.4-5.2.6-1.6.8-2.8.2-3.7-.5-.7-1.3-1-1.6-1-.8-.2-1.7,0-2.9.7-2.3,1.4-3.6,3.5-3.9,4-4.2,6.9-4.1,5.5-5.6,8.8-1.9,4.1-2.6,7.9-4,15.5-.8,4.3-1.2,6.8-1.5,10.6-.3,4.2,0,6.1-.3,11.1,0,.6-.4,9-.8,9-.3,0-.5-3.9-.6-5.8-.1-2.4-.2-5,0-8.7.2-5.3.7-5.3,1.4-13.2.7-7.4.4-8.7,1.4-11.7,1.3-4.1,2-6.1,2.1-6.4.4-.6,1.3-1.9,1.1-3.3,0-.2-.2-1-.8-1.5-.7-.5-1.7-.4-2.3,0-.8.4-1.2,1.1-2.1,3.6-.8,2.1-1.2,3.1-1.4,4.1-.4,1.8-.7,3.7-.6,7.1,0,3.7.3,4.1.4,7.3,0,1.1,0,1.7-.6,11.5-.2,2.4-.3,4.9-.5,7.3,0,0-.2,2.7-.3,6.5,0,1.1,0,2.9.6,4.5.4,1,1,2,1,2,.4.7.5.8.7,1.2,1,1.7.2,2.5.9,4.1.7,1.6,2.1,2,1.8,2.8-.1.4-.6.8-1.1.8-1.4.1-2-2.4-3.6-2.4-.8,0-1.4.6-1.5.6-.9.9-.3,2.1,0,5.6.2,2.4,0,2.7.4,3.7.8,2.1,2.4,3,2.3,3.1-.2.3-6.4-2.5-12.3-8.2-6.3-6.2-9.2-12.9-10.9-16.8-.5-1.2-2.2-5.3-3.5-11.2-1.4-6.5-1.3-10.5-1.7-28.9-.1-8-.5-7.9-.2-9.2.2-.9.7-2.8,0-3.2-.4-.3-1.2.1-1.7.5-.9.7-.8,1.7-1.6,3.4-.4.9-1.1,2.5-1.8,2.4-.8,0-1.2-2.9-1.5-4.8-.2-1.1-.5-4,0-6.2.4-1.9.5-2.1.5-2.1.3-1,.6-1.4.4-1.7-.3-.3-1.3.2-1.5.3-1.4.7-2.1,2.1-2.2,2.2-2.3,4.3-5.7,8-7.7,12.4-7,16.2-6.3,13.9-7.6,17.3-4.2,11.5-6.6,21.7-8,29.2-1.5,8-4.7,15.3-2.3,16.9.4.2.8.3,1.1.3,4.3.3,7.8,2.4,10.8,3.7,6.1,2.6,16.4,4.2,30,8.4,11.7,3.6,20.4,6.3,29.1,12.2,7.7,5.2,8.1,7.9,15.6,13.4.9.6,3.6,2.7,3.2,3.7,0,.2-.3.6-1.8.6-3.9.1-7.5-2.5-9.3-3.7-4.2-2.9-9.1-4.8-13.6-7.2-3.5-1.8-6.7-3.5-9.1-2.3-.6.3-1.6,1-1.5,1.5.1.6,1.6.3,2.6,1.4.6.7.9,1.8.6,2.2-.9,1.9-12-2-20.2-4-16.5-4-17.1.7-34.8-2.4-17.7-3.1-22.6-8.7-30.2-4.8-3.8,2-4.3,4.3-12.6,9.3-2.5,1.5-6.5,3.8-12,5.3-4.9,1.4-8.4,1.6-8.5,1.2,0-.3,2.8-.9,2.9-2.4,0-.8-.6-1.6-1.3-1.9-.6-.3-1.5-.5-4.5.9-2.8,1.3-4.4,2-6,3.8-.5.5-2,2.2-2.9,4.9-.7,2.1-.7,3.7-.6,7.2.3,11.1,0,4.9.3,10.3.5,10,.5,8.9.6,10,.1,9,.2,13.5-2.2,17.1-1.7,2.5-3.5,3.5-4.2,6.6-.1.6-.3,2.4-.6,5.8-.2,2.7-.2,3.8-.9,5.2-.8,1.7-1.4,1.5-1.9,2.9-.7,2,.4,2.9.6,6,.2,2.8-.7,2.7-.7,6.3,0,.7,0,3.1.7,6.2.7,2.8,1.7,4.7,1.6,4.8-.3.1-2.5-9.4-9.6-13.3-2.9-1.6-2.9-.2-11.4-1.8-11.1-2.1-11.6-4.5-17.2-4.6-1.2,0-4,0-6-1.8-1.1-1-1.2-1.9-1.7-1.9-1.5,0-2.5,9.8-3.2,18-1.9,20.1-1.7,22.9-1.3,25.8.2,1.5,1.2,8,4.5,15.9,1.7,4,6.9,16.1,19.1,25.9,6.4,5.2,13.1,8.4,20.5,11.9,6,2.9,8.3,2.9,11.2,5.2.4.3,1.7,1.4,2.3,1,.5-.4.3-1.9-.2-2.9-.6-1.3-1.3-1.4-1.6-2.6,0-.1-.5-1.9.5-2.6.6-.4,1.6-.2,2.2.3.9.7,1.1,1.9,1.2,2.6.3,2.1,1.3,4.1,1.5,6.2,0,.4,1.9,9.1,5.6,26.4,3,14.1,4.6,21.4,9.3,30.1,6.8,12.4,15.8,19.7,20.2,23.2,5.3,4.2,10.2,7.1,23.8,13.5,26.8,12.5,45.3,18.8,45.1,19.5-.2.6-14.6-3.8-22.3-6.3-2.6-.8-28.5-9.3-33.5-14.8.1.1-1.9-1.4-5.9-4.5-.4-.3-1.3-1-1.8-.7-.6.4-.3,2-.3,2.3.3,1.7,1.2,2.8,1.4,3,1.4,1.8,2.2,4.1,3.5,6.1,3.7,5.7,9,23.9,10,27.5,4.3,14.6,4.7,11.9,7.9,23.5,5.7,20.4,3.7,26,10.2,47.9.6,2.1,2.1,7,4.4,13.3,7.1,19.4,10.7,29.1,15.5,36,0,0,6.7,9.6,6.5,17.1,0,.8,0,2.3-1.1,3.6-.8,1-1.6,1.1-5.9,2.6-3.8,1.3-4.2,1.5-4.7,1.9-1.2,1-1.5,1.8-3,2.5Z"/>
    <path class="st11" d="M1010.9,286.6h0c3.7-2,6-4.1,6.2-4.2l-6.2,4.2Z"/>
    <path class="st11" d="M1017.2,282.3h0c-.2.2-3.4,2.2-6.2,4.3h0s6.2-4.3,6.2-4.3Z"/>
    <line class="st0" x1="1012.5" y1="297.6" x2="1012.5" y2="297.7"/>
    <path class="st11" d="M1130.4,268.2c-1.1-.2-2.6,3-4.6,7.4-1.9,4.2-1.5,4.7-1.4,4.9.8.8,3.9-.3,5.6-2.3,3-3.5,1.8-9.7.5-10Z"/>
    <path class="st11" d="M1069.6,301.3c1.5-1.8,3.2-2.1,3.2-2.1,1-.2,2.1,0,2.8.5,2.1,1.3,1.3,5.9.7,10.7-.9,7.3-.9,13.6-.9,22,0,6.1.3,8.5-.2,8.6-1.2.2-4.4-12.6-5.6-17.9,0,0-3.9-17.2,0-21.8Z"/>
    <path class="st11" d="M1064.5,305.4c.6-1.4,1.2-2.7,1.9-2.7,3.7.3,4.9,42.2,1.5,42.7-1.2.2-2.8-4.9-2.9-5.3-1.7-5.5,0-7.9,0-14.4,0-9.6-3.4-13.5-.5-20.3Z"/>
    <path class="st11" d="M1209.8,284.8c-.7,2.3-.4,4.5,0,6.8.5,3.3,1.6,5.1.5,7-.4.7-.8.9-1.3,2-.6,1.1-1.3,3.1-.8,3.5.5.4,2.5-1.4,6-4.8,4.3-4.1,5.2-5.6,5.8-6.6.5-.9.9-2,1.8-4.3.5-1.3.9-2.4.8-3.8,0-.7,0-1.7-.7-2-.9-.5-2.1.8-2.7.3-.5-.4.5-1.8,0-2.8-.6-1.2-2.7-1.2-2.8-1.2-2.8,0-5.7,2.9-6.6,6Z"/>
    <path class="st11" d="M1218.6,298.9c-.9,0-2.7,7.9-3,15.6-.4,9.6,1.6,14,2.5,15.8,1.4,2.6,3.5,5.5,4.1,5.1,1.1-.5-4-7.8-3.4-18.3.2-3,.8-6.2.6-12.1-.1-2.6-.2-6.1-.8-6.1Z"/>
    <path class="st11" d="M1244,224.1c-.3.6.1,1.5.7,2,1.1,1.1,2.7.6,4.1.8,3,.5,4.4,4.3,5.5,6.3,2.9,5.2,8.9,6.5,14.1,8.5,8.7,3.4,15.6,8.9,26.9,17.9,13.5,10.9,25,20,29.7,35.2,2.4,7.7,1.8,13,7,21.2,2.4,3.9,5.7,7.7,11,13.8,4.4,5.2,6.8,7.5,9.6,12.4,2.2,4,2.9,6.4,3.5,6.3,1.3-.3.7-12.9-2-23.6-3.6-14.4-11.2-24-26.1-42.5-3-3.7-14.5-17.9-31.9-33.7-2.1-2-10.7-8.1-27.9-20.2-1-.7-7.3-5.1-13.3-5.5-2.3-.1-2.8.4-7.5.3-1.5,0-3.1-.1-3.5.7Z"/>
    <path class="st11" d="M1070.2,215.8c-3.2,2.7-6.9,5.4-11.3,7.9-8.2,4.6-10.4,3.6-20.2,7.7-19.2,8.1-31.4,20.8-37.3,27.1-9.5,10.1-16,20.5-15.3,21.1,1.1.9,22.9-23.6,23.9-22.7,1.1.9-23.3,27-18.6,33,2.2,2.8,10.1.5,12.5-.2,2.6-.8,5-1.8,7-2.9-2.4,1.8-4.5,3.6-4.2,4.3.3.5,1.8,0,6.3-.2,4.5-.2,4.4.3,6.5,0,5.5-.8,7.8-4.7,9.3-3.7,1.3.9,0,4.7,0,5.1,0,.7-5.1,6.3-5.1,6.3l-10.2,8.8-7.9,3.9,3.2-7.4,3.7-6c-.4.4-7.4,6.5-8.3,7.4s-6,5.8-6,5.8l-8.1-.5-.2-7-7.9,4.4-13,7.7-20.9,15.3-22.3,24.1-16.7,29.2-7.4,18.6-3.9,1.8c0-.2,0-.3.1-.4,4.5-13.9,9.2-23.9,18.4-43.9,5.2-11.3,9.4-19.6,16.6-29,4.4-5.8,6.8-7.9,11.2-13.1,12.8-14.8,18.3-26.5,23.2-34.4,15.9-25.8,42.5-39.8,67.3-52.8,16.4-8.6,16.1-6,35.8-15.2Z"/>
    <path class="st11" d="M1382.2,362.4c-.4,2.7-1.4,5.9-1.8,5.8-.4,0,.2-3.8,0-8.1-.2-4-.9-6.3-3.5-14.6-4.5-14.6-4.1-14.3-5.1-16.4-2.6-5.5-5.3-8.3-9-12.8-7.7-9.5-9.7-14.6-15.3-23.1-11.1-16.8-24.1-28.8-32.7-36.7-15.9-14.6-23.8-21.9-36.3-27.9-3.8-1.8-10.3-4.7-11.8-6.8,3.7,0,4.9-1.6,14.2,2.2,12.5,1.5,25.8,10.8,38.3,22.5,4.8,5.7,10.7,12.9,18.3,22.3,8,9.9,10.8,13.8,13.6,19.4,3.2,6.3,3.7,9.6,8,16.8,4.6,7.7,5.7,7,9.8,13.6,4.9,7.9,2.4,7.6,10.1,26.9,2.1,5.1,4.3,10.4,3.3,16.9Z"/>
    <path class="st11" d="M1336,334.4c-.9.9,1.5,4.8,1.5,4.8,0,0,2-2.1,1.8-3s-2.7-2.5-3.3-1.8Z"/>
    <path class="st11" d="M1342.5,333.2c.2-.2-.6,0-.2,2.2.2,1.1,2.9,3.5,2.5,4.6-1.3,3.9.5,9.1,2.3,9.5,1,.2,2.2-1,2.7-2.2.5-1.3.2-2.8-1-5-3-5.6-6.5-8.9-6.3-9.2Z"/>
    <path class="st11" d="M1017.6,749.1c-8,0-29-.8-69.9-1.4-16.9-.2-25.3-.4-25.6-.4,0,0-26.5.2-57.2-2.6-1,0-3-.3-5.3-1.3-4.4-1.9-5.9-4.8-8.8-7.5-4-3.8-5.2-2.3-14.2-7.3-5.4-3-9-5.8-13.1-9-4.1-3.2-8-6.2-12.5-11-7.3-7.8-11.3-15.1-12.5-17.3-2.4-4.6-4.9-9.3-6.2-16.2-1.3-6.7-.8-12.1-.4-16.4.5-5,1.2-6.3,3.1-15.8,1.8-8.6,1.4-8.1,3.3-18,1.8-9,2.9-14.7,5-22.1,2-7.2,2.3-6.7,5.9-18,3.5-11.3,3.3-12,6.1-20.4,3-9,4.5-13.5,7.5-19.1,2-3.8,4.6-7.8,12.3-16.7,5.3-6.2,10.2-11.4,20.2-21.6,2.1-.3,4.8-.6,5.3.3.5,1.1-2.3,3.3-3.8,4.6-2.1,1.8-6,6.7-13.7,16.7-2.6,3.4-6.3,9.5-13.4,21.5-7.1,12-10.7,18.1-12.6,22.3-4.6,10.2-6.9,18.5-8.4,24-1.6,6.2-3.5,13.3-4.3,22.8-.8,9.4.5,8.8,0,20.5-.7,14.7-2.8,17.7-1,25.8,1,4.4,2.8,7.8,6.3,14.4,4.4,8.2,9.5,17.7,19,27.3,8.6,8.8,16.6,13.5,23.8,17.7,6.2,3.7,17.4,10.1,33.4,14.2,9.4,2.4,17.7,3.2,24,3.5-6-.4-12.1-1.5-12.9-4.2-.2-.8-.2-2.5.8-3.3,1.3-1.1,3.8,0,4.5.3,1.4.5,10.1,1.5,27.3,3.3,9.6,1,8.1-.2,18.5.8,15.9,1.4,14.9,3.7,25.1,4.1,19.6.6,32.4-3.8,32.4-3.8,3.5-1.2,6.7-2.6,9.1-1,2.8,1.8,3.2,6.4,2.9,10.6Z"/>
    <path class="st11" d="M856.6,615.1c-.2,0-1,.3-2,10.4-.9,9.1-1.4,13.6-.8,17.7,1.1,7.4,3.2,7.8,2.8,13.2-.1,1.5-.5,4.6,1,5.6.9.6,1.8,0,3.5.8,1.6.7,1.9,1.7,2.3,1.5,1-.4-.7-7.5-2-13.4-2.3-10-3.4-14.9-3.3-16.7.3-5,1.7-8.1.5-14.2-.2-.7-1-4.9-2-4.8Z"/>
    <path class="st11" d="M871.2,603.2c-.6,0-2.3,5.8-2.5,12.1-.3,7.4,1.5,13.3,3,18.2.5,1.8,1.4,4.6,1.8,4.6.6-.1-1.1-8-1.8-19.2-.6-9.9.1-15.6-.5-15.7Z"/>
    <path class="st11" d="M879.3,606.4c-1.5.3,1.4,18.5,3.5,29.9,2.8,14.9,4.3,22.5,8.1,30.1,6.8,13.8,17.5,23.5,19,22.5,1.2-.8-4.5-8.2-11.4-25.6-4.4-11-8.6-21.5-10.9-33.2,0-.5-1.4-7.2-4.6-15.7-1.4-3.9-3-8.3-3.8-8.1Z"/>
    <path class="st11" d="M884.4,541.4c-.2,3.3-.5,7.8-.5,13.2,0,3.2,0,15.4,2.5,31.6,1.8,11.7,4.2,21.2,6.1,27.6,3.3,11.3,4,10.6,10.4,29.4,3.2,9.6,8.8,26.8,9.6,29.4,3,9.2,4.3,13.4,7.3,19.2,4.5,8.6,10.9,17.1,12.1,16.4,1.3-.7-3.9-10.7-11.4-31.6-2.3-6.4-1-3.3-11.9-37.2-3-9.3-5.8-18.6-8.9-27.8-4.3-13.2-5.1-14.9-6.1-20-2.3-11.6-.3-12.8-3-24-2.1-8.4-3.7-10.2-3-15.2.5-3.2,1.8-7.1-.3-9.4-.9-1-2.2-1.4-3-1.5Z"/>
    <path class="st11" d="M940.8,619.9c-.7,0-.7,1.5-2.5,5-1.6,3-2.3,3-2.5,4.2-.7,3.2,3.8,5.9,7.8,10.6,6.3,7.3,7.3,14.6,7.8,14.4.5-.2-2.1-7-5.6-20-2-7.5-3.6-14.3-5.1-14.2Z"/>
    <path class="st11" d="M848.2,647.5c-1,0-2.3,5.8-.3,10.9,1.4,3.4,4.3,6.3,5.1,5.8.6-.3-.5-4-2.8-11.4-1.5-5-1.8-5.3-2-5.3Z"/>
    <path class="st11" d="M836.3,667c-1.1.3.6,10.3,1.8,15.9,1.3,6.1,2.5,9.1,5.1,11.4,1.7,1.6,4.4,3.2,5.1,2.5.8-.7-4.8-5.1-6.8-12.9-.2-.8-.2-2.7-.8-5.6-.3-1.5-.5-2.9-1-4.6-.8-2.7-2.5-7-3.3-6.8Z"/>
    <path class="st11" d="M1128.6,826.6c-.2-.6,6.8-3.8,20.1-10.3,19.9-9.6,19.3-9.7,26.4-12.9,9-4,13.3-5.2,28.9-10.7,18-6.3,12.5-4.7,40.5-14.8,26.5-9.5,39.7-14.3,46.7-16.3,5-1.4,14.4-3.9,19.9-6.4,2.4-1.1,3.5-1.4,5.8-2.1,1.6-.5,5.9-1.9,6.2-1.3.3.6-4.3,3.3-4.9,3.6-6.8,3.9-12.5,5.4-25.5,9.2,0,0-9.1,2.7-9,3,0,.2,12.3-4.1,13.5-1.7.5.9-.8,2.5-1.3,3-4.1,4.9-11.4,5.1-14.4,5.4-8.9.7-16.9,5.3-25.5,7.7-21.3,6-23.6,6.4-33.2,9.2-14.2,4.2-14.7,5.4-24.2,7.7-3.3.8-9.4,2.2-16.9,4.7-7.7,2.5-4.6,2.1-11.1,4.3-2.3.8-5.4,1.7-5.4,2.6,0,.8,2.9.8,3,1.5.1,1-5,2.3-6.9,2.8-1.3.3,0,0-16.7,6.9-3.5,1.4-4.7,1.9-6.6,2.6-3.1,1.1-9.2,2.9-9.4,2.4Z"/>
    <path class="st11" d="M900.9,918.6c-.2-.3,2.6-2.6,5.7-5.2,4.4-3.8,6.6-5.8,7.7-6.8,6-5.2,16.9-8.4,26.7-12,20.1-7.3,26.3-12.7,40.1-15.8,1.9-.4,5.4-1.2,11.8-2.5,11.7-2.4,13.5-2.7,13.6-2.5,0,.4-4.6,1.8-12,4.5,0,0-7.9,3-15.8,6.6-11.3,5.1-10.5,6.1-20.6,10.9-14.2,6.6-15.3,4.4-23.8,9.7-.5.3-6.5,4.1-12.7,6.6-3.4,1.4-6,2-7.5,2.3-2.4.5-2.5.3-4.3.7-5.4,1.2-8.6,3.9-8.8,3.6Z"/>
    <path class="st11" d="M984.2,900.7c-.3-.7,22.9-12.8,48-23.8,19.7-8.6,40.4-16.5,40.7-15.8.4.9-31.3,15.2-47.5,22.4-8.1,3.6-40.8,18.1-41.2,17.2Z"/>
    <path class="st11" d="M741.5,886.2c0,.3-10,3.4-37.8,12.5-10.8,3.5-16.3,5.3-19.2,6.3-7.1,2.4-22.6,7.9-39.8,15.4-10.2,4.5-8.9,4.4-35.1,17.2-30.9,15.1-35.2,16.5-39.2,17.4-21.7,5.4-40.5,2.3-40.5,1.8,0-.2,6.1-.5,20.4-2.3,12.1-1.5,15.8-2.3,15.8-3.4,0-1.2-4.2-2.4-5.4-2.7-7.6-2-14.1-.7-15.6-.5-3.5.7-2.9,0-25.6-1.6-23.8-1.8-35.8-2.7-43-2.3-17.6,1-26.4,1.4-32.6,5.2-3.5,2.1-9.6,6.7-17.7,6.1-.5,0-2.1-.2-3.6-.6,2-.6,3.2-1,3.9-1.2,14.2-4.9,16.4-7.3,26.8-10.2,6.5-1.8,11.6-2.5,15.8-3,6-.8,13.1-1.3,24.8-1,17,.4,15.7,1.9,37.3,3,16.2.9,19.3.2,25.2,1.8,1.1.3,3.8,1.1,7.3.8,5.1-.4,8.7-3,10.5-4.2,8.1-5.4,15.9-8.6,28-13.5,8.5-3.4,8-2.2,14.2-4.8,1.8-.8,3.6-1.6,5.2-2.5,18.2-6.3,21-8.8,39.9-14,18-5,22.2-4.7,51.8-12.4,16.5-4.3,28-7.7,28.1-7.5Z"/>
    <path class="st11" d="M346.1,1005.8c-3,1.8-.8,1.1-30.8,29.4-27.3,25.8-30.2,27.3-34.9,35.3-1.7,2.9-3.9,7.1-8.4,12.4-6.8,8.2-10.9,9.5-18.6,16.3-9.9,8.8-7,10.2-21.3,25.8-7,7.6-8.1,7.7-16.3,16.8-2.8,3.1-5,5.6-6.7,7.6,3.7-5.4,6.7-10.5,9.5-16,1-2,4.3-8.7,10.3-16.5,8.8-11.3,17.7-17.6,21.5-20.3,16.6-12.2,13.3-15.4,46.3-48,24.4-24,24.1-20.2,39.7-37.3,3.1-3.4,7.1-7.9,12.3-13.3.5.1,1,.3,1.4.4.5.1,1.8.5,2,1.4.6,2.1-5.1,5.3-6.3,6.1Z"/>
    <path class="st11" d="M274.8,1129.8c-1,.3-4.9,1.8-5.7,21.7-.7,17.9,1.9,32.1,3.4,39.2.9,4.5,4.4,15.7,11.3,38,0,0,6.9,22.2,18.3,36.9.7.9,2.7,3.5,3.4,3.2.8-.4-.9-5-2.3-8.6-3.1-8.3-5.8-16.8-8.8-25.1-2.7-7.4-4.4-12.8-6.6-19.7-6-19-8.9-28.5-10-38.9-1.5-15.5-2.3-23.2-.2-31,1.1-4.1,3.7-11.9.5-14.7-.8-.7-2.2-1.2-3.4-.9Z"/>
    <path class="st11" d="M414.9,1125.5c-.9-.1-3.2,15.5-7,36.7-6.7,37.3-8.9,40.7-12.4,65.4-2.7,19.1-5,43-3.6,43.2,1.5.2,6.7-25.2,11.8-50.3,4.3-21,2.6-15.1,7.7-43.7.9-5.2,1.7-9.5,2-15.6.2-4,0-5.8.5-11.1.4-5.3.8-6.2,1.1-10.6.5-5.7.7-14,0-14Z"/>
    <path class="st11" d="M419.6,1236.9c-.9,0-1.7,5.2-4.3,13.4-3.5,10.7-6.5,14.6-5.9,14.9,1,.6,10.6-8.6,11.3-20.6.2-3.5-.3-7.6-1.1-7.7Z"/>
    <path class="st11" d="M387.5,1228.3c-1.3-.3-8.2,15.7-9.1,34.2-.2,3.6-.5,10,.5,10.2,1.6.3,6.1-18.8,8.1-36.2.6-5.4.9-8,.5-8.1Z"/>
    <path class="st11" d="M300.8,1289.1c5.8,11.5,8.9,17.1,9.3,17,.3-.1-1.5-4.8-5.4-14l-3.8-2.9Z"/>
    <path class="st11" d="M324.8,1308.4c-.9.7.3,3.5.9,5,6.9,15.7,17.7,27.8,17.7,27.8,6.3,7.1,11.9,14.8,17.9,22.2,10,12.2,22.3,22.7,30.3,36.2,0,0,8.7,14.5,17.8,17.2,2.3.7,4.2,0,4.2,0,.3-.1,2.9-1.1,3.2-2.9.3-2-2.2-3.8-3.8-5-1-.7-2-1.2-4.1-2.3-3-1.5-2.9-1.2-3.8-1.8-3.4-2.1-4.6-6.1-5.2-7.9-.8-2.6-.9-4.7-.9-5-.4-8.8-24.7-27.3-38.7-45.5-7.3-9.5-15.8-24.1-27.2-33.5-1.7-1.4-6.8-5.6-8.1-4.5Z"/>
    <path class="st11" d="M271.4,1377.9c-2.3,2.2-4,5.8-3.2,6.6,1,.9,6-1.6,7-5.4.2-.9.5-2.5-.2-2.9-1-.6-3.3,1.5-3.6,1.8Z"/>
    <path class="st11" d="M706.6,1390.1c-5.4-.7-12.5-1.8-23.4-3.5-16.7-2.7-21.8-3.8-31.8-4.2-5-.2-10.2-.2-39.8,2.2-29.1,2.3-22.8,2.2-35.8,3.1-11.9.8-30.8,1.8-44.9,5.6-7.1,1.9-10.6,2.8-13.8,5.3-2.3,1.8-4.8,4.4-9.6,6-2.1.7-3,.7-4.5,1.1-5.5,1.5-8.2,6-11.9,10.8-8.3,10.8-10.8,8.7-17.7,18.9-2.3,3.5-4.5,6.8-6,11.8-.7,2.4-.5,2.7-2.2,9.1-.6,2.4-1.1,4.3-1.7,5.7-.2.1-.3.2-.5.4-2,1.2-5.1,1.7-6.1.5-2-2.4,4.1-10.1,12.7-22.6,6-8.9,11.5-18.1,17.2-27.2,13.9-21.9,17.9-29.1,26.9-32.1,2.2-.7,5.2-1.4,9.3-2.3,0,0,9.8-2.1,19.7-3.2,14.5-1.5,24.8-.3,40.3-.2,16.1,0,24.3-1.3,33.3-1.8,38.7-2.3,78,10.8,90.2,16.7Z"/>
    <path class="st11" d="M705.5,1365.7c0,.8,6.5,0,13.8.7,11.8,1.2,20,6,24.9,8.6,13.1,7,11.2,3,56.1,20.4,31.5,12.2,47.2,18.3,53.4,21.7.1,0,23.2,12.9,32.1,12.7.7,0,3.7-.2,6.8,1.4,2.6,1.3,3.8,3.1,5.2,4.5,2.8,2.9,5.5,3.8,11.5,6.1,7.6,2.9,14.9,6.5,22.4,9.5,5.8,2.3,19.5.9,17.4,6.8-.1.3-45.7-24.3-54.8-30.6-1.4-1-3.8-2.8-3.4-4.3,0-.4.4-1.2,3.6-2.3,3.9-1.3,7-1.4,7-1.4,14.2-.1,11.6-.6,17.7-.2,9,.6,11.4,1.5,11.5.9.4-1.4-14.1-5.9-33-11.8-1.6-.5-5.5-1.7-6.1-.7-.6,1.1,3.2,4.9,3.4,4.8,0,0-.8-1.7-1.4-1.6-.7.2.1,3.2-.9,4.8-2.3,3.3-13.5-.7-14.7-1.1-22-7.9-12.7-.4-38.3-10.4-10.1-4-19.2-8.4-36.9-17.2-29.1-14.4-39.4-20.5-52.3-21.4-4.3-.3-9.2,0-17.9-1.3-6.3-.9-9.7-2-15.6-1.6-6.2.4-11.9,2.2-11.8,2.9Z"/>
    <path class="st11" d="M972.6,1444.7c-.3,1.1,7.8,5.1,16.5,6.8,3.7.7,8.2.9,17.2,1.1,5,.1,10.6.3,10.6-.2,0-.6-5.8-1.6-8.6-2-2.7-.4-4.3-.6-13.6-1.4-6-.5-9-.8-10.6-1.6-1.9-.9-3.3-2.1-6.1-2.7-2.2-.5-5.3-.6-5.4,0Z"/>
    <path class="st11" d="M1012,1465c-.6.9,8.1,9.4,17,9.3.5,0,2.8,0,2.9-.7.1-.8-3.2-1.9-9.3-4.3-9.4-3.7-10.4-4.6-10.6-4.3Z"/>
    <path class="st11" d="M1194.7,1547c-.4.9,2.2,2.3,7.2,6.3,5,4,8.6,7.5,10.6,9.5,4.2,4.2,6.4,6.3,7.5,7.9,1.3,1.9,1.8,3.3,3.6,4.3,1.8,1,5.1,1.9,7.5,0,1.5-1.2,2.6-3.4,2-5.2-.6-2.1-3.2-2.8-5.7-3.8-6.2-2.7-5-5.4-14.3-12.7-5.3-4.1-8.5-5.4-11.1-6.1-2.9-.8-7-1.3-7.5-.2Z"/>
    <path class="st11" d="M1104.4,1634.8c-.8,1,6.3,7.8,12.2,13.4,3.5,3.3,5.8,5.5,9.1,8.1,8.3,6.8,17.8,12.5,18.3,11.8.5-.7-8.8-6.1-19.2-18.3-2.1-2.4-4.9-5.9-9.7-9.5-4.4-3.3-10-6.2-10.6-5.4Z"/>
    <path class="st11" d="M1224.8,1983.6c-.8,0-.8-12.5-9.5-25.1-2.3-3.3-3.9-4.3-5.3-5.6,0-1.5-.1-3.1-.2-4.7-.3-8.1-.4-12.1-.3-13.2.2-2,.5-4.3,0-7.4-.2-1-.4-1.9-.6-2.7.3-1.3.6-2.6.9-4,.8-3.9.6-13.6.2-32.8-.6-30.8-1.9-29.4-3.2-65-.6-16.3-4.3-32.4-6.3-48.7,0,0-.6-4.6-3.4-9.7-1.1-2-1.6-3-2.3-2.9-1.5,0-1.8,5.5-2.3,11.4,0-2.2-.2-4-.2-5.5,0-3.3-.4-6.7-.3-10.1,0-2.2.2-3.8-.5-5.9-1-3-3.1-4.7-3.7-5.3-2-1.7-6.9-8.8-16.7-23.1,0,0-16.3-23.7-18-35.3,0-.6-.2-1.8-.8-3.4-1.1-2.7-2.8-4.1-2.3-4.8.2-.2.4-.2,2-.2,1,0,2,0,2.9,0,3.8,0,6.5-9.1,6.5-9.1.2-.8.6-1.7,1-2.6,4.4,1.9,7.1,7.4,8.5,10.5,21.1,45.4,25.3,63.2,25.3,63.2,8.2,36.5,11.3,55.5,11.3,55.5,8.5,51.2,12.3,89.7,13.6,103,5.7,59.9,4.5,83.4,3.4,83.5Z"/>
    <path class="st11" d="M1210,1952.9c-.9-.8-1.6-1.7-2.4-3.2-3.9-7.7-1-15.3,1.3-24.7.2.8.5,1.7.6,2.7.5,3.2.2,5.4,0,7.4-.1,1.1,0,5.1.3,13.2,0,1.5,0,3.1.2,4.7Z"/>
    <path class="st11" d="M1276.4,1630.7c-1-2,18.2-15.3,19.7-13.6.9,1.1-4.5,9.3-13.1,12.4-1.5.6-6.1,2-6.6,1.1Z"/>
    <path class="st11" d="M1310.6,1852.1c-1.6.9-1.3,4.3,0,5,1.4.7,4.3-1.2,4.1-2.9-.2-1.5-2.7-2.8-4.1-2Z"/>
    <path class="st11" d="M1243.4,1829.7c-1.6.9-1.5,4.8.2,5.7,1.6.8,4.5-.9,4.5-2.8,0-2-3.2-3.7-4.8-2.8Z"/>
    <path class="st11" d="M1263,2400h-16.3c0-2.1-.6-5.3-3.3-37.1-4.4-53.2-6.7-79.8-6.3-93.7,0-3.1.3-10-.8-19.2-.7-5.7-1.3-7.6-2.2-13.8-1.3-9.3-1.3-16.3-1.4-19.7-.3-14.6-2.7-27.4-5-52.5-3.3-35.8-1.1-37.6-4.8-81.3-.9-11-1.5-16.3-2.3-28.5-1.2-17.7-1-23.3-2.5-38-.8-8.7-1.4-14.7-2.8-23.1-2.3-14.4-4.5-21-5.1-33.1,0-.8-.1-2.1-.2-3.5,1.3,1.9,3,5.4,5.6,10.5,3.2,6.3,5.1,11.7,7.5,18.6,1.9,5.3,2.8,7.9,3.4,10.4.7,2.7,1.1,5.1,1.3,7.5.1,1.2.2,2.3.2,3.5.1,6-.8,11.3-1.2,17.2-.5,7,.3,8.3,2.9,30.6,2.6,21.8,4.5,37.4,5.4,54.8,1.6,30.8-1.7,30.1,1.4,49.3,2.3,14.6,5,20,6.8,37.8,1.3,12.7.7,17.7,1.1,29.9.8,22.3,3.6,30.3,6.8,54.6,4.1,31.2.8,28.6,4.5,62.7,3.1,28.5,7,45.5,7.2,56.2Z"/>
    <path class="st11" d="M1038.6,1974c1.7.7-1.5,13-3,18.5-1.4,5.3-5.2,19.8-6.9,19.4-1.4-.2-.7-10,0-15.5,1.1-8,3-13,5.3-16.8.9-1.5,3.5-6,4.6-5.6Z"/>
    <path class="st11" d="M141.1,1759.5c-5,6.9-10.8,15.2-18.9,28-17.7,28-14.5,26.9-31.4,52.9-10.7,16.4-11.3,15.9-28.3,40.9-5.7,8.4-19.3,28.7-35.1,54,0,0-14.9,24-27.3,45.6v-12.1c5.5-9.6-2.9,3.8,7.8-13.6,17.8-28.7,26.6-43.1,38.9-62,16.4-25.1,24.6-37.7,26.3-39.2,0,0,17.3-15.5,18.4-25.2,0-.7.2-2.9,1.6-4.9,1.7-2.4,3.3-2.2,4.9-4.4,1.5-2.1.9-3.5,1.9-6.6,1.1-3.3,3-5.2,4.7-7.1,3.9-4.5,3.4-5.4,10.4-15.4,7.4-10.6,9.7-12,20.3-25.8,9.2-12,11.9-16.7,12.3-16.5.4.2-2.1,4.2-6.6,11.3Z"/>
    <path class="st11" d="M247.2,1697.9c5.9,10.3,13.8,26,20.4,46.4,1.4,4.4,2.4,7.8,8.5,32,2.5,9.9,13.5,53.7,13.1,53.7-.2,0-8.9-21-12.8-44.9-1-6.4-1.4-11-5-16-4.5-6.2-10.9-8.9-13.8-15.8-1.1-2.7-1.3-5.2-1.5-7.7-.3-3.7.2-4.4.7-4.6.9-.3,2,1.6,3.3,1.2.9-.3,1.2-1.6,1.2-1.7.4-2-1.4-3.9-2.5-5.3-1-1.2-2.2-3.8-4.6-8.9-4.2-8.9-1.1-10.2-4.9-15.8-1.3-2-4.3-5.7-3.7-7.9.4-1.5,1.1-3.3,1.1-3.3.2-.5.4-1,.5-1.3Z"/>
    <path class="st11" d="M175.6,1687c-.2.9-3,.6-5.7,1.9-1.8.9-3,2.3-3.9,3.7-8-5.8-13.4-10.2-13.4-10.2-16.3-13.2-27.2-24.9-34.7-33-13.4-14.5-21.5-23.4-27.8-35.7-4.5-8.7-9.2-21.4-9.8-27.5,0-.6-.2-2.8-1-5.5-1.1-3.9-2.3-5.7-3.3-8.3-1.5-4-1.3-7-1.3-10.7,0-2.7-1.3-11.1-4-28-.3-1.6-.5-3.2-.8-4.7,1.5.3,3.1,1,4.2,2.3,1.6,2,1.2,4.3,1.4,7.1.4,6.2,3.6,10,5.4,13.3,6.2,11,8.6,35.8,18.8,60.9,11.7,28.9,29,46.3,38,53.3,6.4,4.9,9.6,7.4,14.4,9.5,6.6,2.9,13.2,6.1,19.8,9,.7.3,4,1.7,3.8,2.7Z"/>
    <path class="st11" d="M280.5,1608.5c-1.8,1.7-2.6,2.8-3.3,4.3-.5,1.3-1.4,4.1-.5,4.6,1.2.8,4.7-4.6,12.5-10.6,5.4-4.2,8.8-5.5,8.5-6.3-.4-.9-6-.2-10.6,2.4-2.2,1.3-3.7,2.7-6.5,5.4Z"/>
    <path class="st11" d="M331.5,1539.4c.1.5,4.7-.2,7.9-.9,5.5-1.2,9.4-2.8,12.6-4.1,16.9-7,16.9-6.9,17.6-7.3,6.7-3.8,15-10,14.1-11.7-.8-1.6-8.8.3-15.3,3.2-9.7,4.4-10.1,8.6-20.3,14.1-9,4.9-16.9,6.1-16.7,6.8Z"/>
    <path class="st11" d="M1761.6,1536.1c.4,1.9,1.7,7.2-1,11.6-.3.6-.8,1.3-6.3,6.3-4.9,4.5-5.5,4.7-6.9,6.3-3.8,4.1-5.4,8-6.3,9.7-4,8.1-14,13.5-22.3,17.9-45.2,24.1-44.6,23.9-46.8,24.8-29.3,12.4-38.7,15.3-63.8,25.5-9.5,3.8-31.7,13.6-76.1,33-14.8,6.5-28.5,15.8-44,20.4,0,0-17.5,5.2-30.8,16.7-1.5,1.3-4,3.6-6,7.2-2.9,5.3-3,10.3-3.2,13.8-.3,7.8-1.3,15.5-1.9,23.3-.8,10.4-4.2,17.6-11,32.1-4.6,9.7-8.3,15.8-19.5,33.6-18.1,28.7-27.1,43.1-28.3,45,0,0-3.9,6-21.7,38.3-.2.3-2,5-5.7,14.5-.3.9-1,2.7-.9,5,0,2.2.7,3.5.9,4.4,1.1,4.8-9.2,10.8-11.6,13.5-4.4,4.8-11,12.1-20.1,20.1-5.5,4.8-14.7,12.9-28,21.1-13.6,8.3-13.6,5.8-35.5,17.6-2.6,1.4-6.8,3.7-12.9,5.7-7.7,2.4-14.4,3-18.9,3.1,0,0-3.4.1-5.1.3,0-1.1,0-2.3-.2-3.5,1.8.5,3.1.7,3.5,0,.1-.2.1-.4-2.5-5.3,0,0,11.4-2,18.2-3.7,4.2-1,11.7-3.8,26.3-9.9,20.2-8.4,20.2-8.1,24.1-10.2,9.6-5.2,16.2-10.3,18.9-12.4,3.7-2.9,9.7-7.8,16.1-15.5,5.6-6.8,8.9-12.5,11.4-17,6.6-11.7,9.8-21.5,10.8-25.1,1.7-5.4,2.4-9.5,2.8-11.1,7.2-34.5,44.6-88.3,52.6-96.2.5-.5,2.1-2,3.4-4.6,1.8-3.7,1.6-6.6,1.8-10.2.5-6.3,1.9-5.8,3.4-13.9,1.3-7.1,0-6.3,1.2-15.2,1.2-8.3,2.5-9.8,1.9-14.8-.5-4.1-1.6-5.3-.9-7.7,1.4-4.8,7.6-6.8,10.2-7.7,10.1-3.6,17.9-11.8,27.2-17,17.5-9.7,19.2-13,39.6-25.7,16.9-10.5,29.5-16.8,48.2-26.3,35.9-18,64.8-29.5,70.8-31.8,11.9-4.7,17.6-6.6,40.2-15.5,20-7.9,28.7-11.6,38.7-16.4,16.4-7.9,27.3-14.6,35.6-22,.9-.8,5.3-5.7,14.2-15.5,1.5-1.7,3.3-3.7,4.6-6.8,2.2-5.2,1.7-10.1,1.5-11.4-3-30.5,2.2-61.3-.3-91.9-4.6-54.9-.4-44.9-4.6-86.6-4.8-47.3-10.2-97.8-32.5-153.4-4.5-11.2-11.6-27.4-17.6-41.1-19-43.4-23.8-51-31.9-73.6-6.9-19.3-3.1-12.8-14.8-49.8-12.8-40.1-19.2-60.1-22.9-69.6-1.2-3.1-4.5-11.2-7.1-22.6-2-8.6-2.7-15.1-3.1-18.2,0,0-2.7-22.5-8.4-46.4-4-16.9-9-37.8-21.6-55.7-2.2-3-7.2-9.8-12.7-16.7-7.2-9-12.9-15.7-14.9-17.9-3.4-3.9-12.3-14.1-19.5-21-18.2-17.5-38.3-26-47.9-30-11.8-4.9-27.6-11.4-48.9-12.1-7-.2-15.4.6-32.2,2.2-23.6,2.2-37.2,4.6-37.7,2.5-.8-3.1,26.8-13,28.1-17.9.8-.1,1.6-.2,2.5-.2,1.8,0,2.3.3,5,.6,2.2.3,6.9.9,11,.3,4.4-.7,7.4-2.8,8.5-3.5,11.1-6.6,43,11.5,45,12.6,37.1,21,33,11.7,56,27,32.4,21.7,50.3,46.9,54.7,53.1,0,0,22.5,32.4,30.2,67.3.3,1.5,1.7,7.8,3.8,16.7,0,0,3.2,13.5,6.6,26.4,5.9,22.2,12.7,42.8,20.8,67.3,5.7,17.1,10.5,31,12.9,38,4.1,11.9,7.5,21.4,8.2,23.3,11.6,32.3,34.9,69.7,39.9,78,21,34.7,27.7,68,41.2,134.5,9.9,49.2,12.5,87.6,13.8,109.4,3.2,51.9.3,80.8,1.3,128.2.3,14-3.8,28.4-.9,42.1Z"/>
    <path class="st11" d="M1389.3,394.8c0,.7-1,11.5-3.2,33.1-2.5,24.2-4,35.3-9,48.9-1.6,4.3-3.1,7.7-4.1,9.9-1.2.2-1.2,2.4-3.4,3.1-2.1.7-4.5-.6-5.9-1.8-.6-.6-2.2-2.2-2.8-9.3-.3-2.9-.9-9.8.6-10.2,1.3-.3,3.8,5.2,4.9,7.7,2.6,5.8,3,9.5,4.4,9.5,1,0,2.2-1.8,2.5-3.7.7-4.3-3.4-6.3-7.2-15.1-1.3-3.1-1.7-4.8-1.3-6.6.5-2.1,1.8-3.1,3.7-5.3,0,0,.9-1,5.2-8,2.5-4,9.6-18.5,12.7-34.7,4.9-25.4-.9-51.1-3.3-61.4-.6-2.7-1.3-5.2-2-7.8,6.3,21.7,8.3,39.7,8.1,51.8Z"/>
    <path class="st11" d="M1378.4,334c.8,2.3,1.5,4.6,2.1,6.8.2.8.4,1.5.7,2.3l-2.8-9.1Z"/>
    <path class="st11" d="M710.5,1392.6c-.3,1.3-17.8-4.7-49.6-6.3-20-1-38.7.9-75.1,4.8-48.5,5.2-58.9,8.4-68.1,12.4-3.7,1.6-24.7,10.9-38,27.4-6.4,7.9-9.5,11.8-11.1,17.4-1.5,5.6-1.3,11-4.9,13.7.5-1.5,1-3.3,1.7-5.7,1.6-6.5,1.5-6.8,2.2-9.1,1.5-5,3.7-8.3,6-11.8,6.9-10.2,9.3-8.1,17.7-18.9,3.7-4.8,6.5-9.4,11.9-10.8,1.5-.4,2.4-.3,4.5-1.1,4.8-1.7,7.3-4.3,9.6-6,3.2-2.4,6.7-3.4,13.8-5.3,14.1-3.8,33-4.8,44.9-5.6,13-.9,6.7-.8,35.8-3.1,29.6-2.4,34.8-2.4,39.8-2.2,10,.4,15.1,1.5,31.8,4.2,10.9,1.8,18,2.8,23.4,3.5,2.6,1.2,4,2.2,3.9,2.5Z"/>
  </g>
  <g id="blush">
    <path class="st9" d="M1014.5,646.8c1.9,5.5,3.6,12.9-1.4,16.1-1.5,1-3.4,1.2-5.2,1.3-23.2,1.4-41.9-20.5-47.4-43.1-4.3-17.4-2.8-36.7,6.9-51.8,11.3-17.6,37.6-32.3,44.2-6.2,2.7,10.8-4.4,27.8-4.4,39.4,0,15,2.4,30,7.3,44.3Z"/>
    <path class="st7" d="M1084.5,701.5c3.5,0,7-.6,10.5-1.2,8.8-1.4,17.6-2.2,26.5-3,6.6-.6,13.1-1.2,19.7-.7,5.8.4,11.5,1.7,17.3,2.6,16.3,2.5,32.9,2.1,49.3.6-16.6,5.5-33.7,9.2-50.9,12.4-7.9,1.5-15.9,2.9-24,3.4-14.2.8-28.4-1.3-42-5-11.3-3.1-28.4-6.7-37.5-14,7.6-5,22.6,4.9,31.2,5Z"/>
    <path class="st15" d="M1038.5,771.1c1.6,6.2,2.9,12.4,4.2,18.7,3,14.3,6,28.6,9,43-13-36.8-21.2-74.9-33.2-111.9,8.5,16.1,15.5,32.6,20.1,50.3Z"/>
    <path class="st8" d="M1120.1,510.8c-3.7,4.3-7.3,8.5-11,12.8-2.4,2.8-5,6-5.1,9.7-.1,3.6,2.1,7,5.1,8.9,3,2,6.6,2.7,10.2,3.1,7.2.6,14.6-.5,21.3-3.2,2.5-1,5.1-2.2,7.8-1.8,3.4.5,5.8,3.6,8.7,5.4,4.2,2.5,9.8,2.3,13.8-.5s6.1-8.1,5-12.9c-.5-2.6-1.9-4.9-3.2-7.2-1.7-2.9-3.5-5.7-5.3-8.5-1.4-2.2-3.3-4.6-5.9-4.6-1.3,0-2.5.5-3.6,1.1-3.3,1.8-6.4,4.1-9.9,5.6s-7.8,1.7-10.9-.4c-7.2-5-7.4-18.8-17.1-7.5Z"/>
    <path class="st2" d="M1159.9,495.5c0,2.8,0,5.7,1.4,8.2,2.6-3.9,3.5-8.7,4.1-13.4,1-7.6,3.1-18.4.9-25.7-7.7.8-6.4,25-6.4,30.9Z"/>
    <path class="st1" d="M1215.1,455.2c4.7.6,9.3,1.8,14,1.4,5.4-.5,10.5-3.1,15.9-3.3,9.4-.4,18.3,6.2,27.6,5.1,3.9-.5,7.6-2.3,11.4-3.2s8.4-.7,11.1,2.2c.1,3.3-3.3,5.4-6.4,6.5-3.1,1.1-6.7,2.2-7.9,5.2-.6,1.3-.5,2.9-1.2,4.2-1.1,2.2-3.6,3-6,3.7-9,2.7-18.3,5.4-27.6,4.5-12.6-1.2-25.6-8.7-37-3.3,11,6.4,22.2,15.1,24.7,27.6,1,5.2.4,10.6-.5,15.8-4,22.9-13,44.6-18.2,67.3-.6,2.6-1.1,5.2-.7,7.8.6,3.6,2.9,6.6,5.4,9.1,12.4,12.2,33.3,14.5,48.1,5.4,17.2-10.5,23.5-31.9,34.3-48.9-6.8,19.1-13.6,38.8-12.3,59,.6,8.9,2.6,18.3-1.6,26.2,26.5-40.5,26-93.6,49.6-135.9,3.6-6.5,7.9-13.1,7.9-20.5,0-6.9-3.9-13.2-5.8-19.9-5.4-18.2,3.3-39.4-5.5-56.2-5.6-10.7-18.2-17.3-30.2-15.8-2.6.3-5.1,1-7.3,2.3-1.3.8-2.4,1.8-3.8,2.5-2.8,1.5-6,1.6-9.1,1.7-20.4.9-41.1,4.3-59.2,14-9.7,5.2-18.4,12.1-26.5,19.5-5.9,5.4-14,11.3-18.6,17.5,11.8,0,23.3-3,35.3-1.3Z"/>
    <path class="st3" d="M969.9,411.3c-.5.8-1.2,1.3-2.2,1.3.7-.5,1.5-.9,2.2-1.3Z"/>
    <path class="st4" d="M1114.9,452.6c-2.2,1.1-4.7,1-7.1.9-12.2-.6-24.2-2.8-35.8-6.5,1.9,2.3,1,6-1.1,8.1-2.1,2.1-5,3.1-7.9,4-5.9,1.9-11.8,3.8-17.8,5.7,11.2.7,22.3,2.5,33.1,5.4-9.7,7.4-16.7,18.2-19.4,30-1.9,8.1-1.8,16.5-3.7,24.6-1.9,7.8-5.6,15.1-9.5,22.1-4.4,7.8-9.3,15.4-14.5,22.8-5.9,8.2-13.3,16.8-23.4,17.9-10.1,1.1-20.1-5.9-30-3.4-4.4,1.1-9.1,4-13.1,1.9-2.8-1.5-4-4.8-4.9-7.9-4-13.5-8-27.1-9-41.1-.3-4.4-.3-8.8-.6-13.2-.3,1.3-.7,2.5-1.1,3.8-1.5.1-2.5-1.4-3.6-2.5-2.1-2.1-5.5-2.8-8.3-1.6-2.7,1.2-4.6,4.2-4.4,7.2,0,1.7.5,3.8-.9,4.7-1.2.7-3.3,0-3.9,1.4-.4.8.1,1.6.4,2.4.8,2.7-1.4,5.4-3.8,6.8-2.4,1.4-5.3,2.2-7.3,4.1-2,1.9-2.7,5.8-.4,7.3-9.5-5.7-16.4-15.7-18.3-26.7-1.8-10.5.8-21.1,2.2-31.5.5-3.5-.8-12.9.9-15.7,2.7-4.4,7.7,0,11.5,1.4,6.8,2.7,14.6,1,21.6,3.1,3.3,1,6.3,2.9,8.7,5.3-.3-2.6-.3-5.2.1-7.9,1.8-9.8,10-17.4,12.1-27.1,2.1-9.2-1.6-18.6-3.2-28-1.6-9.3,0-20.8,8.5-25,2.6-1.3,6-1.6,8.1.4,1.4,1.3,1.5,3.7.5,5.2-.7.4-1.5.9-2.2,1.3,1,0,1.7-.6,2.2-1.3,8.5-5.2,17.1-10.2,25.8-15.2,2.9-1.7,6.1-3.4,9.4-2.9,2.8.3,5.2,2.1,7.8,3.2,4.5,1.8,9.5,1.6,14.3,1.6,16-.2,33.8.6,49.2,5.4,13.2,4.1,24.7,16.3,34.4,25.5,3.4,3.3,6.9,6.8,8.3,11.4,1.4,4.5,0,10.3-4.2,12.4Z"/>
  </g>
  <g id="lip">
    <path class="st5" d="M1185.7,611c-.3.4-.7.8-1,1.2-8-8.5-20.6-11.7-30.9-17-.3,0-.6,0-1,.1-7.1-3.8-15.2-5.7-23.2-4.9-4.2.5-8.8,0-12.8,1.4h0c-.4-.3.4.3,0,0,0-.6-3.6.4-5.4.8-11.2,2.3-23.1,7.9-33.9,11,.2-.1.5-.2.7-.4.4-.2.9-.8.3-1.1-1.2-.2-2.6-.1-3.7-.6,2.3-2.4,5.3-4.5,7.6-6.4,4.1-3.8,8.9-9.4,12.5-13.1,9.3-8.9,20.3-12.7,31.8-13.1,2.9-.1,5,0,6.5.8,2.1,1.2,4.7,2.5,7.2,2.7,3.3.4,5.5-2.6,8.2-3.7,15.9-4.5,29,14,34.9,24.4,1.7,2.9,2.9,5.2,3.8,6.5.4.7.8,1.4.8,2.3-.1,1.5-1.2,3-1.5,4.6,0,1.3.3,3.2-.8,4.4Z"/>
    <path class="st5" d="M1184.6,612.2c-2.1,2.4-4.4,4.8-7.3,6.3-3.8,1.9-8.6,2.9-12.5,3.3-7.8,1-13.2.3-24.3-.7-8.4-.8-17.3-1.8-25.7-2.5-6.9-.6-15.4-1.6-21.6-3.5-3.8-1.2-6.6-2.6-10.6-4.6-2.2-1.1-4.2-2-6.3-3.2-1.8-1.1-2.7-1.8-3.1-2.7.8-.2,1.6-.3,2.4-.5.6,0,1.2-.2,1.8-.5,10.9-3.1,19.5-7.7,30.7-10,1.9-.4,6.7-2.7,8.6-1.8.4.3-.4-.3,0,0h0c7.1,4.4,15.8,5.1,23.9,5.5,3.2.1,6.6.6,9.7-.7.9-.4,1.6-1.1,2.4-1.4.3-.1.6-.2,1-.1,10.3,5.3,22.9,8.5,30.9,17Z"/>
    <path class="st16" d="M1077.4,603.6c-.6.2-1.2.3-1.8.5"/>
  </g>
  <g id="details_black">
    <path class="st12" d="M712,1567.4c-.8,3.4-1.8,6.2-5.8,16.3-5.3,13.1-8,19.6-10.2,23.7-3.2,5.9-4.8,7.7-6.6,13-1.7,4.9-1.4,6.6-3,12.5-1.3,4.6-2,5.4-5.8,14.5-4.9,11.6-4.2,11.6-7.9,19.8-3.7,8.3-4.2,7.9-6.6,14-3.1,7.9-2.2,8.4-5.3,16.5-3.1,8.2-4.1,7.9-7.4,16.8-1.7,4.5-1.5,4.7-4.1,11.9-2.1,5.9-3.2,8.9-4.8,12.2-1.3,2.7-2.2,4.1-3.6,7.4-1.5,3.7-2.4,6.5-2.5,7.1-3,9.8-30.8,71.9-39.7,92.8-4.1,9.5-.9,2.8-24.4,67.6-14.6,40.4-22,60.6-25.4,68.9,0,0-18.4,44.2-46,94.1-8.6,15.5-16.9,31.1-25.7,46.5-1.8,3.1-4.3,7.6-7.6,14-4.7,9.1-5.6,11.9-12.5,26.4-5.1,10.9-7.7,16.4-10.4,21.1-3.9,6.8-5.5,8.7-9.4,16.3-2.9,5.6-3.3,7.1-6.6,13.5-4.3,8.5-5.3,9.3-8.1,14.8-1.4,2.8-3,6-11.7,31.5-4,11.7-4,11.9-5.1,14.5-3.2,7.5-6.3,12.7-12,22.4-3.2,5.5-6.1,10.3-10.4,16.3-3.2,4.5-6.4,8.4-6.4,8.4-4.5,5.6-4.9,5.6-6.4,7.9-2.8,4.4-2.3,6.5-4.6,13.7-1.1,3.6-2.9,7.5-6.4,15.3-5.3,11.8-5.7,10.8-7.1,15.5-2.3,7.5-1.2,9.4-4.1,15.8-1.9,4.2-4,7-6.1,9.7h-11.3c0-.3.1-.6.2-.8,2.3-11.7,7.7-19.5,11.1-24.9,3.2-5,7.1-13.1,14.9-29.1,8.5-17.5,10.6-24,18.5-34.8,2.6-3.6,3.2-4,6.4-8.5,1.2-1.7,9.1-13,14.9-24.9,7-14.3,4.1-15.6,10.7-32,7.2-17.8,10.3-15.5,17.8-34.1,5.4-13.3,4.7-16.8,11.4-31.3,4.3-9.4,9.3-18.1,10-19.2,3.6-6.3,5.3-8.7,7.8-12.8,6.7-11.1,9.3-19.1,12.8-27.7,9.6-23.5,13.6-21.2,24.9-46.9,6.3-14.3,5.4-15.8,12.8-32,6.2-13.7,9.4-18.1,14.2-27.7,9.5-18.9,9.7-26.7,18.5-52.6,6.5-19.1,6.1-14.3,22-54.7,9.9-25.2,10.4-28,23.5-61.8,9.8-25.4,14.7-38.1,18.5-46.9,11.3-26.2,13.1-26,38.4-78.9,9.1-19.1,8.4-18,18.5-39.1,3.7-7.8,8.3-17.3,14.2-30.6,5.4-12.2,8.2-18.4,10-24.2,2.7-8.7,2.8-12.2,6.4-19.9,1.9-4,4-7.7,7.8-14.2,4.3-7.4,4.7-7.5,7.1-12.1,3.2-6.1,5.3-11.3,6.4-14.2,2.5-6.3,3.2-10,3.5-10,.5.1-.3,6.8-1.9,13.4Z"/>
    <path class="st12" d="M353.2,2397.6c.3.1,2.6-5.1,9.2-17.8,7-13.6,7.3-13.4,10.4-20.1,5.3-11.2,8.6-20.5,9.7-23.4,3.5-9.9,3-10.6,6.4-19.1,1-2.4.7-1.6,7.4-16.8,3.7-8.4,4.6-10.4,6.4-14.2,2.7-5.7,6.2-12.8,6.4-12.7.3.2-13.9,33.9-31.5,68.9-2.1,4.1-7.4,14.6-13.7,29-5.6,12.8-10.9,26-10.4,26.2Z"/>
    <path class="st12" d="M442.7,2156.3c-.1,0,1.1-2.3,2.8-6.6,1.4-3.5,2.6-6.5,3.6-10.4,1.2-4.8.7-5.6,2-8.9.2-.5,1.2-2.8,3.1-5.6,2.5-3.7,3.3-3.3,4.3-5.6.8-1.8,1-4.1,1.3-8.6.2-2.9.1-4.8.2-4.8,0,0,.2,1.9.4,10.6-.4,3-1.3,4.9-2.2,6.1-1.1,1.6-1.9,1.9-3.6,4.1-.2.3-1.5,2.1-2.6,4.3-1.3,2.8-1.2,4.3-2,7.9-1.1,5.3-2.7,9.1-3,9.9-1.8,4.4-4.1,7.7-4.3,7.7Z"/>
    <path class="st12" d="M487.2,2069.6c-.3-.1,4.6-13.8,11.3-28.3,3.4-7.2,4.1-8.1,6.5-14,3.1-7.6,3.4-10.1,6.5-14.6,2.7-3.9,4-4.2,5.4-7.4,1.9-4.6,1-7.5,1.5-11.9,1-8.7,6.6-14.7,6.8-14.6.2,0-2.2,3.8-3.9,10.2-1.8,6.5-.4,6.4-1.9,11-1.8,5.5-4,6.3-8.4,15.7-.8,1.7-1.3,2.9-1.8,4-4.6,10.9-21.6,50-22.1,49.8Z"/>
    <path class="st12" d="M585.8,1828.2c-3.4-1.7,32.6-85,55.9-131.7,4.7-9.5,7.3-14.1,28.9-57,10.5-20.9,11.1-22.1,11.4-22,2.4.9-5.8,15.6-47.5,100.3-6.1,12.4-48.6,110.3-48.6,110.3Z"/>
    <path class="st12" d="M981.8,1458c6.5-13.8,57.4-8.1,59.7,3.9.5,2.4-2.4,7.3-8.1,16.9-2.7,4.6-4.8,7.7-5.6,8.9-7.7,11.8-6.4,20.3-11.7,37-6.5,20.3-13.1,22.2-10.6,28.6,2.8,7,10.8,4.7,33.6,16.7,4.9,2.6,5.8,3.4,20.6,11.4,7.6,4.1,12.9,6.9,20.6,9.2,4.8,1.4,8.9,2.1,8.9,2.2,0,.3-9.6,0-19.7-3.1-7.9-2.4-8.7-4.3-23.1-11.7-13.8-7.1-11.8-4.7-24.2-11.1-11.5-6-15.1-9-18.6-7.2-5.5,2.8-3.9,14.2-9.2,15.3-1.9.4-4.4-.5-6.1-1.1-1.6-.6-3.6-1.3-3.6-2.2,0-1.4,4.1-2.5,5-2.8,14.4-4.6,14.4-53.9,28.3-72.5,1.4-1.8,5.3-6.6,3.9-10.8-1.1-3.5-5.1-4.8-5.6-9.4-.2-2.1.5-3.1-.3-3.9-1.4-1.4-4.6,1.4-9.4,2.2-8,1.4-12.5-4-16.4-1.4-2.3,1.5-2.6,4.7-2.8,6.1-1.7,13.9-5.7,5.8-14.7,52.2-4.3,22.4-5.3,34.1-10.6,35-1.8.3-4.5-.6-5.8-2.5-2-2.9-.1-7.3.6-8.9,4-9.7,6.3-20,10.3-29.7,3.8-9.3,6.2-17.2,10.8-32.8,2.1-7.1,3.1-11.1,3.6-16.4,1-11.3-1.8-14.2,0-18.1Z"/>
    <path class="st12" d="M952.6,1565.6c-1.5-7.6-14.4-9.8-20.3-11.6-7.1-2.2-12-4.5-14.4-4.8-15.1-1.9-24.1-6.3-34.7-10-33.2-11.5-140.7-35.9-153.7-38.9-13.8-3.1-79.8-18-131.4-26.4-29.5-4.8-44.3-7.2-53.4-7.2-16.3,0-33,1.8-34.5-3.1-.5-1.6.9-2.9,7.8-10.8,4.6-5.2,9.1-10.6,13.6-15.8,2.6-3,1.3-1.7,15.3-20,32.6-42.8,8.5-9,19.5-23.1.9-1.1,2.3-2.9,4.7-4.4,5.8-3.6,12.3-2.4,16.1-1.9,0,0,8.8-.9,26.1-2.8,13.8-1.5,46.6-6.8,47-12.8.7-11.3-55.2-41.7-85.3-22-10,6.5-18.7,19.8-15.6,25,2.2,3.6,9,2.1,22.2,1.1,29.3-2.2,54.1.4,54.2,1.4,0,.6-7.6,1.5-13.6,1.9-20.5,1.6-26.3-1.6-42.2,0-12.7,1.2-9.8,3.3-23.6,4.7-10.4,1.1-20.7,3.4-31.1,4.2-2.5.2-7.2.5-8.6,3.3-1,2-.3,5,1.4,5.8,1.5.8,2.9-.5,6.4-1.9,5.3-2.2,9.8-2.5,13.1-2.8,5-.4,8-.6,8.9.8,2,3.1-7.5,11.5-14.7,20.3-22.5,27.2-35,57.2-35,57.2-4.5.3-9.6-3-14.2.3-1.6,1.2-4.9,5.5-3.1,5.3,6-.8,20.6-.2,20.6-.2,0,0,4.1-10.4,8.1-10.8,1-.1,1.2.8,2.4,1.3,3.9,1.6,8.6,2.5,12.9,2.7,37.5,1.7,27.3,2,41.5,3.7,5.5.7,12.5,1.4,26.2,3.6,44.8,7.3,67.3,10.9,68.2,11.1,35.4,6.5,68.1,14.6,132,30.7,74.9,18.8,115.9,32.7,132.3,37,8.5,2.2,15.6,3,29,12.1.6.4.3-1.3,0-2.2Z"/>
    <path class="st12" d="M277.6,1616.4c.4-8.5,14.8-12.8,28.6-20.9,12.3-7.3,8-8.1,32.8-27,9.6-7.4,8-5.5,23.2-16.8,17.6-13,33.6-25.8,34.3-26.3,7.9-6.3,12.1-9.5,20.6-16,10-7.6,13.2-9.9,18.3-12.2,4.5-2,6.6-2.3,14.1-5.7,5.9-2.7,8.6-4.4,9.1-3.8.8,1-4.6,7.1-9.9,11.8-9.8,8.7-19.1,12.7-23.6,14.9-9.8,4.6-21,14-43.4,32.8-11.5,9.6-20.4,17.9-27.4,24.4-10.4,9.6-12.4,11.9-23.6,22.1-15.1,13.7-22.7,20.5-26.3,21.7-1.4.5-6.1,1.8-8.8,6.1-1,1.6-.7,2-1.5,3.8-2.5,5.4-6.9,5-12.9,10.7-4.3,4-5.4,7.3-7.2,6.9-1-.3-1.7-2.1-3-5.7-1.2-3.1-1.8-4.7-1.5-5.7.8-3.1,4.9-2.9,7.2-6.5,2-3,1-6,1.1-8.4Z"/>
    <path class="st12" d="M246.8,1697.1c.9-.7,5.4,2.6,8.8,6.5,5.8,6.8,6.9,13.7,8.8,20.6,3.1,11.5,6.4,15,10.7,25.1,10.7,25.3,21.4,77.4,30.1,110.1,7.1,26.6,17,51.9,36.9,102.4,8.7,22,17.2,43.7,30.1,72.7,14,31.6,28.5,61.4,33.5,82.6.5,2.2,6,26,9.1,33.9.1.3,1.5,3.7,2.7,8.4.7,2.8,1.1,4.3,1.1,6.1.1,4.5-1.6,9.8-3.4,9.9-2,0-3.9-6.4-5-10.3-1.4-5-2.1-7.5-2.3-12.9-1-28.9-32.7-86.1-32.8-86.1-36.8-66.3-60.2-143.6-64.7-158.8-17-56.2-23.2-85.3-23.2-85.3-1.2-5.3-5.5-25.7-12.6-51.4-.8-3-4.8-17.2-11-35-4.1-11.7-6.2-17.7-9.5-24-4.2-8.1-8.2-13.6-7.2-14.5Z"/>
    <path class="st12" d="M175.9,1715.8c.4.3-6.6,8.1-19,24.8-12.1,16.3-20.6,29.3-32.8,48-19.3,29.6-24.9,40-25.5,39.6-1-.6,15.9-29,37.1-59.6,21-30.4,39.6-53.3,40.2-52.8Z"/>
    <path class="st12" d="M1114.4,1659.4c-4,1.5-7.7,2-9.4,3.4-3.5,3.1-8.6,16.6-8.6,16.6-1.5,8-3.7,20.2-6.3,34.9-15,85.3-22.5,127.9-25.2,152.4,0,0-6.7,61.3-18.3,87.7-8.9,20.2-9.2,20.6-9.2,20.6-4.7,8.8-8.2,13.4-9.7,21.8-1.2,6.5-1,14,.6,14.3,1.2.2,2.3-6.7,8.2-25.2,1.6-4.4,5.4-8.1,8.2-16.1,8.9-25.2,16.2-46.3,17.3-49.4,6.5-19.1,6.6-30.2,14.8-92.7,0,0,7.7-58.6,21.8-117,4.3-17.8,7.3-34.4,14-44.1,5.6-8.1,12.4-10.7,12.4-10.7,0,0-2.6.4-10.7,3.4ZM1091.4,1732.8l-13.7,75.7-3.7,23.5-7.2,56.5-5.2,27.6-13.4,38.3,12.8-49.6,9.3-67.1,9.5-56,4.9-27.8,12.1-52v-.3c0,0-5.3,31.3-5.3,31.3Z"/>
    <polygon class="st12" points="1096.8 1701.4 1091.4 1732.8 1077.7 1808.4 1074 1831.9 1066.8 1888.4 1061.6 1916 1048.2 1954.2 1061 1904.7 1070.3 1837.5 1079.8 1781.5 1084.7 1753.7 1096.7 1701.7 1096.8 1701.4"/>
    <polygon class="st12" points="1096.8 1701.4 1091.4 1732.8 1077.7 1808.4 1074 1831.9 1066.8 1888.4 1061.6 1916 1048.2 1954.2 1061 1904.7 1070.3 1837.5 1079.8 1781.5 1084.7 1753.7 1096.7 1701.7 1096.8 1701.4"/>
    <path class="st12" d="M1245.6,1560.9c-1.1-5.2-5.2-8.3-40-23.3-12.4-5.3-28.5-12.1-29.4-10.3-1.1,2.1,20.4,12.3,18.5,20.6-.6,2.6-3.4,4.8-6.1,5.2-2.4.3-4.4-1.1-8.2-4.2,2.2,2.7,3.7,5.5,3.1,8.1-.4,1.8-1.8,3.7-3.5,3.9-4.6.6-8.8-11.8-10.1-11.2-.9.4-.2,6.9,3.9,12.1,2,2.5,4.1,3.8,3.9,3.9-.3.5-22.9-15.4-23-15.2,0,.2,5.1,4,12.7,9.7l8.2,9.7c2.6,2.1,6.6,6,7.3,11.5.6,5-1.8,8.8-4.6,13.3-6.4,10.7-13.4,23.8-17.3,32.4-5.4,12-5.9,18.2-9.4,18.5-3,.2-4-4.3-13-14.5-5.9-6.7-10.5-10.3-13.3-12.4-4.3-3.2-10.7-7.1-11.2-6.4-.8,1,10.3,9.3,24.6,25.8,5.2,6,7.8,9,10.9,13.6,7,10.3,7.1,14.2,11.5,17.3,7.2,4.9,18.1,2.5,24.6-.6,15.2-7.3,18.9-26.6,26.4-65.2,1.5-8,3.2-18.7-2.4-27.9,0,0,0-.1-.1-.2-4.3-4.1-7.3-8-8-8.8.8.7,5.1,4.2,8,8.8,5.3,5.1,12.8,10.3,19.8,9.3,9.4-1.4,18.4-14.1,16.4-23.7ZM1201.4,1566.5c0,0-.1-.1-.1-.1,0,0,0,0,.1.1ZM1201.3,1581.3c-1.9,17.4-5.2,25.2-5.2,25.2-12,28.8-11.2,31.5-18.8,43.4-5.3,8.4-10.4,16.1-15.2,15.2-3.9-.8-6.6-7.1-6.7-12.1,0-3.7,1.3-6.5,4.6-11.8,5.1-8.5,8.6-13,10.9-16.4,4.5-6.7,6.6-13.5,10.9-27.3,3.9-12.5,4.8-19.4,10.9-22.7.6-.3,4.7-2.5,7-.9,2.1,1.5,1.8,5.4,1.5,7.6Z"/>
    <path class="st12" d="M1179.9,1548.5c-8-6.4-12-9.7-12-9.7.1-.2,7.9,4.6,12.4,10.1-.1-.1-.3-.2-.4-.3Z"/>
    <path class="st12" d="M1201.3,1581.3c-1.9,17.4-5.2,25.2-5.2,25.2-12,28.8-11.2,31.5-18.8,43.4-5.3,8.4-10.4,16.1-15.2,15.2-3.9-.8-6.6-7.1-6.7-12.1,0-3.7,1.3-6.5,4.6-11.8,5.1-8.5,8.6-13,10.9-16.4,4.5-6.7,6.6-13.5,10.9-27.3,3.9-12.5,4.8-19.4,10.9-22.7.6-.3,4.7-2.5,7-.9,2.1,1.5,1.8,5.4,1.5,7.6Z"/>
    <path class="st12" d="M1209.4,1575.3c-4.3-4.1-7.3-8-8-8.8.8.7,5.1,4.2,8,8.8Z"/>
    <path class="st12" d="M1102.8,1616.1c1-.1,1.3,4.1,6.1,13.9,3.2,6.7,5.4,9.5,4.5,10.3-1,1-5.8-1.4-8.8-5.2-5.7-7.3-3.5-18.9-1.8-19.1Z"/>
    <path class="st12" d="M1181.5,418c.4.9,3.2,0,10.2-.9,3.6-.5,1.7,0,13.1-1.2,11.9-1.1,12.4-1.4,16.6-1.5,5.9-.1,6,.4,9.9,0,5.7-.6,7.7-1.9,12.8-3.2,2.5-.6,8-.9,18.9-1.5,12.8-.6,14.9-.6,17.4-.3,5.9.6,9.4.8,13.4,2.9,3.8,2,7.5,5.4,9,6.7,1.8,1.6,2.9,2.8,5.5,4.9,2.3,1.8,5.6,4.6,6.1,4.1.5-.5-2-3.8-6.4-9.9-2.7-3.7-4.1-5.6-6.1-7.9-1.2-1.4-3.5-3.9-6.7-6.7-1.1-1-5.8-5-10.5-7.3-5.4-2.6-9.9-2.4-18.6-2.3-24.8.2-24.7-1.6-36.9,0-6.5.8-11.6,2-16.9,3.2-6,1.4-12.5,2.9-20.4,5.8-8.8,3.3-15.9,7.2-15.7,7.7.3.8,16.9-5.9,17.7-4.2.8,1.6-13.5,9.3-12.5,11.3Z"/>
    <path class="st12" d="M1308.6,451l-5-6-2.2-.6s-.7,1.2-7.1,2.7c-6.4,1.5-14.9-1.5-14.9-1.5-38.7-10.5-57.7-2-58.4-1.6,18.4-4.9,38.9-.2,49.4,3.4,10.6,3.6,5.9,4.5,5.9,4.5,0,0,2.4-.9-35,.6-36.9,1.5-53.7,10.7-54.2,10.9,17.8-6.6,30.5-6.5,36.7-7.2,6.2-.7,2.4,10,2.4,10l-6,.6s2.8.4,4.7.7c1.9.3,8.8,3.7,14.4,3.7s8.3-1.6,8.3-1.6c0,0,9.3-7.1,10.5-7.5,1.2-.4,2.9,1.3,2.9,1.3,0,0,12,4.4,15.9,4.5,4,.1,9.7-3,9.9-3.3s9-5,9.5-5.6c.6-.6,2.4-1.2,2.7-3.3.2-2.1,1-3.5,2-4.5,1-1,2.7-.5,2.7-.5,0,0,4,2.2,6.2,2.7,2.2.5-1.2-2.5-1.2-2.5ZM1235.9,463.3c-.8,0-1.5-.6-1.5-1.4s.2-.7.4-1c0,0-.2,0-.2,0-1.1,0-2-.9-2-2s.9-2,2-2,2,.9,2,2-.3,1.2-.8,1.6c.8,0,1.4.6,1.4,1.5s-.7,1.4-1.5,1.4ZM1285.4,453.3c-1.4.2-2.8,2.4-2.8,2.4,0,0-12.2,1.1-14.8,1.2-2.4.1-6.5-1.5-7.3-1.5.9-.1,6.2-.8,7.8-.9,1.7-.1,9.1-1.8,11-2.1,2-.3,7.2-.9,7.2-.9l3.8,1.6s-3.6,0-5,.2ZM1293,454.2c-.8,0-1.4-.6-1.4-1.4s.6-1.4,1.4-1.4,1.4.6,1.4,1.4-.6,1.4-1.4,1.4Z"/>
    <path class="st12" d="M1260.4,455.4s0,0,.1,0c0,0-.1,0-.1,0Z"/>
    <path class="st12" d="M1260.4,455.4s0,0,.1,0c0,0-.1,0-.1,0Z"/>
    <path class="st12" d="M1210.3,473.1l20.5.9s27.5,1.3,28.9,1,7.1.1,9.5-.8,3.8-1.2,5.1-2.1,1.4.6,1.4.6c0,0,7.6,2.4,8.4,3.5s-7.3-3-9.7-2.6-1.6.9-1.6.9l2.7,2.4s-1.3-2.1-4.8-1.7-6.1.9-5,2c1,1,4.7,4.2,4.7,4.2l-5.8-2.9-2.9-1.7-29.6-1.5-21.8-2.2Z"/>
    <path class="st12" d="M1234,479.1c.5-.1,18.2,1.4,23.9.3,5.7-1-.3,2.6-9.7,1.7s-14.2-2.1-14.2-2.1Z"/>
    <path class="st12" d="M1086.2,452.2c-1.4-.3-5.9-3.8-12.5-6.4-6.6-2.6-37.4-1.7-36.7-2.8.7-1-2.9-1.7-2.9-1.7l-9.7.3-21,1.2s-3.5-2.6-4.2-2.6,6.2-1.4,6.2-1.4l18.5-4.5,11.3-3.5s-9.5.2-15.1.7c-5.5.5-17.8,2.4-17.8,2.4,0,0-32.7,6.8-33.3,6.8,0,0,12.7,2.4,16.1,2.6,3.5.2,2.1-1.6,11.4-2.2,9.4-.7.5,4.5.5,4.5l-8.1.7h-11.3s33.3,15.8,45.7,14.7c12.5-1,24.6,1.4,24.6,1.4,15.8.2,12.8-2.6,18-4.5,5.2-1.9,5.9-5.4,5.9-5.4v-4.7l6.8,2.1s6.9,3.3,11.6,4.7c4.4,1.3,10.4-1.3,11-1.5-3.5,1-13.8-.5-15.2-.9ZM1034.3,453.5c-.7,1.2-.8,1.5-1.9,2.6s1.2,1.6-.2,3c-1.4,1.4-10-1.4-10-1.4l-6.1-1.9-4.9-1.2h13.7l3.1-.3,1.7-2,2.4-.7h1s1.7.8,1,2ZM1050.6,456.8c-1.7,0-3-1.2-3-2.7s1.4-2.7,3-2.7,3,1.2,3,2.7-1.4,2.7-3,2.7ZM1057.7,455.7c-.9,0-1.6-.7-1.6-1.6s.7-1.6,1.6-1.6,1.6.7,1.6,1.6-.7,1.6-1.6,1.6ZM1060.9,453.8c-1.1,0-2-.7-2-1.7s.9-1.6,2-1.6,2,.7,2,1.6-.9,1.7-2,1.7Z"/>
    <path class="st12" d="M1014.5,438.9s8.5-3.3,11.1-2.1-10.4,2.9-10.9,2.9-.2-.9-.2-.9Z"/>
    <path class="st12" d="M1047.4,430.8c-.8,0,21.7-2.6,55.8,18.7,0,0-36.7-18.5-55.8-18.7Z"/>
    <path class="st12" d="M1013,463.2c.4.4,3.5.9,3.5.9l3.8,3.3s-1.7-3.6-2-4-5.2-.2-5.2-.2Z"/>
    <path class="st12" d="M1027.5,467.7s9.7.9,13.3-1.4h-9.9l-3.5,1.4Z"/>
    <path class="st12" d="M1120,529.9c-.8.3-1.6.8-1.8,1.6-.2,1,.7,1.9,1.6,2.4.9.5,1.9.9,2.9.8.8-.1,1.5-.7,2.2-1.1,1.6-1.1,3.4-1.9,5.3-2.6.5-.2,1.1-.5,1.1-1,0-.2-.2-.4-.3-.6-.3-.4-.6-.8-1-1.2-.3-.3-.5-.6-.9-.8-.5-.3-1.2-.2-1.8-.2-2.8.4-4.8,1.7-7.4,2.6Z"/>
    <path class="st12" d="M1154.5,531.7c0,.6.1,1.2.3,1.7.4,1.3.9,2.6,1.7,3.7.8,1.1,1.9,2.1,3.1,2.5.2,0,.4.1.6,0,.3,0,.5-.3.7-.5.5-.5.9-1,1.4-1.5.7-.7,1.4-1.6,1.5-2.5.2-1.3-.6-2.6-1.5-3.5-.9-.9-3.4-4.2-4.5-4.3s-3.3,3.1-3.4,4.4Z"/>
    <path class="st12" d="M1175.1,528.4c1.3,2.6,2.6,5.4,2.6,8.4,0,2.9-1.6,6.1-4.4,7,2.9-2.3,3-6.7,1.9-10.2-1.4-4.5-4.2-8.4-6.4-12.6-.5-1-2.9-4.7-2.6-5.8.6-1.9,2.4,1.5,2.8,2.1,2.2,3.6,4.3,7.3,6.2,11.2Z"/>
    <path class="st12" d="M933.2,541.7c.8.9,1.5,1.9,1.8,3.1.1-1.1,0-2.2-.4-3.1-.8-1.7-2.5-2.6-4.1-3.4-.5-.2-1.5-1-2-.5s0,1,.3,1.2c1.4,1.1,3,1.5,4.3,2.8Z"/>
    <path class="st12" d="M929.7,504c-.3-.1-.7,0-.9.3s-.3.6-.3,1c0,.5.1,1,.5,1.2.5.3,1.1,0,1.5-.5.4-.4.7-.9.5-1.4-.2-.3-.5-.5-.8-.4s-.6.2-.9.4"/>
    <path class="st12" d="M934.9,498.1c0-.1,0-.2,0-.3,0-.2-.2-.4-.4-.5s-.4,0-.7-.1c-.4,0-.7-.1-1-.4s-.4-.7-.1-1c.1-.2.4-.2.6-.3.7-.1,1.6,0,2,.5.3.3.3.8.3,1.2,0,1.2-.4,3-1.5,3.7-.6-.6.6-2.2.8-2.9Z"/>
    <path class="st12" d="M958.2,304c1.9-2.2,3.7-4.5,5.6-6.7,9.1-11,18.3-22,28.2-32.2-2.5,0-4.6,1.9-6.4,3.7-7.6,7.6-14.8,15.7-21.4,24.2s-6.6,8.7-9.7,13.2-8.4,10.1-7.9,13.4c4.3-4.3,7.6-10.7,11.6-15.5Z"/>
    <path class="st12" d="M1158.8,273.7c0,.8,0,1.5-.1,2.3-.3,1.3-1.3,2.3-1.4,3.6,0,1.1.4,2.1.4,3.2,0,1.7-1.3,3.1-1.4,4.8-.2,2.7,2.4,4.6,4.7,6-2.5-4.2-2.9-9.5-1.6-14.2.6-2.2,1.6-4.3,1.8-6.6.1-1.4,0-2.8,0-4.1,0-2.5.3-4.9.9-7.3-3.1,1.9-3.3,9.1-3.3,12.4Z"/>
    <path class="st12" d="M1354.5,526.7c-1,1.7-1.4,4.3-2.1,6.2-.7,2.1-1.5,4.2-2.3,6.3-1.5,4-3,8.3-5.1,12.1-.3-1.5.5-3.7,1-5.2.6-2.3,1.4-4.5,2.2-6.8,1.7-4.4,3.8-8.7,6.2-12.8Z"/>
    <path class="st12" d="M1058.9,848.8c-.3-1.5-1.1-2.9-1.8-4.3-4.5-9-7.2-18.7-11.2-27.9-4.8-11.1-11.7-21.8-12.7-33.9-.3-3.7-.2-7.7-2.4-10.7.6,15.6,4.4,31.2,11.1,45.3,1.3,2.7,2.7,5.4,4,8.2,1.9,4.1,3.6,8.4,5.3,12.6,1.1,2.9,2.3,5.7,3.4,8.6.6,1.5,1,2.8.9,4.5,0,.7-.6,2.5,0,3.1,2.4,2,3.5-4.2,3.2-5.4Z"/>
    <path class="st12" d="M1026.6,743.5c-.2-1-.4-2-.7-3-.4-1.2-1.1-2.4-1.7-3.5.9,1.7.7,5.3,1,7.3s.6,5.1,1.6,7.1c1.9-1,.1-6.2-.2-7.9Z"/>
    <path class="st12" d="M1027.2,766.1c.4-2.4,0-4.8-.4-7.2-1.1-6.3-2.2-12.9-5.7-18.2-.7-1-1.7-2.1-2.9-2-1.7.2,4.2,11.5,4.6,12.4,2.2,4.8,3.6,9.8,4.3,15Z"/>
    <path class="st12" d="M1071.6,604.5c14.8-3.1,30.4-9.8,45.1-13.4,2.5-.6,5.1-1.3,7.7-1.7,5.3-.9,10.6.2,15.7,1.4,0,0,7.6,1.8,7.6,1.8,1.1.3,2.9.5,3.9,1.2.8.6.7,1.9-.2,2.3-.7.4-1.3.5-1.9.8-7.7,2.5-15.9.4-23.3-1.6-5-1.3-10.1-3.3-15.3-2.4,5.2-1.1,10.4.8,15.4,2,5,1.3,10.2,2.5,15.4,2.5,2.6,0,5.2-.4,7.6-1.2.7-.3,2.7-.7,1.8-1.6-.7-.5-2.6-.7-3.6-1-7.3-1.5-15.5-4.4-23-3.2-18,3.1-34.9,11-52.9,14.1h0Z"/>
    <path class="st12" d="M1160.6,600.2c7.1-.8,14.5,1.2,20.3,5.3,1.8,1.4,4.2,2.8,4.8,5.2-.4-1.1-1.3-1.9-2.3-2.6-6.5-4.9-14.6-7.6-22.7-7.9h0Z"/>
  </g>
  <g id="highlights">
    <path class="st11" d="M1698.3,1485.4c.5,14.3,2.6,28.5,6.3,42.2-.5-1-.9-2-1.4-3l-4.9-39.3Z"/>
    <path class="st11" d="M1728.2,1433.1c5,15.4,6.1,32.1,2.9,48l-2.9-48Z"/>
    <path class="st11" d="M1610.4,1589.9c1.2-2.6-.7-6.2,1.2-8.3,2.1-2.3,6.4.8,5.9,3.9s-3.7,5-6.8,5.7c0-1.1,0-2.2-.1-3.2v2Z"/>
    <path class="st11" d="M1342.3,1693.7c1.4-3,5.4-4.4,8.4-2.9,1.8,4.1-.6,9.4-4.9,10.8.3-3-1.1-6.1-3.5-7.8h0Z"/>
    <path class="st11" d="M1415.4,1696.9c2.1-2.5,4.8-4.5,7.7-6,1.4-.7,3.5-1,4,.5.2.5,0,1.1-.1,1.6-1.5,4.4-7.6,6.4-11.4,3.7l-.2.3Z"/>
    <polygon class="st11" points="894.3 921.3 942.6 894.4 996.5 875.2 950.3 898.2 894.3 921.3"/>
    <path class="st11" d="M988.4,898.9c1.7-1.7,83.9-39.6,83.9-39.6l-41.5,25.6-42.4,14.1Z"/>
    <polygon class="st11" points="1129 826.6 1167.7 806.2 1202.7 792.8 1241.1 780 1269.2 771 1282.6 766.1 1296.7 760.8 1319.7 753.1 1305.5 764 1326.1 760.8 1255.2 782.5 1203.4 798.1 1158.4 815.8 1129 826.6"/>
    <path class="st11" d="M566.7,954.5l39-14.7,28.8-17.3,41.5-14.7s33.9-9.6,35.2-10.9,40.3-12.1,40.3-12.1l-80.2,19.8-65,21.7-28.8,14.1-14.1,7-11.9-1.5-46.9-6.1-49.2,2.6-16.6,5.8-12.8,10.9,28.8-12.1,29.4-1.9,38.4,1.3,37.7,4.5s-29.4,6.6-26.8,6.6,33.2-2.7,33.2-2.7Z"/>
    <polygon class="st11" points="167.2 1210.2 197.3 1165.8 224.1 1132.8 247.1 1106.6 272 1081.9 295.1 1058 313 1039.5 332.8 1022.2 355.1 995.4 321.3 1026.1 289.3 1055.5 263.1 1084.9 230.5 1115.6 208.8 1146.3 189.6 1170.9 167.2 1210.2"/>
    <path class="st11" d="M274,1130.9l-3.2,19.8,2,13.9,2.5,17.5,10.2,50.3,18.5,33.4s-19.8-58.8-19.8-60.7-10.2-74.1-10.2-74.1Z"/>
    <path class="st11" d="M398.6,1213.4l-5.1,46s13.4-49.4,13.4-51.5,4.5-44.4,4.5-44.4l2.6-19.8,1.9-21.7-9.6,43.9-5.8,36-1.9,11.5Z"/>
    <path class="st11" d="M273,1374.8c-2.7,3.7-4.8,7.9-6.2,12.2-.2.5-.3,1-.2,1.5.3,1,1.6,1.4,2.6,1.1s1.7-1.2,2.4-2.1c1.4-1.7,2.8-3.6,2.9-5.8s-1.5-4.7-3.7-4.4l2.2-2.5Z"/>
    <path class="st11" d="M298.5,1288.2c1,7.7,5.3,14.8,11.6,19.3-1.6-6.2-4.4-12.1-8.3-17.1-.8-1-1.6-2-2.8-2.5-1.2-.5-2.7-.2-3.3.9l2.7-.5Z"/>
    <path class="st11" d="M324.4,1305.4c3.8-2.2,8.9-1.1,12.5,1.5s6,6.6,8.3,10.3c10.6,17.3,21.7,34.3,33.1,51.1,5.7,8.4,11.5,16.7,17.5,24.9,2.6,3.6,5.8,10,9.6,12.1,2.5,1.3,5.6-1,7.6,2.5-7.2,2.8-14.9-4.9-19.3-9.4-8.9-9.1-17.4-18.7-25.5-28.6-16.4-20.1-31.1-41.7-43.7-64.5Z"/>
    <path class="st11" d="M360.5,1529.9c3.8-1.9,7.5-3.8,10.8-6.6,3.6-3.1,6.5-7.4,6.4-12.1-10.3,3.6-16.9,13.6-26.1,19.3-4.4,2.7-9.9,4.3-13.9,7.4,6.5,2.4,17.2-5.2,22.8-8Z"/>
    <path class="st11" d="M461.9,1447.8c2.5-.2,4.6,2.1,5,4.6s-.5,4.9-1.6,7.1c-.9,1.7-1.9,3.4-3.5,4.5s-3.9,1.2-5.4,0c-.3-.3-.6-.7-.7-1.1,0-.7.5-1.3,1-1.9,3.6-3.8,6.2-8.6,7.4-13.7,5.8-24.5,28.1-42.7,45.1-61.4,1.6-1.8,3.5-3.7,5.9-3.9,1.4-.1,2.9.4,4.3,0,2-.4,3.4-2.3,5-3.6,7.4-6.5,18.8-2.3,28.6-1.4,4.4.4,8.8,0,13.1-.3,22.1-1.5,44.3-1.4,66.3.4-23.9,2-47.9,3.3-71.9,3.7-15.1,3.7-30.2,7.3-45.3,11,.8,3.1-.9,6.4-3.4,8.4s-5.5,3.1-8.5,4.4c-14.1,6.2-25.5,18.3-30.8,32.7-1.6,4.2-7.3,8.8-10.5,12,.6-.4-.7-1.1,0-1.5Z"/>
    <path class="st11" d="M788.3,1389c7.1,3.7,14,7.7,21.6,10.1,7.5,2.4,15.5,3.3,23.1,5.6,22.1,6.8,38.8,25.7,60.7,33.4,12.3,4.3,26,5.1,37,12.2-11.7-5.1-22.8-11.6-33.1-19.1-2.3-1.7-4.7-3.9-4.7-6.7.1-4.2,5.5-5.9,9.7-6.2,9.4-.6,18.9,0,28.1,1.6-11.8-6.2-24.8-10.2-38-12,.6,1.8,1.2,3.6,1.8,5.5-.4,2.2-3.3,2.6-5.5,2.4-43.5-4.1-80.1-34.2-122.2-45.8-18.1-5-40-8-58.5-3.9,28.5,2.5,54.4,9.7,79.8,23Z"/>
    <path class="st11" d="M967.5,1443.4c10.6,2.2,21.3,4.5,31.9,6.7,2.8.6,5.9,1.2,8.6,0,.3-.7-.7-1.3-1.5-1.5-13.6-2.5-27.3-5-40.9-7.5-1.6-.3-4,0-3.8,1.7,0,.6.5,1.1.9,1.5,5,4.8,12.5,5.4,19.4,5.8,7.7.4,15.5.9,23.2-.2l-37.8-6.7Z"/>
    <path class="st0" d="M1268.5,1637.3c9.8-2.6,17.3-10.5,24.2-18,2.4-2.6.7-3.8-1.7-3.6-1.2.1-6.6,4.6-7.9,5.4-6.2,4-11.3,9.5-14.6,16.2Z"/>
    <path class="st0" d="M1166.3,1671.2c3.2,5.1,5.7,10.5,8.1,16.1,40,92.6,50.5,195.4,50,296.2,1.5-9-6.1-16.6-10.2-24.7-5.7-11.2-4.8-24.5-4-37,1.3-20.2,1.9-40.4,1.8-60.6,0-11.1-.3-22.2-2.1-33.1-1.8-11-5.1-21.7-7.3-32.7-2.6-12.8-3.9-26-8.6-38.2-10.6-27.4-37.8-47.3-43.3-76.2,3.3-.6,6.7.5,9.1,2.8,1.1-4.7,1.5-9.7,1.1-14.5,6-1.4,11.6,6.6,8.3,11.8"/>
    <path class="st0" d="M1244.5,1828.7c-2.2,2.2-2.7,5.9-1.2,8.7,2,1.1,4.4-.9,5.5-2.9.9-1.7,1.5-3.8.8-5.7s-3.1-3.1-4.7-2.1"/>
    <path class="st0" d="M1314.4,1849.3c-3.1-.3-5.4,2.7-7,5.3-.5.8-1,1.6-.9,2.6.1,1.4,1.6,2.3,3,2.2s2.6-1,3.5-1.9c3.2-3.4,4.2-8.8,2.2-12.9"/>
    <path class="st0" d="M1271.1,1637.5c1.5.8,3.3-.2,4.7-1.2,4.9-3.5,9.7-7.1,14.3-11,2.2-1.9,4.5-4.7,3.2-7.2,2.7.7,3.9,4.5,2.1,6.7-3,3.5-7.9-.1-7.1-4.1-7.8.4-15,10-17.2,16.8Z"/>
    <path class="st0" d="M1248.6,1580.3c-1.7.9-3.6,1.9-4.5,3.6-.9,1.7-.4,4.3,1.5,4.8.7.2,1.5,0,2.2-.2,3.9-1.5,5.9-5.8,7.4-9.6-1.7-.6-3.5-.9-5.3-1"/>
    <line class="st0" y1="1968.8" y2="1708.2"/>
    <g>
      <path class="st11" d="M653,1216.8c10.8-6.1,22.2-13.2,32.5-20.1-9.8,8.2-20.8,15-32.5,20.1h0Z"/>
      <path class="st11" d="M816.2,1073.9c112.9-79.6,233-150.3,357.4-210.4,0,0,25-11.9,25-11.9l-24.9,12.1c-124,60.9-243.9,131.5-357.5,210.2h0Z"/>
      <path class="st11" d="M1292.6,833c6.2,3.3,12.1,7.5,17.4,12.1,0,0-.6.8-.6.8-2.9-2-5.8-4-8.7-6-2.5-1.8-6.1-4.4-8.5-6.3,2.6,1.6,6.3,3.9,8.9,5.6,3,1.9,5.9,3.9,8.8,5.8l-.6.8c-5.3-4.6-11-8.9-16.8-12.8h0Z"/>
      <path class="st11" d="M1373.2,1165.4c26.8-4.3,54-5.4,81.1-3.5,0,0-5.1,0-5.1,0-25.4-.4-50.8.9-76,3.6h0Z"/>
      <path class="st11" d="M1503.2,966.2c11.1,41.7,24.2,82.8,39.5,123.1,0,0-.3-.3-.3-.3l-3.6-3.4,3.7,3.3c-16.6-39.1-29.5-81-39.4-122.7h0Z"/>
      <path class="st11" d="M1609.1,1087.3c-7.1,14.1-10,29.8-10.6,45.5-1.3,31.4,5.2,62.7,3,94.1-2,31.4-9.9,62-15.4,92.9-5.5,30.9-8.8,62.2-9.8,93.6-.6,15.7-.5,31.4,0,47.1-.7-15.7-.9-31.4-.5-47.1.9-31.4,4.1-62.8,9.5-93.7,5.4-30.9,13.2-61.5,15.4-92.8,2.3-31.4-4-62.7-2.6-94.1.8-15.7,3.9-31.4,11.1-45.5h0Z"/>
      <path class="st11" d="M1542.6,1307.3c-4.1,21.3-2.9,43.6,3.4,64.4,0,0,1.3,4.1,1.3,4.1l-1.6-4.1c-7.3-20.5-8.6-43.3-3.2-64.5h0Z"/>
      <path class="st11" d="M1677.1,1311.6c-11.3,21.3-16.2,45.8-14.2,69.8,0,0,.5,4.8.5,4.8l-.8-4.8c-3.1-24,2-49.1,14.5-69.8h0Z"/>
      <path class="st11" d="M1693.3,1498.2c-.1,7.1.5,13.9,1.9,20.8-2.8-6.5-3.5-13.9-1.9-20.8h0Z"/>
      <path class="st11" d="M1715.8,1421.4c.5,15.4,2.7,30.7,6.7,45.6.5,1.9,1.3,4.5,1.8,6.4-6.3-16.5-9.3-34.3-8.5-52h0Z"/>
      <path class="st11" d="M1603.9,1587.7c-3.2,2-6.7,3.4-10.4,4.2,3.2-2,6.7-3.4,10.4-4.2h0Z"/>
      <path class="st11" d="M1261.4,1631.9c7.9-4.4,15.3-9.7,22-15.8-5.7,7.1-13.4,12.6-22,15.8h0Z"/>
      <path class="st11" d="M1228,1581c5.1.7,9.9,4.1,12.2,8.7-3.5-3.8-7.5-6.7-12.2-8.7h0Z"/>
      <path class="st11" d="M1230.1,1830.5c4.5,2.2,8.7,4.9,12.5,8.3-4.5-2.2-8.7-5-12.5-8.3h0Z"/>
      <path class="st11" d="M1298.7,1859.9c3.8-3.4,7.9-6.2,12.4-8.4-3.7,3.4-7.9,6.2-12.4,8.4h0Z"/>
      <path class="st11" d="M979.9,1218.1c18.1,14.1,42.5,10.6,63.5,16.4,3.1.8,6.1,1.8,9,3.1-3-1.1-6-2-9.1-2.7-21.1-5.1-46-1.7-63.4-16.9h0Z"/>
      <path class="st11" d="M1169.6,1222.8c6.8.6,13.5,1.6,20.2,2.7-2.6.8-5.3,1.7-7.9,2.4-2,.6-4,1.1-6.1,1.6,1-.4,1.9-.8,2.9-1.2,2.9-1.1,5.9-2.2,8.9-3.2,0,0,0,.9,0,.9-6.1-.9-12.1-1.9-18.1-3.3h0Z"/>
      <path class="st11" d="M926.7,1199.1c-10.5,0-21,1.3-31.1,4.3,0,0,0-1,0-1,10.5,1.8,20.6-5.6,31.1-3.4h0ZM926.7,1199.1c-10.7-1.4-20.6,6.1-31.3,4.3l-2-.4,1.9-.6c10.1-3,20.8-4.2,31.4-3.4h0Z"/>
      <path class="st11" d="M890,1250c6.8,4.3,13.3,9.1,19.3,14.5-6.8-4.3-13.2-9.1-19.3-14.5h0Z"/>
      <path class="st11" d="M893.6,1074.3c-22,25-29,60.1-53.2,83.4-3.5,3.2-7.3,6.1-11.3,8.5,32.7-21.6,38.4-64.6,64.6-91.9h0Z"/>
      <path class="st11" d="M673.4,1299.2c5-2.6,9-6.2,12.2-10.9-1.8,5.3-6.7,9.7-12.2,10.9h0Z"/>
      <path class="st11" d="M544.9,1289.1c6.3-4.8,11.4-11.1,14.6-18.4,0,0,.7-1.6.7-1.6.2-.5.4-1.1.6-1.6-.1.6-.2,1.1-.4,1.7-2.2,8.3-7.9,15.8-15.5,19.8h0Z"/>
      <path class="st11" d="M558.7,1019.7c43.3-18.7,91.4-26.5,138.3-22.4,0,0,9.4,1,9.4,1l-9.4-.7c-47-2.9-94.7,4.7-138.3,22.2h0Z"/>
    </g>
  </g>
  <g id="strokes_black">
    <path class="st12" d="M647,1388.4c3.6-.7,7.4-.7,11.1,0s1.6-.2,1.8-1-.2-1.7-1-1.8c-4.2-.8-8.5-.9-12.7,0s-1.2,1.1-1,1.8,1,1.2,1.8,1h0Z"/>
    <path class="st12" d="M669.7,1390.4c4.5-.4,9-.1,13.4.8s1.6-.2,1.8-1-.3-1.7-1-1.8c-4.7-1-9.4-1.3-14.2-.9s-1.5.6-1.5,1.5.7,1.6,1.5,1.5h0Z"/>
    <path class="st12" d="M696.9,1394.4c1.5.1,2.6.2,4.1.5s2.9.6,4.3,1,1.7-.3,1.8-1-.2-1.6-1-1.8c-3-.9-6.1-1.4-9.2-1.7s-1.5.7-1.5,1.5.7,1.4,1.5,1.5h0Z"/>
    <path class="st12" d="M714.1,1395.8c3.1-.3,6.3-.4,9.4-.3s1.5-.7,1.5-1.5-.7-1.5-1.5-1.5c-3.1,0-6.3,0-9.4.3s-1.5.6-1.5,1.5.7,1.6,1.5,1.5h0Z"/>
    <path class="st12" d="M729.1,1398.8c8.6.2,17.1,1.7,25.3,4.5s2.6-2.3.8-2.9c-8.4-2.9-17.2-4.4-26.1-4.6s-1.9,3,0,3h0Z"/>
    <path class="st12" d="M763.5,1407.9c10.2,1.3,20,4.8,29.8,7.9s2.6-2.3.8-2.9c-10-3.2-20.1-6.7-30.6-8s-1.9,2.8,0,3h0Z"/>
    <path class="st12" d="M801.8,1415.9c.3,2,2.6,2.2,4.2,2.6s4.3.9,6.4,1.3c4.3.9,8.6,1.6,12.9,2.3s2.7-2.6.8-2.9c-3.7-.6-7.5-1.3-11.2-2s-3.7-.7-5.6-1.1-1.7-.4-2.6-.6-.9-.2-1.3-.3c-.2,0-.5-.1-.7-.2-.2-.1-.3-.1-.1,0-.3-1.9-3.2-1.1-2.9.8h0Z"/>
    <path class="st12" d="M832.9,1426.4c10.6,2.1,21.2,3.6,31.9,4.5s1.9-2.8,0-3c-10.5-.9-20.8-2.3-31.1-4.4s-2.7,2.5-.8,2.9h0Z"/>
    <path class="st12" d="M983.4,1492.9c-1.7,5.8-3.3,11.6-5,17.4s-1.5,5.2-3,7.5-3.1,3.9-3.4,6.4.2,1.6,1,1.8,1.7-.2,1.8-1c.4-2.5,2.3-4.2,3.5-6.2s2.2-5,2.9-7.6c1.7-5.8,3.3-11.6,5-17.4s-2.4-2.7-2.9-.8h0Z"/>
    <path class="st12" d="M1008.9,1477.1c2.9.6,5.9.8,8.9.5s1.5-.6,1.5-1.5-.7-1.6-1.5-1.5c-1.4.1-2.8.2-4.2.1s-1.4,0-2-.2c.2,0-.3,0-.2,0-.2,0-.3,0-.5,0-.4,0-.8-.1-1.1-.2-.8-.2-1.7.2-1.8,1s.2,1.7,1,1.8h0Z"/>
    <path class="st12" d="M1030.5,1484.7c6.6,1.3,13.1,3.2,19.4,5.6s1.6-.3,1.8-1-.3-1.6-1-1.8c-6.3-2.4-12.8-4.3-19.4-5.6s-2.7,2.5-.8,2.9h0Z"/>
    <path class="st12" d="M513.9,1464.9c7.6,2.3,15.6-.3,23.1,1.7s2.7-2.4.8-2.9c-7.6-2.1-15.6.6-23.1-1.7s-2.6,2.3-.8,2.9h0Z"/>
    <path class="st12" d="M371.8,2337.5c-7.8,15.7-14.3,32.1-19.2,48.9-.5,1.9,2.4,2.6,2.9.8,4.9-16.6,11.2-32.7,18.9-48.2s-1.7-3.2-2.6-1.5h0Z"/>
    <path class="st12" d="M382.5,2316.5c-2.1,5.7-4.8,11.2-8,16.3s1.6,3.2,2.6,1.5c3.3-5.4,6.1-11.1,8.3-17.1s-.3-1.6-1-1.8-1.6.3-1.8,1h0Z"/>
    <path class="st12" d="M392.5,2295.9c-1.6,3.9-3.1,7.8-4.7,11.7s.3,1.6,1,1.8,1.5-.3,1.8-1c1.6-3.9,3.1-7.8,4.7-11.7s-.3-1.6-1-1.8-1.5.3-1.8,1h0Z"/>
    <path class="st12" d="M395.4,2269.9c-6.3,7.8-10.5,17.1-12.3,27s2.6,2.7,2.9.8c1.6-9.4,5.5-18.3,11.5-25.7s-.9-3.6-2.1-2.1h0Z"/>
    <path class="st12" d="M419.9,2239.6c-4.6,10.3-8.9,20.8-12.7,31.4-.7,1.8,2.2,2.6,2.9.8,3.8-10.4,7.9-20.6,12.4-30.7s-1.8-3.3-2.6-1.5h0Z"/>
    <path class="st12" d="M424.9,2200.5c-5.9,7.5-9.9,16.4-11.5,25.8s2.6,2.7,2.9.8c1.5-8.9,5.1-17.4,10.7-24.5s-.9-3.6-2.1-2.1h0Z"/>
    <path class="st12" d="M458.3,2125.5c-4.5,10.4-8.7,21-12.4,31.7s2.3,2.6,2.9.8c3.6-10.5,7.6-20.8,12.1-31s-1.8-3.3-2.6-1.5h0Z"/>
    <path class="st12" d="M1075.2,1798.2c-.5-10.8.2-21.7,2-32.4s2.1-10.6,3.5-15.9,3.2-10.6,4.5-15.9,2.3-12,3.9-17.9-2.4-2.7-2.9-.8c-1.4,5.3-2.3,10.7-3.5,16.1s-2.9,10.6-4.4,15.9c-3,10.6-5,21.4-5.8,32.3-.5,6.2-.6,12.4-.3,18.6s3.1,1.9,3,0h0Z"/>
    <path class="st12" d="M1097.5,1732.1c1.6-7.2,4.5-14.2,4.8-21.6s-2.9-1.9-3,0c-.3,7.2-3.1,13.9-4.7,20.8s2.5,2.7,2.9.8h0Z"/>
    <path class="st12" d="M1053.2,1909.1c-2.7,13.6-6.2,27-10.6,40.1-.6,1.8,2.3,2.6,2.9.8,4.4-13.1,7.9-26.5,10.6-40.1s-2.5-2.7-2.9-.8h0Z"/>
    <path class="st12" d="M1148.4,1650.8c.5,4-.1,7.9-1.6,11.5s.3,1.6,1,1.8,1.5-.3,1.8-1c1.6-3.9,2.2-8.2,1.7-12.3s-.6-1.5-1.5-1.5-1.6.7-1.5,1.5h0Z"/>
    <path class="st12" d="M1156.3,1677c1.9-1.6,3.5-3.6,4.6-5.8s2.4-5.3.3-7-1.5-.6-2.1,0-.6,1.6,0,2.1.1.1.2.2c-.2-.2,0,0,0,0s0,.1,0,.1c0,.2,0-.2,0,0s0,.2,0,.3,0,.2,0,0c0,.2,0,.4-.2.7-.3,1-.6,1.7-1.1,2.6-1,1.8-2.2,3.2-3.8,4.6s-.5,1.6,0,2.1,1.5.5,2.1,0h0Z"/>
    <path class="st12" d="M1157.4,1547.9c1.5,1.2,3.1,2.3,4.8,3.3s1.6.9,2.4,1.3.8.4,1.2.6.3.2.3.2c0,0-.2-.2-.2-.2-.3-.5.1-1.1.6-1.3-.8.2-1.3,1.1-1,1.8s1,1.3,1.8,1c1.6-.5,1.9-2.5.8-3.6s-1-.6-1.5-.9-1-.5-1.5-.8c-1-.5-2-1.1-3-1.7s-.9-.6-1.4-.9-.5-.3-.7-.5c0,0-.4-.3-.2-.1-.1,0-.2-.2-.4-.3-.6-.5-1.5-.6-2.1,0s-.7,1.6,0,2.1h0Z"/>
    <path class="st12" d="M1164,1541.4c7.1,3.1,13.9,6.6,20.5,10.6s3.2-1.6,1.5-2.6c-6.6-4-13.5-7.6-20.5-10.6s-1.6-.2-2.1.5-.2,1.7.5,2.1h0Z"/>
    <path class="st12" d="M999.8,1541.4c-4.6,9.5-8.9,19.1-13,28.8s.3,1.6,1,1.8,1.5-.3,1.8-1c4-9.5,8.2-18.9,12.7-28.1.8-1.7-1.8-3.3-2.6-1.5h0Z"/>
    <path class="st12" d="M1143.6,1528.5c14.8,5.8,29.7,11.4,44.6,16.9s2.6-2.2.8-2.9c-14.9-5.5-29.8-11.1-44.6-16.9s-2.6,2.2-.8,2.9h0Z"/>
    <path class="st12" d="M1407.7,719.6c29.2-11.4,60,1.5,86.1,14.7,14,7.1,27.9,14.4,41.3,22.5s24.2,15.9,33.9,26.6c10.1,11.2,17.8,25,19.7,40s3.2,1.9,3,0c-1.7-13.8-7.9-26.5-16.5-37.3-9.1-11.5-20.8-20.6-33.1-28.5-13.4-8.5-27.5-16-41.6-23.3-13.9-7.2-28.1-14.2-43.2-18.4-14.6-4-30.4-5.3-45.1-1-1.8.5-3.6,1.1-5.3,1.8s-1,3.6.8,2.9h0Z"/>
    <path class="st12" d="M1593.6,828.2c5.5,9.7,9,20.4,12.1,31.1s6.4,23,9.6,34.5c6.3,22.6,12.4,45.3,19,67.8s13.5,43.9,22.2,65.1c4.2,10.4,8.9,20.7,13.9,30.7,4.8,9.6,10,19.1,15.1,28.6,10.1,18.9,19.9,38.1,25.7,58.7.7,2.5,1.4,5.1,2,7.7s3.3,1.1,2.9-.8c-4.9-21-14.1-40.7-24-59.7s-20.9-38.4-29.5-58.5c-9.1-21.2-16.4-43.1-23.1-65.1-6.7-22.4-12.8-45-19.1-67.6s-6.5-23.4-9.7-35.2c-3-10.7-6-21.4-10.7-31.5s-2.4-4.9-3.7-7.3-3.5-.2-2.6,1.5h0Z"/>
    <path class="st12" d="M1732.4,1201.1c1.2,25.9,10.7,50.3,16.4,75.4,3.1,13.4,4.4,26.9,5,40.5.6,13.9,1,27.9,1.4,41.8.9,28.1,1.9,56.3,2.8,84.4s1.9,56.3,2.8,84.4.9,11.9-.5,17.5-1.9,4.9-3.9,6.6-4.9,2.9-7.2,4.6c-4.6,3.5-6.7,9.1-10.1,13.6s-7.5,8.3-12.1,11.4c-2.3,1.5-4.8,2.9-7.3,4s-.2,3.4,1.5,2.6c5.2-2.3,10-5.5,14.1-9.4s7.5-8.6,10.5-13.5,3.1-4.9,5.5-6.6,5-2.8,7.2-4.6c4.2-3.5,5.4-9.2,5.6-14.4s-.3-13-.5-19.5c-.2-7.1-.5-14.2-.7-21.2-.5-14.2-.9-28.3-1.4-42.5-1-28.5-1.9-57-2.9-85.4-.5-14.2-.9-28.3-1.4-42.5s-1-27.9-3.4-41.7c-4.4-25.7-14.6-50.1-17.8-76s-.7-6.4-.8-9.5-3.1-1.9-3,0h0Z"/>
    <path class="st12" d="M1449.5,1729c-1-9.9,5.9-18.2,13.7-23.5s8.7-5.2,13.1-7.5,9.8-5.1,14.8-7.5c19.7-9.8,39.7-19,60-27.5,19-7.9,38.3-15.2,57.6-22.5s37.4-14.5,55.7-22.9,35.7-17.9,52.2-29.2,4.1-2.8,6.1-4.3,0-3.7-1.5-2.6c-16.3,11.9-33.9,21.9-52.1,30.6-18.4,8.8-37.3,16.4-56.3,23.7-19.2,7.4-38.6,14.5-57.6,22.4s-41,17.7-61.1,27.6c-5,2.4-9.9,4.9-14.8,7.5s-9.3,4.7-13.8,7.4c-8.2,4.9-16.1,11.8-18.3,21.6-.5,2.2-.7,4.5-.4,6.8s3.2,1.9,3,0h0Z"/>
    <path class="st12" d="M1422.6,1744.6c.5,8.8-.2,17.7-2,26.3s2.5,2.7,2.9.8c1.9-8.9,2.6-18,2.1-27.1s-3.1-1.9-3,0h0Z"/>
    <path class="st12" d="M1444.9,1742c-.7,5.9-1.5,11.9-2.8,17.7s-3.6,11.3-6.3,16.6-6,10.5-9,15.8-6.4,10.9-9.6,16.3c-12.6,21.5-25.3,43-37.9,64.6-5.6,9.7-11.1,19.7-14.6,30.4s-1.6,5.4-2.2,8.2-1,5.6-1.7,8.3-1.7,5.3-3.2,7.6-3.5,4.2-5.4,6.1c-8.9,8.8-17.9,17.5-26.9,26.2s-8.5,8.5-13,12.6-8.6,7-14,8.9c-5.2,1.7-10.6,2.7-15.7,4.7s-8.9,4.2-13.1,6.6c-8.3,4.8-16.5,10.2-25.9,12.4s-4.7.8-7,.9-1.9,3,0,3c9.9-.2,18.8-4.7,27.2-9.5s8.7-5.2,13.2-7.5,9.3-4.2,14.3-5.5,11.3-2.9,16.2-6.2,8.6-7.1,12.5-10.9c9.1-8.9,18.3-17.8,27.4-26.7s8.8-8,12.3-12.8c3.4-4.6,4.3-10.1,5.3-15.6,2.2-11.4,7-21.9,12.5-32,5.9-10.8,12.3-21.2,18.5-31.8,6.5-11,12.9-22.1,19.4-33.1,6.4-11,12.9-21.9,19.3-32.9s5.8-10.4,7.9-16,3.3-11.6,4.2-17.5.8-5.9,1.1-8.8-2.8-1.9-3,0h0Z"/>
    <path class="st12" d="M57.3,1886.2c4.1-12.9,12.1-23.9,20.3-34.6,4.2-5.4,8.4-10.8,12.3-16.4s7.8-12.5,11-19.2,6.4-13.7,9.9-20.4,7-13,10.7-19.3c7.5-12.6,15.8-24.7,24.8-36.3,9.1-11.6,18.8-22.7,29.2-33.1,1.3-1.3,2.6-2.5,3.9-3.8s-.7-3.5-2.1-2.1c-10.6,10.3-20.6,21.3-29.9,32.8s-17.8,23.6-25.6,36.2-14.8,25.9-21.2,39.4-6.6,13.9-10.7,20.3-7.9,11.3-12.1,16.8c-8.2,10.7-16.6,21.5-21.7,34.1s-1.2,3.2-1.7,4.9,2.3,2.6,2.9.8h0Z"/>
    <path class="st12" d="M852.1,734.6c.7.2,1.4.3,2.1.6s.6.2.9.3.3.1.5.2c-.3-.1.2,0,.3.1,1.3.6,2.5,1.3,3.6,2s1.7.1,2.1-.5.1-1.6-.5-2.1c-2.4-1.7-5.1-2.9-8-3.5s-1.7.2-1.8,1,.2,1.7,1,1.8h0Z"/>
    <path class="st12" d="M1002.7,674.7c6.6.6,12.9,3.4,18.9,5.9s12.3,5.6,18.3,8.8c1.7.9,3.2-1.7,1.5-2.6-6.2-3.3-12.5-6.3-19-9.1s-12.8-5.4-19.7-6-1.9,2.8,0,3h0Z"/>
    <path class="st12" d="M1000.9,681.4c3.7,14.4,8.7,28.4,15.1,41.9.8,1.7,3.4.2,2.6-1.5-6.3-13.2-11.2-27-14.8-41.2-.5-1.9-3.4-1.1-2.9.8h0Z"/>
    <path class="st12" d="M1140.4,825.5c10.6-4.7,21.2-9.5,31.8-14.2s20.3-9.6,31.4-11.7c5.5-1,11-1.7,16.4-3s10.6-2.9,15.8-4.6c10.9-3.5,21.8-7.2,32.7-10.8s25-8.3,37.4-12.4,1-3.5-.8-2.9c-22.2,7.3-44.3,14.7-66.5,22-5.3,1.7-10.6,3.5-16,4.9-5.5,1.4-11,2.4-16.6,3.3s-10.8,2.2-16,4.2c-5.2,2-10.2,4.3-15.3,6.6-11.9,5.4-23.9,10.7-35.8,16.1-1.8.8-.2,3.4,1.5,2.6h0Z"/>
    <path class="st12" d="M988.8,901.1c11.1-3,22.3-6.2,32.9-10.7s19.2-9.8,29-14.3c5.5-2.5,11.1-4.7,17-6.1s1.1-3.3-.8-2.9c-10.4,2.5-20.1,7.4-29.6,12.3s-9.6,5-14.5,7.2-10.7,4.4-16.1,6.2c-6.2,2-12.5,3.8-18.7,5.4s-1.1,3.4.8,2.9h0Z"/>
    <path class="st12" d="M1165.9,1672.2c9.3,17.9,17.2,36.5,23.7,55.6,6.6,19.4,11.6,39.2,15.3,59.3s6.4,41.6,8.5,62.5,3.9,42.2,5.8,63.3,1.9,21.5,2.9,32.2c.9,10.6,2.2,21.3,2.3,32s0,5.2-.2,7.8l2.6-1.1c-6-5.1-9.2-12.4-11-19.9-2.1-8.5-2.7-17.3-3.6-26s-1.3-11.8-1.9-17.6-3.2-1.9-3,0c1.1,10.4,2.2,20.7,3.4,31.1s2.3,16.4,5.9,23.9,4.7,7.8,8.1,10.7,2.5.3,2.6-1.1c.7-10.7-.5-21.4-1.5-32.1-1-10.8-1.9-21.7-2.9-32.5-1.9-21.2-3.7-42.5-5.7-63.7s-4.4-42-8-62.9-8.1-40.4-14.5-60c-6.2-19.3-13.8-38.1-22.9-56.3-1.1-2.2-2.2-4.4-3.4-6.6s-3.5-.2-2.6,1.5h0Z"/>
    <path class="st12" d="M1057.5,1493.5c4.3,3.3,9.4,5.1,14.4,6.9s11.3,4.3,17,6.4c11.3,4.3,22.6,8.6,33.9,12.9s12.7,4.8,19.1,7.2,2.6-2.2.8-2.9c-22.3-8.5-44.6-16.9-67-25.4-5.7-2.2-11.8-4-16.7-7.8s-3,1.4-1.5,2.6h0Z"/>
    <path class="st12" d="M907.1,1445.4c18.1,4.3,35.8,10.2,52.8,17.7,4.8,2.1,9.6,4.4,14.3,6.7,1.7.9,3.2-1.7,1.5-2.6-16.8-8.4-34.3-15.3-52.3-20.6-5.1-1.5-10.3-2.9-15.5-4.1s-2.7,2.4-.8,2.9h0Z"/>
    <path class="st12" d="M710.6,1369.2c9.1-3,18.5,0,27.1,3.1s17.1,6.1,25.7,9.1c17.1,6,34.3,12,50.7,19.8s18,9.3,26.4,14.9c1.6,1.1,3.1-1.5,1.5-2.6-15.2-10.3-32-18-49-24.6-17.3-6.7-34.9-12.4-52.4-18.7-9.7-3.6-20.5-7.3-30.9-3.9s-1,3.5.8,2.9h0Z"/>
    <path class="st12" d="M828.9,1403.7c5.2,1.4,10.5,2.8,15.5,4.7,2.5,1,4.9,2.1,7.2,3.4s4.3,3.2,7,3.6,1.5-.8,1.5-1.5-.7-1.4-1.5-1.5c-1.2-.2-2.3-1.2-3.3-1.8s-2.2-1.4-3.3-2c-2.3-1.3-4.7-2.3-7.2-3.3-4.9-1.9-10-3.2-15.1-4.6s-2.7,2.4-.8,2.9h0Z"/>
    <path class="st12" d="M511,1398.4c-2.6,2.4-6.2,3-9.5,3.8s-6.9,2.1-9.6,4.6-5.4,6.2-7.9,9.4-5.1,6.6-7.4,10.1-4.9,8.3-6.6,12.8,2.2,2.6,2.9.8c2.9-7.7,7.7-14.6,12.8-21.1s4.8-6.4,7.6-9.2,5.8-3.7,9.4-4.6,7.6-1.8,10.5-4.5-.7-3.4-2.1-2.1h0Z"/>
    <path class="st12" d="M413,1415.1c-1.7-7.4-5.9-14.1-11.8-18.8-.6-.5-1.5-.6-2.1,0s-.6,1.6,0,2.1c5.6,4.4,9.5,10.6,11.1,17.5s3.3,1.1,2.9-.8h0Z"/>
    <path class="st12" d="M142.1,1674.6c3.6,1.3,7.3,2.6,10,5.4s3.6,5.3,5.2,8,3.5,5.5,6.2,7.2,3.3.3,4.8-1.1,3.4-3,5.1-4.5.6-1.3.2-1.8c-3.3-4.8-7.1-9.9-12.3-12.8s-11.3-3.1-16.2-6.4-3.1,1.5-1.5,2.6c4.7,3.2,10.5,3.5,15.4,6.1s8.7,7.5,11.9,12.1l.2-1.8c-1.6,1.4-3.2,2.8-4.8,4.1s-.8.9-1.1,1c-.2.2-.3.2-.5,0-.1,0-.3-.2-.4-.3-.6-.5-1.1-.9-1.6-1.5-2-2.2-3.3-4.9-4.8-7.4s-3.2-5.2-5.7-7.1-6.2-3.4-9.6-4.6-2.6,2.3-.8,2.9h0Z"/>
    <path class="st12" d="M73.1,1543.6c4.6,7.5,5.2,16.3,5.8,24.8s.7,8.6,1.4,12.8,2.4,9.2,4.3,13.6c6.9,16.4,16.3,31.9,27.5,45.7,6.3,7.8,13.1,15,20.5,21.7s3.6-.8,2.1-2.1c-13.1-11.8-24.5-25.4-33.8-40.4s-8.8-15.2-12.4-23.3-3.8-9.2-4.9-14-1.3-8.5-1.7-12.8c-.7-9.4-1.3-19.3-6.3-27.6s-3.6-.1-2.6,1.5h0Z"/>
  </g>
  <g id="deep_black">
    <g>
      <path class="st13" d="M73.7,1436.4c.5-15,4-29.7,8.6-43.9,14.7-42.2,30.9-84.5,50.2-124.8,25.9-54.1,62-102.6,103-146.2,41.1-43.5,83.6-85.6,127.7-126.1,11-10,22.7-19.8,36.4-26,6.8-3.1,14-5.2,21.3-7,36.4-8.6,74-12.1,111.3-10.5-37.4-1.5-74.9,2-111.3,10.6-7.3,1.8-14.4,3.9-21.3,7-13.7,6.2-25.3,16-36.3,26-44,40.5-86.5,82.7-127.5,126.2-41,43.5-77.2,91.9-103.1,146-19.4,40.2-35.7,82.6-50.4,124.7-4.6,14.2-8.1,28.9-8.6,43.9h0Z"/>
      <path class="st13" d="M630,913.3c41.2-33.5,92-54.9,144.8-61.4,53.1-7,105.9,4.9,158.5,10.6,17.5,1.8,35.8,1.9,52.2-5.1,16.4-6.7,30.4-18,44.1-29.1-17,13.9-34.8,28.4-56.7,33.4-4.3,1-8.7,1.6-13.1,1.9-8.8.6-17.7.1-26.5-.7-35.2-3.7-70.1-10.2-105.5-12-70.7-4.7-142.6,18.1-197.8,62.6h0Z"/>
      <path class="st13" d="M280.8,1266.9c27.8,56.7,64.2,109.4,107.5,155.4,0,0,8.7,9.1,8.7,9.1l-8.8-9.1c-43.6-45.7-80.1-98.5-107.4-155.5h0Z"/>
      <path class="st13" d="M75.5,1556.5c17.5,35.5,40.1,70,72.2,94,1.8,1.4,5.1,3.2,6.2,5.4.7,1.1,1,3.1-.6,3.5,1.6-.4,1.3-2.3.6-3.4-1.1-2.2-4.3-3.8-6.2-5.3-32.3-23.7-55.1-58.3-72.1-94.1h0Z"/>
      <path class="st13" d="M61.1,1526c-5.9-66.2,12.7-131.5,35.1-193.1,17.3-46.1,33.1-94.2,65.5-132.3,10.4-12.8,21.5-25,32.7-37.1-22.1,24.3-44.5,49-60.1,78.2-7.8,14.5-14.1,29.8-20.1,45.1-11.9,30.8-23.7,61.6-33.3,93.1-14.5,47.1-23.9,96.7-19.7,146.1h0Z"/>
      <path class="st13" d="M965.6,441.9c24.6-1.2,47.6-12.9,72.4-12.9,0,0,4.9.2,4.9.2h-4.9c-24.7.4-47.7,12.2-72.4,12.7h0Z"/>
      <path class="st13" d="M1230.4,441.8c21-6.1,41.3,10.7,62.3,5-2.5.8-5.1,1.2-7.8,1.4-18.5,1-36-11.1-54.5-6.4h0Z"/>
      <path class="st13" d="M1182.7,463.4c22.8-9.5,47.9-11.7,72.3-11.8,5.5,0,11.6,0,17,.2-5.4,0-11.5,0-17,0-24.4.4-49.4,2.5-72.3,11.5h0Z"/>
      <path class="st13" d="M1220,474.8c15.7.6,31.5.4,47.2-.6-15.7,1.7-31.5,1.9-47.2.6h0Z"/>
      <path class="st13" d="M1006.9,463.3c1.4,0,2.8.7,3.5,1.9-1.2-.7-2.2-1.3-3.5-1.9h0Z"/>
      <path class="st13" d="M971.2,283.7c14-18.4,32-33.8,51.3-46.3,15.1-9.8,31.1-18.3,47.3-26,9.3-4.5,18.6-8.7,28-13,9.3-4.2,19-8.3,29.3-9.5,22.6-2.6,25.2,13.6,35.8,10,2.4-.9,4.4-2.6,6.7-3.8,9.5-4.9,20.5-1.7,30.3.8,43.5,10.9,59.8,24.3,95.2,49.3,8.2,6.1,30,20.4,37.2,27.5,7.6,7,12.9,16,18,24.9,7.6,13.4,14.5,27.2,20.7,41.4-6.2-14.1-13.1-27.9-20.8-41.3-5.1-8.9-10.4-17.9-18-24.9-7.1-6.9-28.9-21.3-37.2-27.4-35.4-24.9-51.7-38.3-95.1-49.1-9.6-2.5-20.5-5.7-29.9-.9-2.3,1.2-4.3,2.9-6.7,3.8-11,3.7-13.4-12.7-35.9-10.1-10.2,1.2-19.9,5.2-29.2,9.4-9.4,4.2-18.7,8.5-28,12.9-16.2,7.7-32.2,16.2-47.3,25.9-19.4,12.5-37.3,27.8-51.4,46.2h0Z"/>
      <path class="st13" d="M1179.9,199.8c9.3,4,22.8,10.1,32.2,14.4,10.7,4.9,21.6,9.6,31.3,16.2-10-6.2-20.9-10.9-31.6-15.7-9.4-4.3-22.8-10.4-32-14.8h0Z"/>
      <path class="st13" d="M1332.4,497.1c-8.6,13.8-15.1,28.9-19.3,44.6,3.6-15.9,10.2-31.1,19.3-44.6h0Z"/>
      <path class="st13" d="M1304.3,575.9c-11.3,24.3-5.1,56.1-25.7,76,20.1-20.2,13.8-51.8,25.7-76h0Z"/>
      <path class="st13" d="M1321.5,537.8c9.3.4,18.2-7,19.2-16.3.7-4.5.6-9.6,3.6-13.4,2.7-3.3,7.8-6.8,5.8-11.7,2.3,4.8-2.8,8.6-5.5,11.9-1.4,1.8-2.2,4-2.6,6.3-.8,4.5-.6,9.5-3,13.6-3.4,6.1-10.5,10.2-17.5,9.6h0Z"/>
      <path class="st13" d="M850.1,612.5c-5.5,8.4-6,18.8-5.6,28.5.5,7.1-.3,15.3,4.6,21.2,1.6,1.9,3.7,3.3,6.2,3.7-2.5-.3-4.7-1.7-6.4-3.5-5.1-5.8-4.4-14.1-5-21.3-.3-9.7.2-20.3,6.1-28.5h0Z"/>
      <path class="st13" d="M873.4,603.5c-5.8,27.7,2.9,57.6,22.2,78.1,0,0,4.3,4.3,4.3,4.3l4.6,3.9-4.7-3.8-4.4-4.2c-19.6-20.5-28.4-50.5-22.1-78.3h0Z"/>
      <path class="st13" d="M851.8,511.9c-6.4,10.9-22.2,37.5-28.4,48-6.2,10.7-13.2,21.1-17.1,32.9-3.9,11.8-4.8,24.3-5.8,36.6-2.4,31,.6,64.1,27.1,84.4,14.7,11.5,32.9,17.5,50.9,21.3,6.1,1.2,12.2,2.3,18.3,3.1-6.1-.8-12.3-1.8-18.3-3-12.1-2.5-24.1-6-35.3-11.4-47-22.6-47-67.6-41.3-113,.9-6.1,2.1-12.3,4-18.1,2-5.9,4.7-11.5,7.7-16.9,12.5-21.4,25.4-42.6,38.1-63.8h0Z"/>
      <path class="st13" d="M637.9,910.3c58.9-21.8,121.3-33.9,184-36,47-1.5,94.2,3.4,141.1-1.3,15.6-1.6,31.1-4.3,46.2-8.6-15.1,4.4-30.6,7.2-46.2,8.9-46.9,4.9-94.1,0-141.1,1.6-62.7,2-125.1,14.1-184,35.5h0Z"/>
      <path class="st13" d="M1186.3,1762.4c7.7,35.6,14.8,71.5,15.8,108,1.1,27.2.9,54.8,6.1,81.6,1.7,8.9,4.1,17.8,7.2,26.3-16.2-43.2-11.2-90.1-15.5-135.1-2.6-27.2-8.2-54-13.6-80.8h0Z"/>
      <path class="st13" d="M1104.3,1662.2c-4.9,4.6-7.8,10.9-10.1,17.1-2.3,6.3-4.3,12.7-6.5,19-1.7,5.9-4,13.5-5.5,19.3-.8,3.4-2.7,11.4-3.5,14.6-14.9,67.9-15.5,138-28.8,206.1-1,4.7-2.7,12.5-3.7,17.2-1.6,6.5-3.3,13-5,19.4,1.6-6.5,3.3-13,4.9-19.5,1-4.7,2.7-12.6,3.6-17.2,13.1-68.2,13.6-138.3,28.7-206.2.8-3.5,2.7-11.2,3.5-14.6,1.5-5.8,3.9-13.5,5.5-19.3,2.2-6.3,4.3-12.7,6.6-19,2.4-6.2,5.3-12.5,10.2-17.1h0Z"/>
      <path class="st13" d="M1151.6,1546.8c14.8,6.7,28.3,16.7,39,28.9-11.3-11.7-24.5-21.5-39-28.9h0Z"/>
      <path class="st13" d="M512.1,1393.6c43.3-14.1,85.9-26.4,131.3-14,14.2,3.5,29.1,7.4,43.5,10.2,51,10.3,103.5,14.3,153.5,29.5,0,0,10.6,3.5,10.6,3.5.4.1.9.3,1.3.4,1.4.2,2.8-.3,4.1.3.8.3,1.7,1.2,1.3,2.2-.4.8-2.4.5-1.9-.6-.5,1,1.5,1.3,1.9.6.4-.9-.4-1.8-1.3-2.1-1.3-.6-2.8,0-4.1-.2-.5,0-.9-.3-1.3-.4l-10.6-3.4c-50.1-14.9-102.5-19-153.5-29.2-14.4-2.8-29.3-6.8-43.5-10.3-45.3-12.5-87.9-.2-131.2,13.6h0Z"/>
      <path class="st13" d="M713.5,1367.5c12.7-2.3,25.5.9,37.1,6,25.4,10.6,62.6,26.4,87.8,37.2,0,0,17.5,7.5,17.5,7.5l-17.6-7.3c-25.2-10.6-62.6-26.3-87.8-37.1-11.6-5.1-24.3-8.4-37-6.3h0Z"/>
      <path class="st13" d="M192.3,1693.4c15.9-14,26.9-32.3,39.1-49.4,18.2-26,42.3-47,67-66.5,15.9-12.6,58-45.7,74.5-58.6,0,0-49.5,39.3-49.5,39.3-32.7,26.2-67.4,51.4-91.8,86-12.2,17-23.3,35.3-39.4,49.2h0Z"/>
      <path class="st13" d="M255.7,1641.2c45.9-45.7,95.8-87.8,148.6-125.3,0,0,10.6-7.5,10.6-7.5l-10.5,7.6c-52.5,37.9-102.4,80-148.7,125.2h0Z"/>
      <path class="st13" d="M281.9,1628c31.5-33.9,65.9-65.5,102.5-93.9,0,0,7.4-5.6,7.4-5.6l-7.3,5.7c-36.3,28.8-70.6,60.3-102.6,93.8h0Z"/>
      <path class="st13" d="M352.3,2390.1c30.9-88.3,69-183.3,103.2-270.7-30.8,79.8-75,191.3-103.2,270.7h0Z"/>
      <path class="st13" d="M513.5,1990c-10,23.6-21.6,46.6-34.7,68.6,12.6-22.3,24.2-45.2,34.7-68.6h0Z"/>
      <path class="st13" d="M673.4,1618.1c-12.1,38-30.9,73.3-47.5,109.4-16.7,35.5-30.4,74.1-43.7,111,13-37.2,26.6-75.7,43.3-111.3,16.8-36.1,35.5-71.4,48-109.2h0Z"/>
      <path class="st13" d="M651.6,1702.1c-31.5,73.4-62.1,148.9-90.6,223.5,28-74.8,58.6-150.3,90.6-223.5h0Z"/>
      <path class="st13" d="M521.6,2032.5c-19.2,32.8-41.1,69.5-60.9,102,19.2-32.8,41.1-69.5,60.9-102h0Z"/>
      <path class="st13" d="M627.6,2126.4c2.8-2.7,5.8-5,9-7.2-2.8,2.7-5.8,5-9,7.2h0Z"/>
      <path class="st13" d="M405.3,1126.4c-12.2,25.3-8.9,54-11.6,81.1-.2,2.3-.8,6.9-1.2,9.1-.1,1.1-.6,3.4-.8,4.5,0,0-.9,4.5-.9,4.5-.4,1.4-1.4,5.2-1.9,6.6-3,9.3-7.6,18.8-5.8,28.8.5,3,1.7,5.9,3.6,8.3-3.9-4.8-4.7-11.4-4-17.5.9-6.9,3.7-13.3,5.8-19.8.4-1.4,1.4-5.1,1.8-6.6.3-1.5,1.1-5.3,1.4-6.7.2-1.4.8-5.3,1-6.8,3.5-28.5-.7-59.1,12.6-85.6h0Z"/>
      <path class="st13" d="M489,1382.3c13.1-38.4,41.2-69.6,72.4-94.6,47.1-37.8,102.9-63.5,148-103.9,30.1-26.8,56.6-57.3,86.7-83.9,75.2-66.9,160.7-121.4,248.8-169.7,70.8-38.3,144.5-71.2,220.3-98.4-75.7,27.3-149.4,60.2-220.1,98.6-88,48.4-173.4,103-248.6,169.8-30.2,26.7-56.7,57.1-86.8,83.9-45.2,40.4-101,66.1-148.2,103.8-31.2,25-59.3,56.1-72.5,94.5h0Z"/>
      <path class="st13" d="M1287.8,848.2c9.3,6.6,19.3,12.4,29.7,17.1,9.9,4.7,23.1,7.8,27.4,19.2-4.6-11.2-17.7-14-27.6-18.7-10.4-4.8-20.4-10.6-29.5-17.6h0Z"/>
      <path class="st13" d="M1608.2,1084.8c-9.1,32.6-6.7,66.9-10.2,100.3-7.8,83.2-34.5,166.7-18.5,250.5,3.1,16.5,7.5,32.9,8,49.8-.6-16.9-5-33.3-8.2-49.8-16.2-83.8,10.3-167.4,18.4-250.6,3.6-33.4,1.3-67.7,10.6-100.2h0Z"/>
    </g>
  </g>
</svg>