<?xml version="1.0" encoding="UTF-8" standalone="no"?>
<!-- Created with Inkscape (http://www.inkscape.org/) -->

<svg
   version="1.1"
   id="svg1"
   width="880"
   height="880"
   viewBox="0 0 880 880"
   sodipodi:docname="cut-the-ribbon.svg"
   inkscape:version="1.3.2 (091e20e, 2023-11-25, custom)"
   xmlns:inkscape="http://www.inkscape.org/namespaces/inkscape"
   xmlns:sodipodi="http://sodipodi.sourceforge.net/DTD/sodipodi-0.dtd"
   xmlns="http://www.w3.org/2000/svg"
   xmlns:svg="http://www.w3.org/2000/svg">
  <defs
     id="defs1">
    <clipPath
       clipPathUnits="userSpaceOnUse"
       id="clipPath3">
      <path
         d="M 0,660 H 660 V 0 H 0 Z"
         transform="translate(-375.28031,-374.06301)"
         id="path3" />
    </clipPath>
    <clipPath
       clipPathUnits="userSpaceOnUse"
       id="clipPath5">
      <path
         d="M 0,660 H 660 V 0 H 0 Z"
         transform="translate(-20.000001,-601.20902)"
         id="path5" />
    </clipPath>
    <clipPath
       clipPathUnits="userSpaceOnUse"
       id="clipPath7">
      <path
         d="M 0,660 H 660 V 0 H 0 Z"
         transform="translate(-375.28031,-374.06301)"
         id="path7" />
    </clipPath>
    <clipPath
       clipPathUnits="userSpaceOnUse"
       id="clipPath9">
      <path
         d="M 0,660 H 660 V 0 H 0 Z"
         transform="translate(-248.6914,-381.75981)"
         id="path9" />
    </clipPath>
    <clipPath
       clipPathUnits="userSpaceOnUse"
       id="clipPath11">
      <path
         d="M 0,660 H 660 V 0 H 0 Z"
         transform="translate(-139.85451,-341.42291)"
         id="path11" />
    </clipPath>
    <clipPath
       clipPathUnits="userSpaceOnUse"
       id="clipPath13">
      <path
         d="M 0,660 H 660 V 0 H 0 Z"
         transform="translate(-248.6914,-456.41261)"
         id="path13" />
    </clipPath>
    <clipPath
       clipPathUnits="userSpaceOnUse"
       id="clipPath15">
      <path
         d="M 0,660 H 660 V 0 H 0 Z"
         transform="translate(-139.85451,-496.75051)"
         id="path15" />
    </clipPath>
    <clipPath
       clipPathUnits="userSpaceOnUse"
       id="clipPath17">
      <path
         d="M 0,660 H 660 V 0 H 0 Z"
         transform="translate(-526.09471,-340.26561)"
         id="path17" />
    </clipPath>
    <clipPath
       clipPathUnits="userSpaceOnUse"
       id="clipPath19">
      <path
         d="M 0,660 H 660 V 0 H 0 Z"
         transform="translate(-307.71341,-410.88571)"
         id="path19" />
    </clipPath>
    <clipPath
       clipPathUnits="userSpaceOnUse"
       id="clipPath21">
      <path
         d="M 0,660 H 660 V 0 H 0 Z"
         transform="translate(-307.71341,-418.79791)"
         id="path21" />
    </clipPath>
    <clipPath
       clipPathUnits="userSpaceOnUse"
       id="clipPath23">
      <path
         d="M 0,660 H 660 V 0 H 0 Z"
         transform="translate(-375.81151,-411.22361)"
         id="path23" />
    </clipPath>
    <clipPath
       clipPathUnits="userSpaceOnUse"
       id="clipPath25">
      <path
         d="M 0,660 H 660 V 0 H 0 Z"
         transform="translate(-424.17381,-413.63721)"
         id="path25" />
    </clipPath>
    <clipPath
       clipPathUnits="userSpaceOnUse"
       id="clipPath27">
      <path
         d="M 0,660 H 660 V 0 H 0 Z"
         transform="translate(-639.79391,-234.9307)"
         id="path27" />
    </clipPath>
  </defs>
  <sodipodi:namedview
     id="namedview1"
     pagecolor="#ffffff"
     bordercolor="#000000"
     borderopacity="0.25"
     inkscape:showpageshadow="2"
     inkscape:pageopacity="0.0"
     inkscape:pagecheckerboard="0"
     inkscape:deskcolor="#d1d1d1"
     inkscape:zoom="0.69318182"
     inkscape:cx="439.27869"
     inkscape:cy="440"
     inkscape:window-width="1440"
     inkscape:window-height="830"
     inkscape:window-x="-6"
     inkscape:window-y="-6"
     inkscape:window-maximized="1"
     inkscape:current-layer="g1">
    <inkscape:page
       x="0"
       y="0"
       inkscape:label="1"
       id="page1"
       width="880"
       height="880"
       margin="216.312 26.941334 45.730667 26.666666"
       bleed="0" />
  </sodipodi:namedview>
  <g
     id="g1"
     inkscape:groupmode="layer"
     inkscape:label="1">
    <g
       id="group-MC0">
      <path
         id="path2"
         d="m 0,0 c -92.755,-4.059 -125.749,-129.087 -195.511,-104.655 -99.236,34.759 -23.731,216.606 -159.769,216.606 v 137.101 c 202.621,23.221 93.812,-114.616 215.429,-222.848 28.182,-25.079 75.387,3.082 113.078,4.621 C -17.847,20.55 -8.926,10.272 0,0"
         style="fill:#d65311;fill-opacity:1;fill-rule:evenodd;stroke:none"
         transform="matrix(1.3333333,0,0,-1.3333333,500.37373,381.24933)"
         clip-path="url(#clipPath3)" />
      <path
         id="path4"
         d="M 0,0 C 149.392,11.358 108.137,-123.311 162.205,-184.962 104.269,-130.993 126.676,0.272 0,-19.063 Z"
         style="fill:#bf4406;fill-opacity:1;fill-rule:evenodd;stroke:none"
         transform="matrix(1.3333333,0,0,-1.3333333,26.666667,78.388)"
         clip-path="url(#clipPath5)" />
      <path
         id="path6"
         d="m 0,0 c -92.755,-4.059 -125.749,-129.087 -195.511,-104.655 -99.236,34.759 -23.731,216.606 -159.769,216.606 v 60.032 c 68.79,11.092 102.086,-23.154 113.934,-124.933 22.959,-197.219 137.14,-40.142 200.641,-36.891 7.484,-0.546 14.968,-1.096 22.452,-1.643 L -1.104,1.268 Z"
         style="fill:#bf4406;fill-opacity:1;fill-rule:evenodd;stroke:none"
         transform="matrix(1.3333333,0,0,-1.3333333,500.37373,381.24933)"
         clip-path="url(#clipPath7)" />
      <path
         id="path8"
         d="m 0,0 -13.262,18.507 51.654,24.573 116.532,71.427 c 74.053,45.39 78.122,41.096 136.624,-10.859 z"
         style="fill:#b4c5d6;fill-opacity:1;fill-rule:evenodd;stroke:none"
         transform="matrix(1.3333333,0,0,-1.3333333,331.58853,370.98693)"
         clip-path="url(#clipPath9)" />
      <path
         id="path10"
         d="m 0,0 c -5.637,12.318 3.839,28.732 21.166,36.659 17.326,7.928 35.941,4.367 41.578,-7.95 C 68.38,16.392 58.904,-0.022 41.578,-7.949 24.252,-15.877 5.637,-12.317 0,0 m -17.045,-7.801 c 9.944,-21.731 39.683,-29.429 66.422,-17.194 16.562,7.576 49.713,37.65 70.427,55.675 5.567,4.843 7.218,12.478 4.146,19.188 -1.74,3.805 -3.483,7.611 -5.223,11.416 -3.069,6.705 -9.911,10.445 -17.21,9.409 C 75.922,67.062 29.167,60.933 13.367,53.705 -13.374,41.471 -26.99,13.933 -17.045,-7.801"
         style="fill:#332d2a;fill-opacity:1;fill-rule:evenodd;stroke:none"
         transform="matrix(1.3333333,0,0,-1.3333333,186.47267,424.76947)"
         clip-path="url(#clipPath11)" />
      <path
         id="path12"
         d="m 0,0 -13.262,-18.506 51.654,-24.576 116.532,-71.424 c 74.053,-45.387 78.122,-41.097 136.624,10.86 z"
         style="fill:#9fb3c7;fill-opacity:1;fill-rule:evenodd;stroke:none"
         transform="matrix(1.3333333,0,0,-1.3333333,331.58853,271.44987)"
         clip-path="url(#clipPath13)" />
      <path
         id="path14"
         d="m 0,0 c -5.637,-12.319 3.839,-28.732 21.166,-36.66 17.326,-7.927 35.941,-4.37 41.578,7.952 C 68.38,-16.392 58.904,0.024 41.578,7.951 24.252,15.879 5.637,12.319 0,0 m -17.045,7.801 c 9.944,21.731 39.683,29.431 66.422,17.194 16.562,-7.579 49.713,-37.647 70.427,-55.673 5.567,-4.845 7.218,-12.48 4.146,-19.191 -1.74,-3.804 -3.483,-7.61 -5.223,-11.416 -3.069,-6.702 -9.911,-10.446 -17.21,-9.411 -25.595,3.633 -72.35,9.76 -88.15,16.99 -26.741,12.238 -40.357,39.773 -30.412,61.507"
         style="fill:#332d2a;fill-opacity:1;fill-rule:evenodd;stroke:none"
         transform="matrix(1.3333333,0,0,-1.3333333,186.47267,217.666)"
         clip-path="url(#clipPath15)" />
      <path
         id="path16"
         d="m 0,0 c 4.357,3.806 9.04,7.967 14.145,12.501 l -184.966,65.756 -0.084,-0.631 c -0.978,-7.447 3.174,-14.379 10.203,-17.028 z"
         style="fill:#b4c5d6;fill-opacity:1;fill-rule:evenodd;stroke:none"
         transform="matrix(1.3333333,0,0,-1.3333333,701.4596,426.31253)"
         clip-path="url(#clipPath17)" />
      <path
         id="path18"
         d="M 0,0 C 4.795,0 8.701,3.908 8.701,8.698 8.701,13.492 4.795,17.4 0,17.4 -4.791,17.4 -8.699,13.492 -8.699,8.698 -8.699,3.908 -4.791,0 0,0"
         style="fill:#ccdae8;fill-opacity:1;fill-rule:evenodd;stroke:none"
         transform="matrix(1.3333333,0,0,-1.3333333,410.28453,332.1524)"
         clip-path="url(#clipPath19)" />
      <path
         id="path20"
         d="m 0,0 c 2.786,0 5.054,1.861 5.054,4.146 0,2.281 -2.268,4.14 -5.054,4.14 -2.783,0 -5.054,-1.859 -5.054,-4.14 C -5.054,1.861 -2.783,0 0,0"
         style="fill:#d6e3f0;fill-opacity:1;fill-rule:evenodd;stroke:none"
         transform="matrix(1.3333333,0,0,-1.3333333,410.28453,321.6028)"
         clip-path="url(#clipPath21)" />
      <path
         id="path22"
         d="M 0,0 C 95.738,49.763 138.67,-185.267 263.982,-77.724 V -244.84 C 37.179,-279.097 49.693,-92.288 39.897,-14.186 26.598,-9.459 13.299,-4.73 0,0"
         style="fill:#d65311;fill-opacity:1;fill-rule:evenodd;stroke:none"
         transform="matrix(1.3333333,0,0,-1.3333333,501.082,331.70187)"
         clip-path="url(#clipPath23)" />
      <path
         id="path24"
         d="m 0,0 c 65.98,-27.62 113.388,-167.874 215.62,-80.137 v -37.727 C 71.589,-186.011 58.811,-36.995 0,0"
         style="fill:#e86625;fill-opacity:1;fill-rule:evenodd;stroke:none"
         transform="matrix(1.3333333,0,0,-1.3333333,565.56507,328.48373)"
         clip-path="url(#clipPath25)" />
      <path
         id="path26"
         d="M 0,0 C -84.357,-32.482 -155.677,-8.081 -191.093,76.662 -168.873,-20.48 -103.347,-56.993 0,-40.563 Z"
         style="fill:#bf4406;fill-opacity:1;fill-rule:evenodd;stroke:none"
         transform="matrix(1.3333333,0,0,-1.3333333,853.05853,566.75907)"
         clip-path="url(#clipPath27)" />
    </g>
  </g>
</svg>
